<svg version="1.1" xmlns="http://www.w3.org/2000/svg" xmlns:xlink="http://www.w3.org/1999/xlink" width="1540.7471923828125" height="541"><defs/><g><g><rect fill="#ffffff" stroke="none" x="20" y="257.5" width="64.0654296875" height="46" transform="matrix(1 0 0 1 -10 -10)"/></g><g><path fill="none" stroke="#000000" paint-order="fill stroke markers" d=" M 10 247.5 L 74.0654296875 247.5 L 74.0654296875 293.5 L 10 293.5 L 10 247.5 Z Z" stroke-miterlimit="10" stroke-dasharray=""/></g><g><g><path fill="none" stroke="none"/><text fill="#000000" stroke="none" font-family="Arial" font-size="13px" font-style="normal" font-weight="normal" text-decoration="undefined" x="52.03271484375" y="274" text-anchor="middle" dominant-baseline="central" transform="matrix(1 0 0 1 -10 -10)">Discord</text><text fill="#000000" stroke="none" font-family="Arial" font-size="13px" font-style="normal" font-weight="normal" text-decoration="undefined" x="52.03271484375" y="287" text-anchor="middle" dominant-baseline="central" transform="matrix(1 0 0 1 -10 -10)">User</text></g></g><g><rect fill="#ffffff" stroke="none" x="118.5711669921875" y="360" width="64.0654296875" height="59" transform="matrix(1 0 0 1 -10 -10)"/></g><g><path fill="none" stroke="#000000" paint-order="fill stroke markers" d=" M 108.5711669921875 350 L 172.6365966796875 350 L 172.6365966796875 409 L 108.5711669921875 409 L 108.5711669921875 350 Z Z" stroke-miterlimit="10" stroke-dasharray=""/></g><g><g><path fill="none" stroke="none"/><text fill="#000000" stroke="none" font-family="Arial" font-size="13px" font-style="normal" font-weight="normal" text-decoration="undefined" x="150.6038818359375" y="376.5" text-anchor="middle" dominant-baseline="central" transform="matrix(1 0 0 1 -10 -10)">CLI1:</text><text fill="#000000" stroke="none" font-family="Arial" font-size="13px" font-style="normal" font-weight="normal" text-decoration="undefined" x="150.6038818359375" y="389.5" text-anchor="middle" dominant-baseline="central" transform="matrix(1 0 0 1 -10 -10)">Discord</text><text fill="#000000" stroke="none" font-family="Arial" font-size="13px" font-style="normal" font-weight="normal" text-decoration="undefined" x="150.6038818359375" y="402.5" text-anchor="middle" dominant-baseline="central" transform="matrix(1 0 0 1 -10 -10)">Bot</text></g></g><g><rect fill="#ffffff" stroke="none" x="115.832275390625" y="20" width="86.46630859375" height="59" transform="matrix(1 0 0 1 -10 -10)"/></g><g><path fill="none" stroke="#000000" paint-order="fill stroke markers" d=" M 105.832275390625 10 L 192.298583984375 10 L 192.298583984375 69 L 105.832275390625 69 L 105.832275390625 10 Z Z" stroke-miterlimit="10" stroke-dasharray=""/></g><g><g><path fill="none" stroke="none"/><text fill="#000000" stroke="none" font-family="Arial" font-size="13px" font-style="normal" font-weight="normal" text-decoration="undefined" x="159.0654296875" y="36.5" text-anchor="middle" dominant-baseline="central" transform="matrix(1 0 0 1 -10 -10)">Slash</text><text fill="#000000" stroke="none" font-family="Arial" font-size="13px" font-style="normal" font-weight="normal" text-decoration="undefined" x="159.0654296875" y="49.5" text-anchor="middle" dominant-baseline="central" transform="matrix(1 0 0 1 -10 -10)">Commands</text><text fill="#000000" stroke="none" font-family="Arial" font-size="13px" font-style="normal" font-weight="normal" text-decoration="undefined" x="159.0654296875" y="62.5" text-anchor="middle" dominant-baseline="central" transform="matrix(1 0 0 1 -10 -10)">Handler</text></g></g><g><rect fill="#ffffff" stroke="none" x="610.2452392578125" y="469" width="70.578125" height="72" transform="matrix(1 0 0 1 -10 -10)"/></g><g><path fill="none" stroke="#000000" paint-order="fill stroke markers" d=" M 600.2452392578125 459 L 670.8233642578125 459 L 670.8233642578125 531 L 600.2452392578125 531 L 600.2452392578125 459 Z Z" stroke-miterlimit="10" stroke-dasharray=""/></g><g><g><path fill="none" stroke="none"/><text fill="#000000" stroke="none" font-family="Arial" font-size="13px" font-style="normal" font-weight="normal" text-decoration="undefined" x="645.5343017578125" y="485.5" text-anchor="middle" dominant-baseline="central" transform="matrix(1 0 0 1 -10 -10)">Deferred</text><text fill="#000000" stroke="none" font-family="Arial" font-size="13px" font-style="normal" font-weight="normal" text-decoration="undefined" x="645.5343017578125" y="498.5" text-anchor="middle" dominant-baseline="central" transform="matrix(1 0 0 1 -10 -10)">Reply -</text><text fill="#000000" stroke="none" font-family="Arial" font-size="13px" font-style="normal" font-weight="normal" text-decoration="undefined" x="645.5343017578125" y="511.5" text-anchor="middle" dominant-baseline="central" transform="matrix(1 0 0 1 -10 -10)">3s</text></g></g><g><rect fill="#ffffff" stroke="none" x="473.021484375" y="135.5" width="59.03173828125" height="59" transform="matrix(1 0 0 1 -10 -10)"/></g><g><path fill="none" stroke="#000000" paint-order="fill stroke markers" d=" M 463.021484375 125.5 L 522.05322265625 125.5 L 522.05322265625 184.5 L 463.021484375 184.5 L 463.021484375 125.5 Z Z" stroke-miterlimit="10" stroke-dasharray=""/></g><g><g><path fill="none" stroke="none"/><text fill="#000000" stroke="none" font-family="Arial" font-size="13px" font-style="normal" font-weight="normal" text-decoration="undefined" x="502.537353515625" y="152" text-anchor="middle" dominant-baseline="central" transform="matrix(1 0 0 1 -10 -10)">Redis</text><text fill="#000000" stroke="none" font-family="Arial" font-size="13px" font-style="normal" font-weight="normal" text-decoration="undefined" x="502.537353515625" y="165" text-anchor="middle" dominant-baseline="central" transform="matrix(1 0 0 1 -10 -10)">Task</text><text fill="#000000" stroke="none" font-family="Arial" font-size="13px" font-style="normal" font-weight="normal" text-decoration="undefined" x="502.537353515625" y="178" text-anchor="middle" dominant-baseline="central" transform="matrix(1 0 0 1 -10 -10)">Queue</text></g></g><g><rect fill="#ffffff" stroke="none" x="884.6593017578125" y="251" width="61.6533203125" height="59" transform="matrix(1 0 0 1 -10 -10)"/></g><g><path fill="none" stroke="#000000" paint-order="fill stroke markers" d=" M 874.6593017578125 241 L 936.3126220703125 241 L 936.3126220703125 300 L 874.6593017578125 300 L 874.6593017578125 241 Z Z" stroke-miterlimit="10" stroke-dasharray=""/></g><g><g><path fill="none" stroke="none"/><text fill="#000000" stroke="none" font-family="Arial" font-size="13px" font-style="normal" font-weight="normal" text-decoration="undefined" x="915.4859619140625" y="267.5" text-anchor="middle" dominant-baseline="central" transform="matrix(1 0 0 1 -10 -10)">CLI2:</text><text fill="#000000" stroke="none" font-family="Arial" font-size="13px" font-style="normal" font-weight="normal" text-decoration="undefined" x="915.4859619140625" y="280.5" text-anchor="middle" dominant-baseline="central" transform="matrix(1 0 0 1 -10 -10)">Celery</text><text fill="#000000" stroke="none" font-family="Arial" font-size="13px" font-style="normal" font-weight="normal" text-decoration="undefined" x="915.4859619140625" y="293.5" text-anchor="middle" dominant-baseline="central" transform="matrix(1 0 0 1 -10 -10)">Worker</text></g></g><g><rect fill="#ffffff" stroke="none" x="1177.64599609375" y="360" width="160.20068359375" height="59" transform="matrix(1 0 0 1 -10 -10)"/></g><g><path fill="none" stroke="#000000" paint-order="fill stroke markers" d=" M 1167.64599609375 350 L 1327.8466796875 350 L 1327.8466796875 409 L 1167.64599609375 409 L 1167.64599609375 350 Z Z" stroke-miterlimit="10" stroke-dasharray=""/></g><g><g><path fill="none" stroke="none"/><text fill="#000000" stroke="none" font-family="Arial" font-size="13px" font-style="normal" font-weight="normal" text-decoration="undefined" x="1257.746337890625" y="376.5" text-anchor="middle" dominant-baseline="central" transform="matrix(1 0 0 1 -10 -10)">Riot API</text><text fill="#000000" stroke="none" font-family="Arial" font-size="13px" font-style="normal" font-weight="normal" text-decoration="undefined" x="1257.746337890625" y="389.5" text-anchor="middle" dominant-baseline="central" transform="matrix(1 0 0 1 -10 -10)">Adapter&lt;br/&gt;Cassiopeia</text></g></g><g><rect fill="#ffffff" stroke="none" x="990.58251953125" y="366.5" width="137.0634765625" height="46" transform="matrix(1 0 0 1 -10 -10)"/></g><g><path fill="none" stroke="#000000" paint-order="fill stroke markers" d=" M 980.58251953125 356.5 L 1117.64599609375 356.5 L 1117.64599609375 402.5 L 980.58251953125 402.5 L 980.58251953125 356.5 Z Z" stroke-miterlimit="10" stroke-dasharray=""/></g><g><g><path fill="none" stroke="none"/><text fill="#000000" stroke="none" font-family="Arial" font-size="13px" font-style="normal" font-weight="normal" text-decoration="undefined" x="1059.1142578125" y="383" text-anchor="middle" dominant-baseline="central" transform="matrix(1 0 0 1 -10 -10)">LLM</text><text fill="#000000" stroke="none" font-family="Arial" font-size="13px" font-style="normal" font-weight="normal" text-decoration="undefined" x="1059.1142578125" y="396" text-anchor="middle" dominant-baseline="central" transform="matrix(1 0 0 1 -10 -10)">Adapter&lt;br/&gt;Gemini</text></g></g><g><rect fill="#ffffff" stroke="none" x="799.158203125" y="366.5" width="141.42431640625" height="46" transform="matrix(1 0 0 1 -10 -10)"/></g><g><path fill="none" stroke="#000000" paint-order="fill stroke markers" d=" M 789.158203125 356.5 L 930.58251953125 356.5 L 930.58251953125 402.5 L 789.158203125 402.5 L 789.158203125 356.5 Z Z" stroke-miterlimit="10" stroke-dasharray=""/></g><g><g><path fill="none" stroke="none"/><text fill="#000000" stroke="none" font-family="Arial" font-size="13px" font-style="normal" font-weight="normal" text-decoration="undefined" x="869.870361328125" y="383" text-anchor="middle" dominant-baseline="central" transform="matrix(1 0 0 1 -10 -10)">TTS</text><text fill="#000000" stroke="none" font-family="Arial" font-size="13px" font-style="normal" font-weight="normal" text-decoration="undefined" x="869.870361328125" y="396" text-anchor="middle" dominant-baseline="central" transform="matrix(1 0 0 1 -10 -10)">Adapter&lt;br/&gt;Doubao</text></g></g><g><rect fill="#ffffff" stroke="none" x="1378.139404296875" y="469" width="126.93896484375" height="72" transform="matrix(1 0 0 1 -10 -10)"/></g><g><path fill="none" stroke="#000000" paint-order="fill stroke markers" d=" M 1368.139404296875 459 L 1495.078369140625 459 L 1495.078369140625 531 L 1368.139404296875 531 L 1368.139404296875 459 Z Z" stroke-miterlimit="10" stroke-dasharray=""/></g><g><g><path fill="none" stroke="none"/><text fill="#000000" stroke="none" font-family="Arial" font-size="13px" font-style="normal" font-weight="normal" text-decoration="undefined" x="1441.60888671875" y="485.5" text-anchor="middle" dominant-baseline="central" transform="matrix(1 0 0 1 -10 -10)">Riot Games</text><text fill="#000000" stroke="none" font-family="Arial" font-size="13px" font-style="normal" font-weight="normal" text-decoration="undefined" x="1441.60888671875" y="498.5" text-anchor="middle" dominant-baseline="central" transform="matrix(1 0 0 1 -10 -10)">API&lt;br/&gt;Match-V5</text><text fill="#000000" stroke="none" font-family="Arial" font-size="13px" font-style="normal" font-weight="normal" text-decoration="undefined" x="1441.60888671875" y="511.5" text-anchor="middle" dominant-baseline="central" transform="matrix(1 0 0 1 -10 -10)">Timeline</text></g></g><g><rect fill="#ffffff" stroke="none" x="1169.417724609375" y="482" width="158.7216796875" height="46" transform="matrix(1 0 0 1 -10 -10)"/></g><g><path fill="none" stroke="#000000" paint-order="fill stroke markers" d=" M 1159.417724609375 472 L 1318.139404296875 472 L 1318.139404296875 518 L 1159.417724609375 518 L 1159.417724609375 472 Z Z" stroke-miterlimit="10" stroke-dasharray=""/></g><g><g><path fill="none" stroke="none"/><text fill="#000000" stroke="none" font-family="Arial" font-size="13px" font-style="normal" font-weight="normal" text-decoration="undefined" x="1248.778564453125" y="498.5" text-anchor="middle" dominant-baseline="central" transform="matrix(1 0 0 1 -10 -10)">429</text><text fill="#000000" stroke="none" font-family="Arial" font-size="13px" font-style="normal" font-weight="normal" text-decoration="undefined" x="1248.778564453125" y="511.5" text-anchor="middle" dominant-baseline="central" transform="matrix(1 0 0 1 -10 -10)">Handler&lt;br/&gt;Retry-After</text></g></g><g><rect fill="#ffffff" stroke="none" x="1028.525634765625" y="482" width="61.17724609375" height="46" transform="matrix(1 0 0 1 -10 -10)"/></g><g><path fill="none" stroke="#000000" paint-order="fill stroke markers" d=" M 1018.525634765625 472 L 1079.702880859375 472 L 1079.702880859375 518 L 1018.525634765625 518 L 1018.525634765625 472 Z Z" stroke-miterlimit="10" stroke-dasharray=""/></g><g><g><path fill="none" stroke="none"/><text fill="#000000" stroke="none" font-family="Arial" font-size="13px" font-style="normal" font-weight="normal" text-decoration="undefined" x="1059.1142578125" y="498.5" text-anchor="middle" dominant-baseline="central" transform="matrix(1 0 0 1 -10 -10)">Gemini</text><text fill="#000000" stroke="none" font-family="Arial" font-size="13px" font-style="normal" font-weight="normal" text-decoration="undefined" x="1059.1142578125" y="511.5" text-anchor="middle" dominant-baseline="central" transform="matrix(1 0 0 1 -10 -10)">API</text></g></g><g><rect fill="#ffffff" stroke="none" x="837.101318359375" y="475.5" width="65.5380859375" height="59" transform="matrix(1 0 0 1 -10 -10)"/></g><g><path fill="none" stroke="#000000" paint-order="fill stroke markers" d=" M 827.101318359375 465.5 L 892.639404296875 465.5 L 892.639404296875 524.5 L 827.101318359375 524.5 L 827.101318359375 465.5 Z Z" stroke-miterlimit="10" stroke-dasharray=""/></g><g><g><path fill="none" stroke="none"/><text fill="#000000" stroke="none" font-family="Arial" font-size="13px" font-style="normal" font-weight="normal" text-decoration="undefined" x="869.870361328125" y="492" text-anchor="middle" dominant-baseline="central" transform="matrix(1 0 0 1 -10 -10)">Doubao</text><text fill="#000000" stroke="none" font-family="Arial" font-size="13px" font-style="normal" font-weight="normal" text-decoration="undefined" x="869.870361328125" y="505" text-anchor="middle" dominant-baseline="central" transform="matrix(1 0 0 1 -10 -10)">TTS</text><text fill="#000000" stroke="none" font-family="Arial" font-size="13px" font-style="normal" font-weight="normal" text-decoration="undefined" x="869.870361328125" y="518" text-anchor="middle" dominant-baseline="central" transform="matrix(1 0 0 1 -10 -10)">API</text></g></g><g><path fill="#ffffff" stroke="#000000" paint-order="fill stroke markers" d=" M 590.5419921875 361.5 C 590.5419921875 358.738576 623.8108604890625 356.5 664.85009765625 356.5 C 705.8893348234375 356.5 739.158203125 358.738576 739.158203125 361.5 L 739.158203125 397.5 C 739.158203125 400.261424 705.8893348234375 402.5 664.85009765625 402.5 C 623.8108604890625 402.5 590.5419921875 400.261424 590.5419921875 397.5 L 590.5419921875 361.5 Z" stroke-miterlimit="10" stroke-dasharray=""/></g><g><path fill="none" stroke="#000000" paint-order="fill stroke markers" d=" M 590.5419921875 361.5 C 590.5419921875 364.261424 623.8108604890625 366.5 664.85009765625 366.5 C 705.8893348234375 366.5 739.158203125 364.261424 739.158203125 361.5" stroke-miterlimit="10" stroke-dasharray=""/></g><g><g><path fill="none" stroke="none"/><text fill="#000000" stroke="none" font-family="Arial" font-size="13px" font-style="normal" font-weight="normal" text-decoration="undefined" x="674.85009765625" y="385.5" text-anchor="middle" dominant-baseline="central" transform="matrix(1 0 0 1 -10 -10)">PostgreSQL&lt;br/&gt;User</text><text fill="#000000" stroke="none" font-family="Arial" font-size="13px" font-style="normal" font-weight="normal" text-decoration="undefined" x="674.85009765625" y="398.5" text-anchor="middle" dominant-baseline="central" transform="matrix(1 0 0 1 -10 -10)">Bindings</text></g></g><g><rect fill="#ffffff" stroke="none" x="366.3104248046875" y="26.5" width="73.4599609375" height="46" transform="matrix(1 0 0 1 -10 -10)"/></g><g><path fill="none" stroke="#000000" paint-order="fill stroke markers" d=" M 356.3104248046875 16.5 L 429.7703857421875 16.5 L 429.7703857421875 62.5 L 356.3104248046875 62.5 L 356.3104248046875 16.5 Z Z" stroke-miterlimit="10" stroke-dasharray=""/></g><g><g><path fill="none" stroke="none"/><text fill="#000000" stroke="none" font-family="Arial" font-size="13px" font-style="normal" font-weight="normal" text-decoration="undefined" x="403.0404052734375" y="43" text-anchor="middle" dominant-baseline="central" transform="matrix(1 0 0 1 -10 -10)">CLI3:</text><text fill="#000000" stroke="none" font-family="Arial" font-size="13px" font-style="normal" font-weight="normal" text-decoration="undefined" x="403.0404052734375" y="56" text-anchor="middle" dominant-baseline="central" transform="matrix(1 0 0 1 -10 -10)">Observer</text></g></g><g><rect fill="#ffffff" stroke="none" x="184.0654296875" y="142" width="238.9560546875" height="46" transform="matrix(1 0 0 1 -10 -10)"/></g><g><path fill="none" stroke="#000000" paint-order="fill stroke markers" d=" M 174.0654296875 132 L 413.021484375 132 L 413.021484375 178 L 174.0654296875 178 L 174.0654296875 132 Z Z" stroke-miterlimit="10" stroke-dasharray=""/></g><g><g><path fill="none" stroke="none"/><text fill="#000000" stroke="none" font-family="Arial" font-size="13px" font-style="normal" font-weight="normal" text-decoration="undefined" x="303.54345703125" y="158.5" text-anchor="middle" dominant-baseline="central" transform="matrix(1 0 0 1 -10 -10)">llm_debug_wrapper&lt;br/&gt;Performance</text><text fill="#000000" stroke="none" font-family="Arial" font-size="13px" font-style="normal" font-weight="normal" text-decoration="undefined" x="303.54345703125" y="171.5" text-anchor="middle" dominant-baseline="central" transform="matrix(1 0 0 1 -10 -10)">Metrics</text></g></g><g><rect fill="#ffffff" stroke="none" x="1295.419921875" y="20" width="62.630859375" height="59" transform="matrix(1 0 0 1 -10 -10)"/></g><g><path fill="none" stroke="#000000" paint-order="fill stroke markers" d=" M 1285.419921875 10 L 1348.05078125 10 L 1348.05078125 69 L 1285.419921875 69 L 1285.419921875 10 Z Z" stroke-miterlimit="10" stroke-dasharray=""/></g><g><g><path fill="none" stroke="none"/><text fill="#000000" stroke="none" font-family="Arial" font-size="13px" font-style="normal" font-weight="normal" text-decoration="undefined" x="1326.7353515625" y="36.5" text-anchor="middle" dominant-baseline="central" transform="matrix(1 0 0 1 -10 -10)">CLI4:</text><text fill="#000000" stroke="none" font-family="Arial" font-size="13px" font-style="normal" font-weight="normal" text-decoration="undefined" x="1326.7353515625" y="49.5" text-anchor="middle" dominant-baseline="central" transform="matrix(1 0 0 1 -10 -10)">Jupyter</text><text fill="#000000" stroke="none" font-family="Arial" font-size="13px" font-style="normal" font-weight="normal" text-decoration="undefined" x="1326.7353515625" y="62.5" text-anchor="middle" dominant-baseline="central" transform="matrix(1 0 0 1 -10 -10)">Lab</text></g></g><g><rect fill="#ffffff" stroke="none" x="1395.0191650390625" y="129" width="145.72802734375" height="72" transform="matrix(1 0 0 1 -10 -10)"/></g><g><path fill="none" stroke="#000000" paint-order="fill stroke markers" d=" M 1385.0191650390625 119 L 1530.7471923828125 119 L 1530.7471923828125 191 L 1385.0191650390625 191 L 1385.0191650390625 119 Z Z" stroke-miterlimit="10" stroke-dasharray=""/></g><g><g><path fill="none" stroke="none"/><text fill="#000000" stroke="none" font-family="Arial" font-size="13px" font-style="normal" font-weight="normal" text-decoration="undefined" x="1467.8831787109375" y="145.5" text-anchor="middle" dominant-baseline="central" transform="matrix(1 0 0 1 -10 -10)">Scoring</text><text fill="#000000" stroke="none" font-family="Arial" font-size="13px" font-style="normal" font-weight="normal" text-decoration="undefined" x="1467.8831787109375" y="158.5" text-anchor="middle" dominant-baseline="central" transform="matrix(1 0 0 1 -10 -10)">Algorithm&lt;br/&gt;Design</text><text fill="#000000" stroke="none" font-family="Arial" font-size="13px" font-style="normal" font-weight="normal" text-decoration="undefined" x="1467.8831787109375" y="171.5" text-anchor="middle" dominant-baseline="central" transform="matrix(1 0 0 1 -10 -10)">&amp; Test</text></g></g><g><rect fill="#ffffff" stroke="none" x="1199.9893798828125" y="135.5" width="145.02978515625" height="59" transform="matrix(1 0 0 1 -10 -10)"/></g><g><path fill="none" stroke="#000000" paint-order="fill stroke markers" d=" M 1189.9893798828125 125.5 L 1335.0191650390625 125.5 L 1335.0191650390625 184.5 L 1189.9893798828125 184.5 L 1189.9893798828125 125.5 Z Z" stroke-miterlimit="10" stroke-dasharray=""/></g><g><g><path fill="none" stroke="none"/><text fill="#000000" stroke="none" font-family="Arial" font-size="13px" font-style="normal" font-weight="normal" text-decoration="undefined" x="1272.5042724609375" y="152" text-anchor="middle" dominant-baseline="central" transform="matrix(1 0 0 1 -10 -10)">Prompt</text><text fill="#000000" stroke="none" font-family="Arial" font-size="13px" font-style="normal" font-weight="normal" text-decoration="undefined" x="1272.5042724609375" y="165" text-anchor="middle" dominant-baseline="central" transform="matrix(1 0 0 1 -10 -10)">Engineering&lt;br/&gt;LLM</text><text fill="#000000" stroke="none" font-family="Arial" font-size="13px" font-style="normal" font-weight="normal" text-decoration="undefined" x="1272.5042724609375" y="178" text-anchor="middle" dominant-baseline="central" transform="matrix(1 0 0 1 -10 -10)">Quality</text></g></g><g><rect fill="#ffffff" stroke="none" x="88.9371337890625" y="469" width="123.33349609375" height="72" transform="matrix(1 0 0 1 -10 -10)"/></g><g><path fill="none" stroke="#000000" paint-order="fill stroke markers" d=" M 78.9371337890625 459 L 202.2706298828125 459 L 202.2706298828125 531 L 78.9371337890625 531 L 78.9371337890625 459 Z Z" stroke-miterlimit="10" stroke-dasharray=""/></g><g><g><path fill="none" stroke="none"/><text fill="#000000" stroke="none" font-family="Arial" font-size="13px" font-style="normal" font-weight="normal" text-decoration="undefined" x="150.6038818359375" y="485.5" text-anchor="middle" dominant-baseline="central" transform="matrix(1 0 0 1 -10 -10)">Discord Voice</text><text fill="#000000" stroke="none" font-family="Arial" font-size="13px" font-style="normal" font-weight="normal" text-decoration="undefined" x="150.6038818359375" y="498.5" text-anchor="middle" dominant-baseline="central" transform="matrix(1 0 0 1 -10 -10)">Channel&lt;br/&gt;TTS</text><text fill="#000000" stroke="none" font-family="Arial" font-size="13px" font-style="normal" font-weight="normal" text-decoration="undefined" x="150.6038818359375" y="511.5" text-anchor="middle" dominant-baseline="central" transform="matrix(1 0 0 1 -10 -10)">Playback</text></g></g><g><path fill="none" stroke="#000000" paint-order="fill stroke markers" d=" M 42 295 Q 42 325 108 361" stroke-miterlimit="10" stroke-dasharray=""/></g><g><path fill="#000000" stroke="none" paint-order="stroke fill markers" d=" M 97.06249618691747 359.8290984931237 L 108 361 L 101.0939692801294 352.43806448890183"/></g><g><path fill="none" stroke="#000000" paint-order="fill stroke markers" d=" M 97.06249618691747 359.8290984931237 L 108 361 L 101.0939692801294 352.43806448890183 L 97.06249618691747 359.8290984931237" stroke-miterlimit="10" stroke-dasharray=""/></g><g><path fill="none" stroke="#000000" paint-order="fill stroke markers" d=" M 131 349 Q 124 325 124 298 Q 124 271 124 243.5 Q 124 216 124 185.5 Q 124 155 124 124.5 Q 124 94 135 70" stroke-miterlimit="10" stroke-dasharray=""/></g><g><path fill="#000000" stroke="none" paint-order="stroke fill markers" d=" M 134.59239816270298 80.99244562152718 L 135 70 L 126.93894913601693 77.48461481762942"/></g><g><path fill="none" stroke="#000000" paint-order="fill stroke markers" d=" M 134.59239816270298 80.99244562152718 L 135 70 L 126.93894913601693 77.48461481762942 L 134.59239816270298 80.99244562152718" stroke-miterlimit="10" stroke-dasharray=""/></g><g><path fill="none" stroke="#000000" paint-order="fill stroke markers" d=" M 174 383 Q 636 434 636 458" stroke-miterlimit="10" stroke-dasharray=""/></g><g><path fill="#000000" stroke="none" paint-order="stroke fill markers" d=" M 631.790482243984 447.83732514237585 L 636 458 L 640.209517756016 447.83732514237585"/></g><g><path fill="none" stroke="#000000" paint-order="fill stroke markers" d=" M 631.790482243984 447.83732514237585 L 636 458 L 640.209517756016 447.83732514237585 L 631.790482243984 447.83732514237585" stroke-miterlimit="10" stroke-dasharray=""/></g><g><path fill="none" stroke="#000000" paint-order="fill stroke markers" d=" M 183 70 Q 209 94 462 149" stroke-miterlimit="10" stroke-dasharray=""/></g><g><path fill="#000000" stroke="none" paint-order="stroke fill markers" d=" M 451.1750479751815 150.95458784923503 L 462 149 L 452.96350069461283 142.7277053398507"/></g><g><path fill="none" stroke="#000000" paint-order="fill stroke markers" d=" M 451.1750479751815 150.95458784923503 L 462 149 L 452.96350069461283 142.7277053398507 L 451.1750479751815 150.95458784923503" stroke-miterlimit="10" stroke-dasharray=""/></g><g><path fill="none" stroke="#000000" paint-order="fill stroke markers" d=" M 493 186 Q 493 216 874 266" stroke-miterlimit="10" stroke-dasharray=""/></g><g><path fill="#000000" stroke="none" paint-order="stroke fill markers" d=" M 863.3759891737634 268.8513845696446 L 874 266 L 864.4714565364025 260.50392326633516"/></g><g><path fill="none" stroke="#000000" paint-order="fill stroke markers" d=" M 863.3759891737634 268.8513845696446 L 874 266 L 864.4714565364025 260.50392326633516 L 863.3759891737634 268.8513845696446" stroke-miterlimit="10" stroke-dasharray=""/></g><g><path fill="none" stroke="#000000" paint-order="fill stroke markers" d=" M 937 276 Q 1197 325 1219 349" stroke-miterlimit="10" stroke-dasharray=""/></g><g><path fill="#000000" stroke="none" paint-order="stroke fill markers" d=" M 1209.0297668649937 344.3530169751094 L 1219 349 L 1215.2358937491852 338.6640673312673"/></g><g><path fill="none" stroke="#000000" paint-order="fill stroke markers" d=" M 1209.0297668649937 344.3530169751094 L 1219 349 L 1215.2358937491852 338.6640673312673 L 1209.0297668649937 344.3530169751094" stroke-miterlimit="10" stroke-dasharray=""/></g><g><path fill="none" stroke="#000000" paint-order="fill stroke markers" d=" M 937 291 Q 990 325 1023 356" stroke-miterlimit="10" stroke-dasharray=""/></g><g><path fill="#000000" stroke="none" paint-order="stroke fill markers" d=" M 1012.7108005097193 352.1099648010322 L 1023 356 L 1018.4751075356858 345.9737669991969"/></g><g><path fill="none" stroke="#000000" paint-order="fill stroke markers" d=" M 1012.7108005097193 352.1099648010322 L 1023 356 L 1018.4751075356858 345.9737669991969 L 1012.7108005097193 352.1099648010322" stroke-miterlimit="10" stroke-dasharray=""/></g><g><path fill="none" stroke="#000000" paint-order="fill stroke markers" d=" M 880 301 Q 860 325 859 356" stroke-miterlimit="10" stroke-dasharray=""/></g><g><path fill="#000000" stroke="none" paint-order="stroke fill markers" d=" M 855.1203284999245 345.70688827168857 L 859 356 L 863.5349870761203 345.9783288709207"/></g><g><path fill="none" stroke="#000000" paint-order="fill stroke markers" d=" M 855.1203284999245 345.70688827168857 L 859 356 L 863.5349870761203 345.9783288709207 L 855.1203284999245 345.70688827168857" stroke-miterlimit="10" stroke-dasharray=""/></g><g><path fill="none" stroke="#000000" paint-order="fill stroke markers" d=" M 1329 403 Q 1432 434 1432 458" stroke-miterlimit="10" stroke-dasharray=""/></g><g><path fill="#000000" stroke="none" paint-order="stroke fill markers" d=" M 1427.7904822439841 447.83732514237585 L 1432 458 L 1436.2095177560159 447.83732514237585"/></g><g><path fill="none" stroke="#000000" paint-order="fill stroke markers" d=" M 1427.7904822439841 447.83732514237585 L 1432 458 L 1436.2095177560159 447.83732514237585 L 1427.7904822439841 447.83732514237585" stroke-miterlimit="10" stroke-dasharray=""/></g><g><path fill="none" stroke="#000000" paint-order="fill stroke markers" d=" M 1242 410 Q 1239 434 1238 471" stroke-miterlimit="10" stroke-dasharray=""/></g><g><path fill="#000000" stroke="none" paint-order="stroke fill markers" d=" M 1234.0665854711406 460.72730560446007 L 1238 471 L 1242.482547781569 460.95476404528245"/></g><g><path fill="none" stroke="#000000" paint-order="fill stroke markers" d=" M 1234.0665854711406 460.72730560446007 L 1238 471 L 1242.482547781569 460.95476404528245 L 1234.0665854711406 460.72730560446007" stroke-miterlimit="10" stroke-dasharray=""/></g><g><path fill="none" stroke="#000000" paint-order="fill stroke markers" d=" M 1049 404 Q 1049 434 1049 471" stroke-miterlimit="10" stroke-dasharray=""/></g><g><path fill="#000000" stroke="none" paint-order="stroke fill markers" d=" M 1044.7904822439841 460.83732514237585 L 1049 471 L 1053.2095177560159 460.83732514237585"/></g><g><path fill="none" stroke="#000000" paint-order="fill stroke markers" d=" M 1044.7904822439841 460.83732514237585 L 1049 471 L 1053.2095177560159 460.83732514237585 L 1044.7904822439841 460.83732514237585" stroke-miterlimit="10" stroke-dasharray=""/></g><g><path fill="none" stroke="#000000" paint-order="fill stroke markers" d=" M 859 404 Q 860 434 860 465" stroke-miterlimit="10" stroke-dasharray=""/></g><g><path fill="#000000" stroke="none" paint-order="stroke fill markers" d=" M 855.790482243984 454.83732514237585 L 860 465 L 864.209517756016 454.83732514237585"/></g><g><path fill="none" stroke="#000000" paint-order="fill stroke markers" d=" M 855.790482243984 454.83732514237585 L 860 465 L 864.209517756016 454.83732514237585 L 855.790482243984 454.83732514237585" stroke-miterlimit="10" stroke-dasharray=""/></g><g><path fill="none" stroke="#000000" paint-order="fill stroke markers" d=" M 874 281 Q 748 325 701 356" stroke-miterlimit="10" stroke-dasharray=""/></g><g><path fill="#000000" stroke="none" paint-order="stroke fill markers" d=" M 707.1657849593752 346.8904942046924 L 701 356 L 711.8012616772323 353.918475034992"/></g><g><path fill="none" stroke="#000000" paint-order="fill stroke markers" d=" M 707.1657849593752 346.8904942046924 L 701 356 L 711.8012616772323 353.918475034992 L 707.1657849593752 346.8904942046924" stroke-miterlimit="10" stroke-dasharray=""/></g><g><path fill="none" stroke="#000000" paint-order="fill stroke markers" d=" M 431 51 Q 572 94 572 124.5 Q 572 155 572 185.5 Q 572 216 572 243.5 Q 572 271 572 298 Q 572 325 624 356" stroke-miterlimit="10" stroke-dasharray=""/></g><g><path fill="#000000" stroke="none" paint-order="stroke fill markers" d=" M 613.1152563980702 354.41180708972496 L 624 356 L 617.4263459642864 347.1803020109107"/></g><g><path fill="none" stroke="#000000" paint-order="fill stroke markers" d=" M 613.1152563980702 354.41180708972496 L 624 356 L 617.4263459642864 347.1803020109107 L 613.1152563980702 354.41180708972496" stroke-miterlimit="10" stroke-dasharray=""/></g><g><path fill="none" stroke="#000000" paint-order="fill stroke markers" d=" M 431 60 Q 493 94 493 125" stroke-miterlimit="10" stroke-dasharray=""/></g><g><path fill="#000000" stroke="none" paint-order="stroke fill markers" d=" M 488.790482243984 114.83732514237585 L 493 125 L 497.209517756016 114.83732514237585"/></g><g><path fill="none" stroke="#000000" paint-order="fill stroke markers" d=" M 488.790482243984 114.83732514237585 L 493 125 L 497.209517756016 114.83732514237585 L 488.790482243984 114.83732514237585" stroke-miterlimit="10" stroke-dasharray=""/></g><g><path fill="none" stroke="#000000" paint-order="fill stroke markers" d=" M 355 60 Q 294 94 293 131" stroke-miterlimit="10" stroke-dasharray=""/></g><g><path fill="#000000" stroke="none" paint-order="stroke fill markers" d=" M 289.06658547114057 120.72730560446007 L 293 131 L 297.4825477815691 120.95476404528247"/></g><g><path fill="none" stroke="#000000" paint-order="fill stroke markers" d=" M 289.06658547114057 120.72730560446007 L 293 131 L 297.4825477815691 120.95476404528247 L 289.06658547114057 120.72730560446007" stroke-miterlimit="10" stroke-dasharray=""/></g><g><path fill="none" stroke="#000000" paint-order="fill stroke markers" d=" M 1349 52 Q 1458 94 1458 118" stroke-miterlimit="10" stroke-dasharray=""/></g><g><path fill="#000000" stroke="none" paint-order="stroke fill markers" d=" M 1453.7904822439841 107.83732514237585 L 1458 118 L 1462.2095177560159 107.83732514237585"/></g><g><path fill="none" stroke="#000000" paint-order="fill stroke markers" d=" M 1453.7904822439841 107.83732514237585 L 1458 118 L 1462.2095177560159 107.83732514237585 L 1453.7904822439841 107.83732514237585" stroke-miterlimit="10" stroke-dasharray=""/></g><g><path fill="none" stroke="#000000" paint-order="fill stroke markers" d=" M 1286 70 Q 1263 94 1263 125" stroke-miterlimit="10" stroke-dasharray=""/></g><g><path fill="#000000" stroke="none" paint-order="stroke fill markers" d=" M 1258.7904822439841 114.83732514237585 L 1263 125 L 1267.2095177560159 114.83732514237585"/></g><g><path fill="none" stroke="#000000" paint-order="fill stroke markers" d=" M 1258.7904822439841 114.83732514237585 L 1263 125 L 1267.2095177560159 114.83732514237585 L 1258.7904822439841 114.83732514237585" stroke-miterlimit="10" stroke-dasharray=""/></g><g><path fill="none" stroke="#000000" paint-order="fill stroke markers" d=" M 1458 192 Q 1458 216 937 267" stroke-miterlimit="10" stroke-dasharray=""/></g><g><path fill="#000000" stroke="none" paint-order="stroke fill markers" d=" M 946.7042276969206 261.82042812519035 L 937 267 L 947.5244356069919 270.1994148143499"/></g><g><path fill="none" stroke="#000000" paint-order="fill stroke markers" d=" M 946.7042276969206 261.82042812519035 L 937 267 L 947.5244356069919 270.1994148143499 L 946.7042276969206 261.82042812519035" stroke-miterlimit="10" stroke-dasharray=""/></g><g><rect fill="#ffffff" stroke="none" x="1449" y="234" width="40.46630859375" height="13" transform="matrix(1 0 0 1 -10 -10)"/></g><g><g><path fill="none" stroke="none"/><text fill="#000000" stroke="none" font-family="Arial" font-size="13px" font-style="normal" font-weight="normal" text-decoration="undefined" x="1469.233154296875" y="240.5" text-anchor="middle" dominant-baseline="central" transform="matrix(1 0 0 1 -10 -10)">Deploy</text></g></g><g><path fill="none" stroke="#000000" paint-order="fill stroke markers" d=" M 1263 186 Q 1263 216 1263 243.5 Q 1263 271 1263 298 Q 1263 325 1119 361" stroke-miterlimit="10" stroke-dasharray=""/></g><g><path fill="#000000" stroke="none" paint-order="stroke fill markers" d=" M 1127.8382847744826 354.4513572211376 L 1119 361 L 1129.8802008145965 362.61902138159263"/></g><g><path fill="none" stroke="#000000" paint-order="fill stroke markers" d=" M 1127.8382847744826 354.4513572211376 L 1119 361 L 1129.8802008145965 362.61902138159263 L 1127.8382847744826 354.4513572211376" stroke-miterlimit="10" stroke-dasharray=""/></g><g><rect fill="#ffffff" stroke="none" x="1269" y="274" width="37.578125" height="13" transform="matrix(1 0 0 1 -10 -10)"/></g><g><g><path fill="none" stroke="none"/><text fill="#000000" stroke="none" font-family="Arial" font-size="13px" font-style="normal" font-weight="normal" text-decoration="undefined" x="1287.7890625" y="280.5" text-anchor="middle" dominant-baseline="central" transform="matrix(1 0 0 1 -10 -10)">Refine</text></g></g><g><path fill="none" stroke="#000000" paint-order="fill stroke markers" d=" M 874 277 Q 645 325 174 375" stroke-miterlimit="10" stroke-dasharray=""/></g><g><path fill="#000000" stroke="none" paint-order="stroke fill markers" d=" M 183.66151769547272 369.74119064615695 L 174 375 L 184.55026443409227 378.11318492395293"/></g><g><path fill="none" stroke="#000000" paint-order="fill stroke markers" d=" M 183.66151769547272 369.74119064615695 L 174 375 L 184.55026443409227 378.11318492395293 L 183.66151769547272 369.74119064615695" stroke-miterlimit="10" stroke-dasharray=""/></g><g><path fill="none" stroke="#000000" paint-order="fill stroke markers" d=" M 141 410 Q 141 434 141 458" stroke-miterlimit="10" stroke-dasharray=""/></g><g><path fill="#000000" stroke="none" paint-order="stroke fill markers" d=" M 136.790482243984 447.83732514237585 L 141 458 L 145.209517756016 447.83732514237585"/></g><g><path fill="none" stroke="#000000" paint-order="fill stroke markers" d=" M 136.790482243984 447.83732514237585 L 141 458 L 145.209517756016 447.83732514237585 L 136.790482243984 447.83732514237585" stroke-miterlimit="10" stroke-dasharray=""/></g></g></svg>
