<svg version="1.1" xmlns="http://www.w3.org/2000/svg" xmlns:xlink="http://www.w3.org/1999/xlink" width="1277.4052734375" height="3566"><defs/><g><g><rect fill="#C0C0C0" stroke="none" x="32" y="47" width="98.0126953125" height="40" transform="matrix(1 0 0 1 -15 -30)" fill-opacity="0.2"/></g><g><rect fill="#ffffff" stroke="none" x="25" y="40" width="98.0126953125" height="40" transform="matrix(1 0 0 1 -15 -30)"/></g><g><path fill="none" stroke="#000000" paint-order="fill stroke markers" d=" M 10 10 L 108.0126953125 10 L 108.0126953125 50 L 10 50 L 10 10 Z Z" stroke-miterlimit="10" stroke-dasharray=""/></g><g><g><path fill="none" stroke="none"/><text fill="#000000" stroke="none" font-family="Arial" font-size="13px" font-style="normal" font-weight="bold" text-decoration="undefined" x="74.50634765625" y="53.5" text-anchor="middle" dominant-baseline="central" transform="matrix(1 0 0 1 -15 -30)">Discord 用户</text></g></g><g><path fill="none" stroke="#000000" paint-order="fill stroke markers" d=" M 59.5 51 L 59.5 2359" stroke-miterlimit="10" stroke-dasharray="3"/></g><g><rect fill="#C0C0C0" stroke="none" x="182" y="47" width="175.314453125" height="40" transform="matrix(1 0 0 1 -15 -30)" fill-opacity="0.2"/></g><g><rect fill="#ffffff" stroke="none" x="175" y="40" width="175.314453125" height="40" transform="matrix(1 0 0 1 -15 -30)"/></g><g><path fill="none" stroke="#000000" paint-order="fill stroke markers" d=" M 160 10 L 335.314453125 10 L 335.314453125 50 L 160 50 L 160 10 Z Z" stroke-miterlimit="10" stroke-dasharray=""/></g><g><g><path fill="none" stroke="none"/><text fill="#000000" stroke="none" font-family="Arial" font-size="13px" font-style="normal" font-weight="bold" text-decoration="undefined" x="263.1572265625" y="53.5" text-anchor="middle" dominant-baseline="central" transform="matrix(1 0 0 1 -15 -30)">CLI1 前端&lt;br/&gt;discord.py</text></g></g><g><path fill="none" stroke="#000000" paint-order="fill stroke markers" d=" M 248.5 51 L 248.5 2359" stroke-miterlimit="10" stroke-dasharray="3"/></g><g><rect fill="#C0C0C0" stroke="none" x="332" y="47" width="85.0126953125" height="40" transform="matrix(1 0 0 1 -15 -30)" fill-opacity="0.2"/></g><g><rect fill="#ffffff" stroke="none" x="325" y="40" width="85.0126953125" height="40" transform="matrix(1 0 0 1 -15 -30)"/></g><g><path fill="none" stroke="#000000" paint-order="fill stroke markers" d=" M 310 10 L 395.0126953125 10 L 395.0126953125 50 L 310 50 L 310 10 Z Z" stroke-miterlimit="10" stroke-dasharray=""/></g><g><g><path fill="none" stroke="none"/><text fill="#000000" stroke="none" font-family="Arial" font-size="13px" font-style="normal" font-weight="bold" text-decoration="undefined" x="368.00634765625" y="53.5" text-anchor="middle" dominant-baseline="central" transform="matrix(1 0 0 1 -15 -30)">Redis 队列</text></g></g><g><path fill="none" stroke="#000000" paint-order="fill stroke markers" d=" M 353.5 51 L 353.5 476" stroke-miterlimit="10" stroke-dasharray="3"/></g><g><rect fill="#C0C0C0" stroke="none" x="482" y="47" width="197.4931640625" height="40" transform="matrix(1 0 0 1 -15 -30)" fill-opacity="0.2"/></g><g><rect fill="#ffffff" stroke="none" x="475" y="40" width="197.4931640625" height="40" transform="matrix(1 0 0 1 -15 -30)"/></g><g><path fill="none" stroke="#000000" paint-order="fill stroke markers" d=" M 460 10 L 657.4931640625 10 L 657.4931640625 50 L 460 50 L 460 10 Z Z" stroke-miterlimit="10" stroke-dasharray=""/></g><g><g><path fill="none" stroke="none"/><text fill="#000000" stroke="none" font-family="Arial" font-size="13px" font-style="normal" font-weight="bold" text-decoration="undefined" x="574.24658203125" y="53.5" text-anchor="middle" dominant-baseline="central" transform="matrix(1 0 0 1 -15 -30)">CLI2 后端&lt;br/&gt;Celery Worker</text></g></g><g><path fill="none" stroke="#000000" paint-order="fill stroke markers" d=" M 559.5 51 L 559.5 3565" stroke-miterlimit="10" stroke-dasharray="3"/></g><g><rect fill="#C0C0C0" stroke="none" x="632" y="47" width="170.99169921875" height="40" transform="matrix(1 0 0 1 -15 -30)" fill-opacity="0.2"/></g><g><rect fill="#ffffff" stroke="none" x="625" y="40" width="170.99169921875" height="40" transform="matrix(1 0 0 1 -15 -30)"/></g><g><path fill="none" stroke="#000000" paint-order="fill stroke markers" d=" M 610 10 L 780.99169921875 10 L 780.99169921875 50 L 610 50 L 610 10 Z Z" stroke-miterlimit="10" stroke-dasharray=""/></g><g><g><path fill="none" stroke="none"/><text fill="#000000" stroke="none" font-family="Arial" font-size="13px" font-style="normal" font-weight="bold" text-decoration="undefined" x="710.995849609375" y="53.5" text-anchor="middle" dominant-baseline="central" transform="matrix(1 0 0 1 -15 -30)">Riot API&lt;br/&gt;Cassiopeia</text></g></g><g><path fill="none" stroke="#000000" paint-order="fill stroke markers" d=" M 695.5 51 L 695.5 806" stroke-miterlimit="10" stroke-dasharray="3"/></g><g><rect fill="#C0C0C0" stroke="none" x="782" y="47" width="94.38818359375" height="40" transform="matrix(1 0 0 1 -15 -30)" fill-opacity="0.2"/></g><g><rect fill="#ffffff" stroke="none" x="775" y="40" width="94.38818359375" height="40" transform="matrix(1 0 0 1 -15 -30)"/></g><g><path fill="none" stroke="#000000" paint-order="fill stroke markers" d=" M 760 10 L 854.38818359375 10 L 854.38818359375 50 L 760 50 L 760 10 Z Z" stroke-miterlimit="10" stroke-dasharray=""/></g><g><g><path fill="none" stroke="none"/><text fill="#000000" stroke="none" font-family="Arial" font-size="13px" font-style="normal" font-weight="bold" text-decoration="undefined" x="822.694091796875" y="53.5" text-anchor="middle" dominant-baseline="central" transform="matrix(1 0 0 1 -15 -30)">Gemini LLM</text></g></g><g><path fill="none" stroke="#000000" paint-order="fill stroke markers" d=" M 807.5 51 L 807.5 1046" stroke-miterlimit="10" stroke-dasharray="3"/></g><g><rect fill="#C0C0C0" stroke="none" x="932" y="47" width="74.16455078125" height="40" transform="matrix(1 0 0 1 -15 -30)" fill-opacity="0.2"/></g><g><rect fill="#ffffff" stroke="none" x="925" y="40" width="74.16455078125" height="40" transform="matrix(1 0 0 1 -15 -30)"/></g><g><path fill="none" stroke="#000000" paint-order="fill stroke markers" d=" M 910 10 L 984.16455078125 10 L 984.16455078125 50 L 910 50 L 910 10 Z Z" stroke-miterlimit="10" stroke-dasharray=""/></g><g><g><path fill="none" stroke="none"/><text fill="#000000" stroke="none" font-family="Arial" font-size="13px" font-style="normal" font-weight="bold" text-decoration="undefined" x="962.582275390625" y="53.5" text-anchor="middle" dominant-baseline="central" transform="matrix(1 0 0 1 -15 -30)">豆包 TTS</text></g></g><g><path fill="none" stroke="#000000" paint-order="fill stroke markers" d=" M 947.5 51 L 947.5 1166" stroke-miterlimit="10" stroke-dasharray="3"/></g><g><rect fill="#C0C0C0" stroke="none" x="1082" y="47" width="148.578125" height="40" transform="matrix(1 0 0 1 -15 -30)" fill-opacity="0.2"/></g><g><rect fill="#ffffff" stroke="none" x="1075" y="40" width="148.578125" height="40" transform="matrix(1 0 0 1 -15 -30)"/></g><g><path fill="none" stroke="#000000" paint-order="fill stroke markers" d=" M 1060 10 L 1208.578125 10 L 1208.578125 50 L 1060 50 L 1060 10 Z Z" stroke-miterlimit="10" stroke-dasharray=""/></g><g><g><path fill="none" stroke="none"/><text fill="#000000" stroke="none" font-family="Arial" font-size="13px" font-style="normal" font-weight="bold" text-decoration="undefined" x="1149.7890625" y="53.5" text-anchor="middle" dominant-baseline="central" transform="matrix(1 0 0 1 -15 -30)">CLI3 观察者&lt;br/&gt;监控</text></g></g><g><path fill="none" stroke="#000000" paint-order="fill stroke markers" d=" M 1134.5 51 L 1134.5 3568" stroke-miterlimit="10" stroke-dasharray="3"/></g><g><path fill="#ffffff" stroke="none" paint-order="stroke fill markers" d=" M 30 80 L 1099 80 L 1109 90 L 1109 119 L 30 119 L 30 80"/></g><g><path fill="none" stroke="#000000" paint-order="fill stroke markers" d=" M 30 80 L 1099 80 L 1109 90 L 1109 119 L 30 119 L 30 80 L 30 80" stroke-miterlimit="10" stroke-dasharray=""/></g><g><path fill="none" stroke="#000000" paint-order="fill stroke markers" d=" M 1099 80 L 1099 90 L 1109 90 L 1099 80" stroke-miterlimit="10" stroke-dasharray=""/></g><g><g><path fill="none" stroke="none"/><text fill="#000000" stroke="none" font-family="Arial" font-size="13px" font-style="normal" font-weight="normal" text-decoration="undefined" x="50" y="115" text-anchor="start" dominant-baseline="text-before-edge" transform="matrix(1 0 0 1 -15 -30)">/讲道理 命令流程</text></g></g><g><path fill="#ffffff" stroke="none" paint-order="stroke fill markers" d=" M 210 260 L 431.38623046875 260 L 441.38623046875 270 L 441.38623046875 299 L 210 299 L 210 260"/></g><g><path fill="none" stroke="#000000" paint-order="fill stroke markers" d=" M 210 260 L 431.38623046875 260 L 441.38623046875 270 L 441.38623046875 299 L 210 299 L 210 260 L 210 260" stroke-miterlimit="10" stroke-dasharray=""/></g><g><path fill="none" stroke="#000000" paint-order="fill stroke markers" d=" M 431.38623046875 260 L 431.38623046875 270 L 441.38623046875 270 L 431.38623046875 260" stroke-miterlimit="10" stroke-dasharray=""/></g><g><g><path fill="none" stroke="none"/><text fill="#000000" stroke="none" font-family="Arial" font-size="13px" font-style="normal" font-weight="normal" text-decoration="undefined" x="230" y="295" text-anchor="start" dominant-baseline="text-before-edge" transform="matrix(1 0 0 1 -15 -30)">DEFERRED_CHANNEL_MESSAGE</text></g></g><g><path fill="#ffffff" stroke="none" paint-order="stroke fill markers" d=" M 1080 1310 L 1141 1310 L 1151 1320 L 1151 1349 L 1080 1349 L 1080 1310"/></g><g><path fill="none" stroke="#000000" paint-order="fill stroke markers" d=" M 1080 1310 L 1141 1310 L 1151 1320 L 1151 1349 L 1080 1349 L 1080 1310 L 1080 1310" stroke-miterlimit="10" stroke-dasharray=""/></g><g><path fill="none" stroke="#000000" paint-order="fill stroke markers" d=" M 1141 1310 L 1141 1320 L 1151 1320 L 1141 1310" stroke-miterlimit="10" stroke-dasharray=""/></g><g><g><path fill="none" stroke="none"/><text fill="#000000" stroke="none" font-family="Arial" font-size="13px" font-style="normal" font-weight="normal" text-decoration="undefined" x="1100" y="1345" text-anchor="start" dominant-baseline="text-before-edge" transform="matrix(1 0 0 1 -15 -30)">持续监控</text></g></g><g><path fill="none" stroke="#000000" paint-order="fill stroke markers" d=" M 354 130 L 552 130" stroke-miterlimit="10" stroke-dasharray=""/></g><g><path fill="#000000" stroke="none" paint-order="stroke fill markers" d=" M 541.8373251423759 134.209517756016 L 552 130 L 541.8373251423758 125.790482243984"/></g><g><path fill="none" stroke="#000000" paint-order="fill stroke markers" d=" M 541.8373251423759 134.209517756016 L 552 130 L 541.8373251423758 125.790482243984 L 541.8373251423759 134.209517756016" stroke-miterlimit="10" stroke-dasharray=""/></g><g><rect fill="#ffffff" stroke="none" x="442" y="144" width="52" height="13" transform="matrix(1 0 0 1 -15 -30)"/></g><g><g><path fill="none" stroke="none"/><text fill="#000000" stroke="none" font-family="Arial" font-size="13px" font-style="normal" font-weight="normal" text-decoration="undefined" x="468" y="150.5" text-anchor="middle" dominant-baseline="central" transform="matrix(1 0 0 1 -15 -30)">任务通知</text></g></g><g><rect fill="#ffffff" stroke="none" x="567" y="160" width="14" height="60" transform="matrix(1 0 0 1 -15 -30)"/></g><g><path fill="none" stroke="#000000" paint-order="fill stroke markers" d=" M 552 130 L 566 130 L 566 190 L 552 190 L 552 130 Z Z" stroke-miterlimit="10" stroke-dasharray=""/></g><g><path fill="none" stroke="#000000" paint-order="fill stroke markers" d=" M 807 130 L 573 130" stroke-miterlimit="10" stroke-dasharray=""/></g><g><path fill="none" stroke="#000000" paint-order="fill stroke markers" d=" M 583.1626748576241 125.790482243984 L 573 130 L 583.1626748576241 134.209517756016" stroke-miterlimit="10" stroke-dasharray=""/></g><g><rect fill="#ffffff" stroke="none" x="645" y="164" width="118.8154296875" height="13" transform="matrix(1 0 0 1 -15 -30)"/></g><g><g><path fill="none" stroke="none"/><text fill="#000000" stroke="none" font-family="Arial" font-size="13px" font-style="normal" font-weight="normal" text-decoration="undefined" x="704.40771484375" y="170.5" text-anchor="middle" dominant-baseline="central" transform="matrix(1 0 0 1 -15 -30)">分析结果 + 情绪标签</text></g></g><g><path fill="none" stroke="#000000" paint-order="fill stroke markers" d=" M 947 130 L 573 130" stroke-miterlimit="10" stroke-dasharray=""/></g><g><path fill="none" stroke="#000000" paint-order="fill stroke markers" d=" M 583.1626748576241 125.790482243984 L 573 130 L 583.1626748576241 134.209517756016" stroke-miterlimit="10" stroke-dasharray=""/></g><g><rect fill="#ffffff" stroke="none" x="755" y="164" width="39" height="13" transform="matrix(1 0 0 1 -15 -30)"/></g><g><g><path fill="none" stroke="none"/><text fill="#000000" stroke="none" font-family="Arial" font-size="13px" font-style="normal" font-weight="normal" text-decoration="undefined" x="774.5" y="170.5" text-anchor="middle" dominant-baseline="central" transform="matrix(1 0 0 1 -15 -30)">音频流</text></g></g><g><path fill="none" stroke="#000000" paint-order="fill stroke markers" d=" M 60 140 L 241 140" stroke-miterlimit="10" stroke-dasharray=""/></g><g><path fill="#000000" stroke="none" paint-order="stroke fill markers" d=" M 230.83732514237585 144.209517756016 L 241 140 L 230.83732514237585 135.790482243984"/></g><g><path fill="none" stroke="#000000" paint-order="fill stroke markers" d=" M 230.83732514237585 144.209517756016 L 241 140 L 230.83732514237585 135.790482243984 L 230.83732514237585 144.209517756016" stroke-miterlimit="10" stroke-dasharray=""/></g><g><rect fill="#ffffff" stroke="none" x="129" y="154" width="72.2236328125" height="13" transform="matrix(1 0 0 1 -15 -30)"/></g><g><g><path fill="none" stroke="none"/><text fill="#000000" stroke="none" font-family="Arial" font-size="13px" font-style="normal" font-weight="normal" text-decoration="undefined" x="165.11181640625" y="160.5" text-anchor="middle" dominant-baseline="central" transform="matrix(1 0 0 1 -15 -30)">/讲道理 命令</text></g></g><g><rect fill="#ffffff" stroke="none" x="256" y="170" width="14" height="60" transform="matrix(1 0 0 1 -15 -30)"/></g><g><path fill="none" stroke="#000000" paint-order="fill stroke markers" d=" M 241 140 L 255 140 L 255 200 L 241 200 L 241 140 Z Z" stroke-miterlimit="10" stroke-dasharray=""/></g><g><path fill="none" stroke="#000000" paint-order="fill stroke markers" d=" M 248 200 L 66 200" stroke-miterlimit="10" stroke-dasharray=""/></g><g><path fill="#000000" stroke="none" paint-order="stroke fill markers" d=" M 76.16267485762415 195.790482243984 L 66 200 L 76.16267485762415 204.209517756016"/></g><g><path fill="none" stroke="#000000" paint-order="fill stroke markers" d=" M 76.16267485762415 195.790482243984 L 66 200 L 76.16267485762415 204.209517756016 L 76.16267485762415 195.790482243984" stroke-miterlimit="10" stroke-dasharray=""/></g><g><rect fill="#ffffff" stroke="none" x="116" y="234" width="110.5" height="13" transform="matrix(1 0 0 1 -15 -30)"/></g><g><g><path fill="none" stroke="none"/><text fill="#000000" stroke="none" font-family="Arial" font-size="13px" font-style="normal" font-weight="normal" text-decoration="undefined" x="171.25" y="240.5" text-anchor="middle" dominant-baseline="central" transform="matrix(1 0 0 1 -15 -30)">延迟回复 (3秒窗口)</text></g></g><g><rect fill="#ffffff" stroke="none" x="67" y="230" width="14" height="60" transform="matrix(1 0 0 1 -15 -30)"/></g><g><path fill="none" stroke="#000000" paint-order="fill stroke markers" d=" M 52 200 L 66 200 L 66 260 L 52 260 L 52 200 Z Z" stroke-miterlimit="10" stroke-dasharray=""/></g><g><path fill="none" stroke="#000000" paint-order="fill stroke markers" d=" M 249 320 L 346 320" stroke-miterlimit="10" stroke-dasharray=""/></g><g><path fill="#000000" stroke="none" paint-order="stroke fill markers" d=" M 335.83732514237585 324.209517756016 L 346 320 L 335.83732514237585 315.790482243984"/></g><g><path fill="none" stroke="#000000" paint-order="fill stroke markers" d=" M 335.83732514237585 324.209517756016 L 346 320 L 335.83732514237585 315.790482243984 L 335.83732514237585 324.209517756016" stroke-miterlimit="10" stroke-dasharray=""/></g><g><rect fill="#ffffff" stroke="none" x="234" y="334" width="156" height="13" transform="matrix(1 0 0 1 -15 -30)"/></g><g><g><path fill="none" stroke="none"/><text fill="#000000" stroke="none" font-family="Arial" font-size="13px" font-style="normal" font-weight="normal" text-decoration="undefined" x="312" y="340.5" text-anchor="middle" dominant-baseline="central" transform="matrix(1 0 0 1 -15 -30)">任务入队（包含交互令牌）</text></g></g><g><rect fill="#ffffff" stroke="none" x="361" y="350" width="14" height="60" transform="matrix(1 0 0 1 -15 -30)"/></g><g><path fill="none" stroke="#000000" paint-order="fill stroke markers" d=" M 346 320 L 360 320 L 360 380 L 346 380 L 346 320 Z Z" stroke-miterlimit="10" stroke-dasharray=""/></g><g><path fill="none" stroke="#000000" paint-order="fill stroke markers" d=" M 695 340 L 560 340" stroke-miterlimit="10" stroke-dasharray=""/></g><g><path fill="none" stroke="#000000" paint-order="fill stroke markers" d=" M 570.1626748576241 335.790482243984 L 560 340 L 570.1626748576241 344.209517756016" stroke-miterlimit="10" stroke-dasharray=""/></g><g><rect fill="#ffffff" stroke="none" x="585" y="374" width="113.65478515625" height="13" transform="matrix(1 0 0 1 -15 -30)"/></g><g><g><path fill="none" stroke="none"/><text fill="#000000" stroke="none" font-family="Arial" font-size="13px" font-style="normal" font-weight="normal" text-decoration="undefined" x="641.827392578125" y="380.5" text-anchor="middle" dominant-baseline="central" transform="matrix(1 0 0 1 -15 -30)">MatchTimeline 数据</text></g></g><g><path fill="none" stroke="#000000" paint-order="fill stroke markers" d=" M 695 340 L 560 340" stroke-miterlimit="10" stroke-dasharray=""/></g><g><path fill="none" stroke="#000000" paint-order="fill stroke markers" d=" M 570.1626748576241 335.790482243984 L 560 340 L 570.1626748576241 344.209517756016" stroke-miterlimit="10" stroke-dasharray=""/></g><g><rect fill="#ffffff" stroke="none" x="577" y="374" width="128.958984375" height="13" transform="matrix(1 0 0 1 -15 -30)"/></g><g><g><path fill="none" stroke="none"/><text fill="#000000" stroke="none" font-family="Arial" font-size="13px" font-style="normal" font-weight="normal" text-decoration="undefined" x="641.4794921875" y="380.5" text-anchor="middle" dominant-baseline="central" transform="matrix(1 0 0 1 -15 -30)">429 + Retry-After 头部</text></g></g><g><path fill="none" stroke="#000000" paint-order="fill stroke markers" d=" M 560 440 L 688 440" stroke-miterlimit="10" stroke-dasharray=""/></g><g><path fill="#000000" stroke="none" paint-order="stroke fill markers" d=" M 677.8373251423759 444.209517756016 L 688 440 L 677.8373251423758 435.790482243984"/></g><g><path fill="none" stroke="#000000" paint-order="fill stroke markers" d=" M 677.8373251423759 444.209517756016 L 688 440 L 677.8373251423758 435.790482243984 L 677.8373251423759 444.209517756016" stroke-miterlimit="10" stroke-dasharray=""/></g><g><rect fill="#ffffff" stroke="none" x="552" y="454" width="174.13525390625" height="13" transform="matrix(1 0 0 1 -15 -30)"/></g><g><g><path fill="none" stroke="none"/><text fill="#000000" stroke="none" font-family="Arial" font-size="13px" font-style="normal" font-weight="normal" text-decoration="undefined" x="639.067626953125" y="460.5" text-anchor="middle" dominant-baseline="central" transform="matrix(1 0 0 1 -15 -30)">get_match_timeline(match_id)</text></g></g><g><rect fill="#ffffff" stroke="none" x="703" y="470" width="14" height="60" transform="matrix(1 0 0 1 -15 -30)"/></g><g><path fill="none" stroke="#000000" paint-order="fill stroke markers" d=" M 688 440 L 702 440 L 702 500 L 688 500 L 688 440 Z Z" stroke-miterlimit="10" stroke-dasharray=""/></g><g><path fill="none" stroke="#000000" paint-order="fill stroke markers" d=" M 560 590 L 590 590 L 590 610 L 566 610" stroke-miterlimit="10" stroke-dasharray=""/></g><g><path fill="#000000" stroke="none" paint-order="stroke fill markers" d=" M 576.1626748576241 605.790482243984 L 566 610 L 576.1626748576241 614.209517756016"/></g><g><path fill="none" stroke="#000000" paint-order="fill stroke markers" d=" M 576.1626748576241 605.790482243984 L 566 610 L 576.1626748576241 614.209517756016 L 576.1626748576241 605.790482243984" stroke-miterlimit="10" stroke-dasharray=""/></g><g><rect fill="#ffffff" stroke="none" x="553" y="623" width="122.0654296875" height="13" transform="matrix(1 0 0 1 -15 -30)"/></g><g><g><path fill="none" stroke="none"/><text fill="#000000" stroke="none" font-family="Arial" font-size="13px" font-style="normal" font-weight="normal" text-decoration="undefined" x="614.03271484375" y="629.5" text-anchor="middle" dominant-baseline="central" transform="matrix(1 0 0 1 -15 -30)">根据 Retry-After 等待</text></g></g><g><rect fill="#ffffff" stroke="none" x="567" y="640" width="14" height="60" transform="matrix(1 0 0 1 -15 -30)"/></g><g><path fill="none" stroke="#000000" paint-order="fill stroke markers" d=" M 552 610 L 566 610 L 566 670 L 552 670 L 552 610 Z Z" stroke-miterlimit="10" stroke-dasharray=""/></g><g><path fill="none" stroke="#000000" paint-order="fill stroke markers" d=" M 566 650 L 688 650" stroke-miterlimit="10" stroke-dasharray=""/></g><g><path fill="#000000" stroke="none" paint-order="stroke fill markers" d=" M 677.8373251423759 654.209517756016 L 688 650 L 677.8373251423758 645.790482243984"/></g><g><path fill="none" stroke="#000000" paint-order="fill stroke markers" d=" M 677.8373251423759 654.209517756016 L 688 650 L 677.8373251423758 645.790482243984 L 677.8373251423759 654.209517756016" stroke-miterlimit="10" stroke-dasharray=""/></g><g><rect fill="#ffffff" stroke="none" x="616" y="664" width="52" height="13" transform="matrix(1 0 0 1 -15 -30)"/></g><g><g><path fill="none" stroke="none"/><text fill="#000000" stroke="none" font-family="Arial" font-size="13px" font-style="normal" font-weight="normal" text-decoration="undefined" x="642" y="670.5" text-anchor="middle" dominant-baseline="central" transform="matrix(1 0 0 1 -15 -30)">重试请求</text></g></g><g><rect fill="#ffffff" stroke="none" x="703" y="680" width="14" height="60" transform="matrix(1 0 0 1 -15 -30)"/></g><g><path fill="none" stroke="#000000" paint-order="fill stroke markers" d=" M 688 650 L 702 650 L 702 710 L 688 710 L 688 650 Z Z" stroke-miterlimit="10" stroke-dasharray=""/></g><g><path fill="none" stroke="#000000" paint-order="fill stroke markers" d=" M 560 770 L 1127 770" stroke-miterlimit="10" stroke-dasharray=""/></g><g><path fill="#000000" stroke="none" paint-order="stroke fill markers" d=" M 1116.837325142376 774.209517756016 L 1127 770 L 1116.837325142376 765.790482243984"/></g><g><path fill="none" stroke="#000000" paint-order="fill stroke markers" d=" M 1116.837325142376 774.209517756016 L 1127 770 L 1116.837325142376 765.790482243984 L 1116.837325142376 774.209517756016" stroke-miterlimit="10" stroke-dasharray=""/></g><g><rect fill="#ffffff" stroke="none" x="819" y="784" width="78" height="13" transform="matrix(1 0 0 1 -15 -30)"/></g><g><g><path fill="none" stroke="none"/><text fill="#000000" stroke="none" font-family="Arial" font-size="13px" font-style="normal" font-weight="normal" text-decoration="undefined" x="858" y="790.5" text-anchor="middle" dominant-baseline="central" transform="matrix(1 0 0 1 -15 -30)">记录性能指标</text></g></g><g><rect fill="#ffffff" stroke="none" x="1142" y="800" width="14" height="2796" transform="matrix(1 0 0 1 -15 -30)"/></g><g><path fill="none" stroke="#000000" paint-order="fill stroke markers" d=" M 1127 770 L 1141 770 L 1141 3566 L 1127 3566 L 1127 770 Z Z" stroke-miterlimit="10" stroke-dasharray=""/></g><g><path fill="none" stroke="#000000" paint-order="fill stroke markers" d=" M 1127 790 L 560 790" stroke-miterlimit="10" stroke-dasharray=""/></g><g><path fill="none" stroke="#000000" paint-order="fill stroke markers" d=" M 570.1626748576241 785.790482243984 L 560 790 L 570.1626748576241 794.209517756016" stroke-miterlimit="10" stroke-dasharray=""/></g><g><rect fill="#ffffff" stroke="none" x="838" y="824" width="39" height="13" transform="matrix(1 0 0 1 -15 -30)"/></g><g><g><path fill="none" stroke="none"/><text fill="#000000" stroke="none" font-family="Arial" font-size="13px" font-style="normal" font-weight="normal" text-decoration="undefined" x="857.5" y="830.5" text-anchor="middle" dominant-baseline="central" transform="matrix(1 0 0 1 -15 -30)">已确认</text></g></g><g><path fill="none" stroke="#000000" paint-order="fill stroke markers" d=" M 1141 790 L 1171 790 L 1171 810 L 1148 810" stroke-miterlimit="10" stroke-dasharray=""/></g><g><path fill="#000000" stroke="none" paint-order="stroke fill markers" d=" M 1158.162674857624 805.790482243984 L 1148 810 L 1158.162674857624 814.209517756016"/></g><g><path fill="none" stroke="#000000" paint-order="fill stroke markers" d=" M 1158.162674857624 805.790482243984 L 1148 810 L 1158.162674857624 814.209517756016 L 1158.162674857624 805.790482243984" stroke-miterlimit="10" stroke-dasharray=""/></g><g><rect fill="#ffffff" stroke="none" x="1109" y="823" width="173.4052734375" height="13" transform="matrix(1 0 0 1 -15 -30)"/></g><g><g><path fill="none" stroke="none"/><text fill="#000000" stroke="none" font-family="Arial" font-size="13px" font-style="normal" font-weight="normal" text-decoration="undefined" x="1195.70263671875" y="829.5" text-anchor="middle" dominant-baseline="central" transform="matrix(1 0 0 1 -15 -30)">分析 llm_debug_wrapper 日志</text></g></g><g><rect fill="#ffffff" stroke="none" x="1149" y="840" width="14" height="2753" transform="matrix(1 0 0 1 -15 -30)"/></g><g><path fill="none" stroke="#000000" paint-order="fill stroke markers" d=" M 1134 810 L 1148 810 L 1148 3563 L 1134 3563 L 1134 810 Z Z" stroke-miterlimit="10" stroke-dasharray=""/></g><g><path fill="none" stroke="#000000" paint-order="fill stroke markers" d=" M 1141 790 L 1171 790 L 1171 810 L 1148 810" stroke-miterlimit="10" stroke-dasharray=""/></g><g><path fill="#000000" stroke="none" paint-order="stroke fill markers" d=" M 1158.162674857624 805.790482243984 L 1148 810 L 1158.162674857624 814.209517756016"/></g><g><path fill="none" stroke="#000000" paint-order="fill stroke markers" d=" M 1158.162674857624 805.790482243984 L 1148 810 L 1158.162674857624 814.209517756016 L 1158.162674857624 805.790482243984" stroke-miterlimit="10" stroke-dasharray=""/></g><g><rect fill="#ffffff" stroke="none" x="1136" y="823" width="118.4599609375" height="13" transform="matrix(1 0 0 1 -15 -30)"/></g><g><g><path fill="none" stroke="none"/><text fill="#000000" stroke="none" font-family="Arial" font-size="13px" font-style="normal" font-weight="normal" text-decoration="undefined" x="1195.22998046875" y="829.5" text-anchor="middle" dominant-baseline="central" transform="matrix(1 0 0 1 -15 -30)">监控 Redis 队列深度</text></g></g><g><rect fill="#ffffff" stroke="none" x="1149" y="840" width="14" height="2756" transform="matrix(1 0 0 1 -15 -30)"/></g><g><path fill="none" stroke="#000000" paint-order="fill stroke markers" d=" M 1134 810 L 1148 810 L 1148 3566 L 1134 3566 L 1134 810 Z Z" stroke-miterlimit="10" stroke-dasharray=""/></g><g><path fill="none" stroke="#000000" paint-order="fill stroke markers" d=" M 1141 790 L 1171 790 L 1171 810 L 1148 810" stroke-miterlimit="10" stroke-dasharray=""/></g><g><path fill="#000000" stroke="none" paint-order="stroke fill markers" d=" M 1158.162674857624 805.790482243984 L 1148 810 L 1158.162674857624 814.209517756016"/></g><g><path fill="none" stroke="#000000" paint-order="fill stroke markers" d=" M 1158.162674857624 805.790482243984 L 1148 810 L 1158.162674857624 814.209517756016 L 1158.162674857624 805.790482243984" stroke-miterlimit="10" stroke-dasharray=""/></g><g><rect fill="#ffffff" stroke="none" x="1142" y="823" width="106.17724609375" height="13" transform="matrix(1 0 0 1 -15 -30)"/></g><g><g><path fill="none" stroke="none"/><text fill="#000000" stroke="none" font-family="Arial" font-size="13px" font-style="normal" font-weight="normal" text-decoration="undefined" x="1195.088623046875" y="829.5" text-anchor="middle" dominant-baseline="central" transform="matrix(1 0 0 1 -15 -30)">追踪 API 速率限制</text></g></g><g><rect fill="#ffffff" stroke="none" x="1149" y="840" width="14" height="2759" transform="matrix(1 0 0 1 -15 -30)"/></g><g><path fill="none" stroke="#000000" paint-order="fill stroke markers" d=" M 1134 810 L 1148 810 L 1148 3569 L 1134 3569 L 1134 810 Z Z" stroke-miterlimit="10" stroke-dasharray=""/></g><g><path fill="none" stroke="#000000" paint-order="fill stroke markers" d=" M 559 820 L 255 820" stroke-miterlimit="10" stroke-dasharray=""/></g><g><path fill="#000000" stroke="none" paint-order="stroke fill markers" d=" M 265.16267485762415 815.790482243984 L 255 820 L 265.16267485762415 824.209517756016"/></g><g><path fill="none" stroke="#000000" paint-order="fill stroke markers" d=" M 265.16267485762415 815.790482243984 L 255 820 L 265.16267485762415 824.209517756016 L 265.16267485762415 815.790482243984" stroke-miterlimit="10" stroke-dasharray=""/></g><g><rect fill="#ffffff" stroke="none" x="353" y="854" width="137.26171875" height="13" transform="matrix(1 0 0 1 -15 -30)"/></g><g><g><path fill="none" stroke="none"/><text fill="#000000" stroke="none" font-family="Arial" font-size="13px" font-style="normal" font-weight="normal" text-decoration="undefined" x="421.630859375" y="860.5" text-anchor="middle" dominant-baseline="central" transform="matrix(1 0 0 1 -15 -30)">通过 webhook 更新结果</text></g></g><g><rect fill="#ffffff" stroke="none" x="256" y="850" width="14" height="60" transform="matrix(1 0 0 1 -15 -30)"/></g><g><path fill="none" stroke="#000000" paint-order="fill stroke markers" d=" M 241 820 L 255 820 L 255 880 L 241 880 L 241 820 Z Z" stroke-miterlimit="10" stroke-dasharray=""/></g><g><path fill="none" stroke="#000000" paint-order="fill stroke markers" d=" M 560 820 L 800 820" stroke-miterlimit="10" stroke-dasharray=""/></g><g><path fill="#000000" stroke="none" paint-order="stroke fill markers" d=" M 789.8373251423759 824.209517756016 L 800 820 L 789.8373251423758 815.790482243984"/></g><g><path fill="none" stroke="#000000" paint-order="fill stroke markers" d=" M 789.8373251423759 824.209517756016 L 800 820 L 789.8373251423758 815.790482243984 L 789.8373251423759 824.209517756016" stroke-miterlimit="10" stroke-dasharray=""/></g><g><rect fill="#ffffff" stroke="none" x="609" y="834" width="173.42431640625" height="13" transform="matrix(1 0 0 1 -15 -30)"/></g><g><g><path fill="none" stroke="none"/><text fill="#000000" stroke="none" font-family="Arial" font-size="13px" font-style="normal" font-weight="normal" text-decoration="undefined" x="695.712158203125" y="840.5" text-anchor="middle" dominant-baseline="central" transform="matrix(1 0 0 1 -15 -30)">analyze_match(timeline_data)</text></g></g><g><rect fill="#ffffff" stroke="none" x="815" y="850" width="14" height="60" transform="matrix(1 0 0 1 -15 -30)"/></g><g><path fill="none" stroke="#000000" paint-order="fill stroke markers" d=" M 800 820 L 814 820 L 814 880 L 800 880 L 800 820 Z Z" stroke-miterlimit="10" stroke-dasharray=""/></g><g><path fill="none" stroke="#000000" paint-order="fill stroke markers" d=" M 560 820 L 940 820" stroke-miterlimit="10" stroke-dasharray=""/></g><g><path fill="#000000" stroke="none" paint-order="stroke fill markers" d=" M 929.8373251423759 824.209517756016 L 940 820 L 929.8373251423758 815.790482243984"/></g><g><path fill="none" stroke="#000000" paint-order="fill stroke markers" d=" M 929.8373251423759 824.209517756016 L 940 820 L 929.8373251423758 815.790482243984 L 929.8373251423759 824.209517756016" stroke-miterlimit="10" stroke-dasharray=""/></g><g><rect fill="#ffffff" stroke="none" x="669" y="834" width="193.654296875" height="13" transform="matrix(1 0 0 1 -15 -30)"/></g><g><g><path fill="none" stroke="none"/><text fill="#000000" stroke="none" font-family="Arial" font-size="13px" font-style="normal" font-weight="normal" text-decoration="undefined" x="765.8271484375" y="840.5" text-anchor="middle" dominant-baseline="central" transform="matrix(1 0 0 1 -15 -30)">synthesize_speech(text, emotion)</text></g></g><g><rect fill="#ffffff" stroke="none" x="955" y="850" width="14" height="60" transform="matrix(1 0 0 1 -15 -30)"/></g><g><path fill="none" stroke="#000000" paint-order="fill stroke markers" d=" M 940 820 L 954 820 L 954 880 L 940 880 L 940 820 Z Z" stroke-miterlimit="10" stroke-dasharray=""/></g><g><path fill="none" stroke="#000000" paint-order="fill stroke markers" d=" M 248 1180 L 66 1180" stroke-miterlimit="10" stroke-dasharray=""/></g><g><path fill="#000000" stroke="none" paint-order="stroke fill markers" d=" M 76.16267485762415 1175.7904822439841 L 66 1180 L 76.16267485762415 1184.2095177560159"/></g><g><path fill="none" stroke="#000000" paint-order="fill stroke markers" d=" M 76.16267485762415 1175.7904822439841 L 66 1180 L 76.16267485762415 1184.2095177560159 L 76.16267485762415 1175.7904822439841" stroke-miterlimit="10" stroke-dasharray=""/></g><g><rect fill="#ffffff" stroke="none" x="86" y="1214" width="170.8154296875" height="13" transform="matrix(1 0 0 1 -15 -30)"/></g><g><g><path fill="none" stroke="none"/><text fill="#000000" stroke="none" font-family="Arial" font-size="13px" font-style="normal" font-weight="normal" text-decoration="undefined" x="171.40771484375" y="1220.5" text-anchor="middle" dominant-baseline="central" transform="matrix(1 0 0 1 -15 -30)">发送分析结果 + 加入语音频道</text></g></g><g><rect fill="#ffffff" stroke="none" x="67" y="1210" width="14" height="1171" transform="matrix(1 0 0 1 -15 -30)"/></g><g><path fill="none" stroke="#000000" paint-order="fill stroke markers" d=" M 52 1180 L 66 1180 L 66 2351 L 52 2351 L 52 1180 Z Z" stroke-miterlimit="10" stroke-dasharray=""/></g><g><path fill="none" stroke="#000000" paint-order="fill stroke markers" d=" M 248 1180 L 66 1180" stroke-miterlimit="10" stroke-dasharray=""/></g><g><path fill="#000000" stroke="none" paint-order="stroke fill markers" d=" M 76.16267485762415 1175.7904822439841 L 66 1180 L 76.16267485762415 1184.2095177560159"/></g><g><path fill="none" stroke="#000000" paint-order="fill stroke markers" d=" M 76.16267485762415 1175.7904822439841 L 66 1180 L 76.16267485762415 1184.2095177560159 L 76.16267485762415 1175.7904822439841" stroke-miterlimit="10" stroke-dasharray=""/></g><g><rect fill="#ffffff" stroke="none" x="97" y="1214" width="148.7763671875" height="13" transform="matrix(1 0 0 1 -15 -30)"/></g><g><g><path fill="none" stroke="none"/><text fill="#000000" stroke="none" font-family="Arial" font-size="13px" font-style="normal" font-weight="normal" text-decoration="undefined" x="171.38818359375" y="1220.5" text-anchor="middle" dominant-baseline="central" transform="matrix(1 0 0 1 -15 -30)">在语音频道播放 TTS 音频</text></g></g><g><rect fill="#ffffff" stroke="none" x="67" y="1210" width="14" height="1174" transform="matrix(1 0 0 1 -15 -30)"/></g><g><path fill="none" stroke="#000000" paint-order="fill stroke markers" d=" M 52 1180 L 66 1180 L 66 2354 L 52 2354 L 52 1180 Z Z" stroke-miterlimit="10" stroke-dasharray=""/></g><g><path fill="none" stroke="#000000" paint-order="fill stroke markers" d=" M 480 475 L 660 475 L 660 558 L 480 558 L 480 475" stroke-miterlimit="10" stroke-dasharray=""/></g><g><path fill="#ffffff" stroke="none" paint-order="stroke fill markers" d=" M 480 475 L 480 498 L 509.72998046875 498 L 521.22998046875 486.5 L 521.22998046875 475 L 480 475"/></g><g><path fill="none" stroke="#000000" paint-order="fill stroke markers" d=" M 480 475 L 480 498 L 509.72998046875 498 L 521.22998046875 486.5 L 521.22998046875 475 L 480 475 L 480 475" stroke-miterlimit="10" stroke-dasharray=""/></g><g><g><path fill="none" stroke="none"/><text fill="#000000" stroke="none" font-family="Arial" font-size="13px" font-style="normal" font-weight="bold" text-decoration="undefined" x="506.864990234375" y="516.5" text-anchor="middle" dominant-baseline="central" transform="matrix(1 0 0 1 -15 -30)">alt</text></g></g><g><g><path fill="none" stroke="none"/><text fill="#000000" stroke="none" font-family="Arial" font-size="13px" font-style="normal" font-weight="normal" text-decoration="undefined" x="557.2626953125" y="549.5" text-anchor="middle" dominant-baseline="central" transform="matrix(1 0 0 1 -15 -30)">[速率限制 429]</text></g></g></g></svg>
