<svg version="1.1" xmlns="http://www.w3.org/2000/svg" xmlns:xlink="http://www.w3.org/1999/xlink" width="1316.50244140625" height="2336"><defs/><g><g><rect fill="#C0C0C0" stroke="none" x="32" y="47" width="100.919921875" height="40" transform="matrix(1 0 0 1 -15 -30)" fill-opacity="0.2"/></g><g><rect fill="#ffffff" stroke="none" x="25" y="40" width="100.919921875" height="40" transform="matrix(1 0 0 1 -15 -30)"/></g><g><path fill="none" stroke="#000000" paint-order="fill stroke markers" d=" M 10 10 L 110.919921875 10 L 110.919921875 50 L 10 50 L 10 10 Z Z" stroke-miterlimit="10" stroke-dasharray=""/></g><g><g><path fill="none" stroke="none"/><text fill="#000000" stroke="none" font-family="Arial" font-size="13px" font-style="normal" font-weight="bold" text-decoration="undefined" x="75.9599609375" y="53.5" text-anchor="middle" dominant-baseline="central" transform="matrix(1 0 0 1 -15 -30)">Discord User</text></g></g><g><path fill="none" stroke="#000000" paint-order="fill stroke markers" d=" M 60.5 51 L 60.5 1747" stroke-miterlimit="10" stroke-dasharray="3"/></g><g><rect fill="#C0C0C0" stroke="none" x="182" y="47" width="205.63720703125" height="40" transform="matrix(1 0 0 1 -15 -30)" fill-opacity="0.2"/></g><g><rect fill="#ffffff" stroke="none" x="175" y="40" width="205.63720703125" height="40" transform="matrix(1 0 0 1 -15 -30)"/></g><g><path fill="none" stroke="#000000" paint-order="fill stroke markers" d=" M 160 10 L 365.63720703125 10 L 365.63720703125 50 L 160 50 L 160 10 Z Z" stroke-miterlimit="10" stroke-dasharray=""/></g><g><g><path fill="none" stroke="none"/><text fill="#000000" stroke="none" font-family="Arial" font-size="13px" font-style="normal" font-weight="bold" text-decoration="undefined" x="278.318603515625" y="53.5" text-anchor="middle" dominant-baseline="central" transform="matrix(1 0 0 1 -15 -30)">CLI1 Frontend&lt;br/&gt;discord.py</text></g></g><g><path fill="none" stroke="#000000" paint-order="fill stroke markers" d=" M 263.5 51 L 263.5 1747" stroke-miterlimit="10" stroke-dasharray="3"/></g><g><rect fill="#C0C0C0" stroke="none" x="332" y="47" width="99.46630859375" height="40" transform="matrix(1 0 0 1 -15 -30)" fill-opacity="0.2"/></g><g><rect fill="#ffffff" stroke="none" x="325" y="40" width="99.46630859375" height="40" transform="matrix(1 0 0 1 -15 -30)"/></g><g><path fill="none" stroke="#000000" paint-order="fill stroke markers" d=" M 310 10 L 409.46630859375 10 L 409.46630859375 50 L 310 50 L 310 10 Z Z" stroke-miterlimit="10" stroke-dasharray=""/></g><g><g><path fill="none" stroke="none"/><text fill="#000000" stroke="none" font-family="Arial" font-size="13px" font-style="normal" font-weight="bold" text-decoration="undefined" x="375.233154296875" y="53.5" text-anchor="middle" dominant-baseline="central" transform="matrix(1 0 0 1 -15 -30)">Redis Queue</text></g></g><g><path fill="none" stroke="#000000" paint-order="fill stroke markers" d=" M 360.5 51 L 360.5 476" stroke-miterlimit="10" stroke-dasharray="3"/></g><g><rect fill="#C0C0C0" stroke="none" x="482" y="47" width="225.68310546875" height="40" transform="matrix(1 0 0 1 -15 -30)" fill-opacity="0.2"/></g><g><rect fill="#ffffff" stroke="none" x="475" y="40" width="225.68310546875" height="40" transform="matrix(1 0 0 1 -15 -30)"/></g><g><path fill="none" stroke="#000000" paint-order="fill stroke markers" d=" M 460 10 L 685.68310546875 10 L 685.68310546875 50 L 460 50 L 460 10 Z Z" stroke-miterlimit="10" stroke-dasharray=""/></g><g><g><path fill="none" stroke="none"/><text fill="#000000" stroke="none" font-family="Arial" font-size="13px" font-style="normal" font-weight="bold" text-decoration="undefined" x="588.341552734375" y="53.5" text-anchor="middle" dominant-baseline="central" transform="matrix(1 0 0 1 -15 -30)">CLI2 Backend&lt;br/&gt;Celery Worker</text></g></g><g><path fill="none" stroke="#000000" paint-order="fill stroke markers" d=" M 573.5 51 L 573.5 2335" stroke-miterlimit="10" stroke-dasharray="3"/></g><g><rect fill="#C0C0C0" stroke="none" x="632" y="47" width="170.99169921875" height="40" transform="matrix(1 0 0 1 -15 -30)" fill-opacity="0.2"/></g><g><rect fill="#ffffff" stroke="none" x="625" y="40" width="170.99169921875" height="40" transform="matrix(1 0 0 1 -15 -30)"/></g><g><path fill="none" stroke="#000000" paint-order="fill stroke markers" d=" M 610 10 L 780.99169921875 10 L 780.99169921875 50 L 610 50 L 610 10 Z Z" stroke-miterlimit="10" stroke-dasharray=""/></g><g><g><path fill="none" stroke="none"/><text fill="#000000" stroke="none" font-family="Arial" font-size="13px" font-style="normal" font-weight="bold" text-decoration="undefined" x="710.995849609375" y="53.5" text-anchor="middle" dominant-baseline="central" transform="matrix(1 0 0 1 -15 -30)">Riot API&lt;br/&gt;Cassiopeia</text></g></g><g><path fill="none" stroke="#000000" paint-order="fill stroke markers" d=" M 695.5 51 L 695.5 806" stroke-miterlimit="10" stroke-dasharray="3"/></g><g><rect fill="#C0C0C0" stroke="none" x="782" y="47" width="94.38818359375" height="40" transform="matrix(1 0 0 1 -15 -30)" fill-opacity="0.2"/></g><g><rect fill="#ffffff" stroke="none" x="775" y="40" width="94.38818359375" height="40" transform="matrix(1 0 0 1 -15 -30)"/></g><g><path fill="none" stroke="#000000" paint-order="fill stroke markers" d=" M 760 10 L 854.38818359375 10 L 854.38818359375 50 L 760 50 L 760 10 Z Z" stroke-miterlimit="10" stroke-dasharray=""/></g><g><g><path fill="none" stroke="none"/><text fill="#000000" stroke="none" font-family="Arial" font-size="13px" font-style="normal" font-weight="bold" text-decoration="undefined" x="822.694091796875" y="53.5" text-anchor="middle" dominant-baseline="central" transform="matrix(1 0 0 1 -15 -30)">Gemini LLM</text></g></g><g><path fill="none" stroke="#000000" paint-order="fill stroke markers" d=" M 807.5 51 L 807.5 1046" stroke-miterlimit="10" stroke-dasharray="3"/></g><g><rect fill="#C0C0C0" stroke="none" x="932" y="47" width="96.54638671875" height="40" transform="matrix(1 0 0 1 -15 -30)" fill-opacity="0.2"/></g><g><rect fill="#ffffff" stroke="none" x="925" y="40" width="96.54638671875" height="40" transform="matrix(1 0 0 1 -15 -30)"/></g><g><path fill="none" stroke="#000000" paint-order="fill stroke markers" d=" M 910 10 L 1006.54638671875 10 L 1006.54638671875 50 L 910 50 L 910 10 Z Z" stroke-miterlimit="10" stroke-dasharray=""/></g><g><g><path fill="none" stroke="none"/><text fill="#000000" stroke="none" font-family="Arial" font-size="13px" font-style="normal" font-weight="bold" text-decoration="undefined" x="973.773193359375" y="53.5" text-anchor="middle" dominant-baseline="central" transform="matrix(1 0 0 1 -15 -30)">Doubao TTS</text></g></g><g><path fill="none" stroke="#000000" paint-order="fill stroke markers" d=" M 958.5 51 L 958.5 1166" stroke-miterlimit="10" stroke-dasharray="3"/></g><g><rect fill="#C0C0C0" stroke="none" x="1082" y="47" width="207.814453125" height="40" transform="matrix(1 0 0 1 -15 -30)" fill-opacity="0.2"/></g><g><rect fill="#ffffff" stroke="none" x="1075" y="40" width="207.814453125" height="40" transform="matrix(1 0 0 1 -15 -30)"/></g><g><path fill="none" stroke="#000000" paint-order="fill stroke markers" d=" M 1060 10 L 1267.814453125 10 L 1267.814453125 50 L 1060 50 L 1060 10 Z Z" stroke-miterlimit="10" stroke-dasharray=""/></g><g><g><path fill="none" stroke="none"/><text fill="#000000" stroke="none" font-family="Arial" font-size="13px" font-style="normal" font-weight="bold" text-decoration="undefined" x="1179.4072265625" y="53.5" text-anchor="middle" dominant-baseline="central" transform="matrix(1 0 0 1 -15 -30)">CLI3 Observer&lt;br/&gt;Monitoring</text></g></g><g><path fill="none" stroke="#000000" paint-order="fill stroke markers" d=" M 1164.5 51 L 1164.5 2338" stroke-miterlimit="10" stroke-dasharray="3"/></g><g><path fill="#ffffff" stroke="none" paint-order="stroke fill markers" d=" M 30 80 L 1099 80 L 1109 90 L 1109 119 L 30 119 L 30 80"/></g><g><path fill="none" stroke="#000000" paint-order="fill stroke markers" d=" M 30 80 L 1099 80 L 1109 90 L 1109 119 L 30 119 L 30 80 L 30 80" stroke-miterlimit="10" stroke-dasharray=""/></g><g><path fill="none" stroke="#000000" paint-order="fill stroke markers" d=" M 1099 80 L 1099 90 L 1109 90 L 1099 80" stroke-miterlimit="10" stroke-dasharray=""/></g><g><g><path fill="none" stroke="none"/><text fill="#000000" stroke="none" font-family="Arial" font-size="13px" font-style="normal" font-weight="normal" text-decoration="undefined" x="50" y="115" text-anchor="start" dominant-baseline="text-before-edge" transform="matrix(1 0 0 1 -15 -30)">/讲道理 Command Flow</text></g></g><g><path fill="#ffffff" stroke="none" paint-order="stroke fill markers" d=" M 210 260 L 431.38623046875 260 L 441.38623046875 270 L 441.38623046875 299 L 210 299 L 210 260"/></g><g><path fill="none" stroke="#000000" paint-order="fill stroke markers" d=" M 210 260 L 431.38623046875 260 L 441.38623046875 270 L 441.38623046875 299 L 210 299 L 210 260 L 210 260" stroke-miterlimit="10" stroke-dasharray=""/></g><g><path fill="none" stroke="#000000" paint-order="fill stroke markers" d=" M 431.38623046875 260 L 431.38623046875 270 L 441.38623046875 270 L 431.38623046875 260" stroke-miterlimit="10" stroke-dasharray=""/></g><g><g><path fill="none" stroke="none"/><text fill="#000000" stroke="none" font-family="Arial" font-size="13px" font-style="normal" font-weight="normal" text-decoration="undefined" x="230" y="295" text-anchor="start" dominant-baseline="text-before-edge" transform="matrix(1 0 0 1 -15 -30)">DEFERRED_CHANNEL_MESSAGE</text></g></g><g><path fill="#ffffff" stroke="none" paint-order="stroke fill markers" d=" M 1080 1310 L 1154.76806640625 1310 L 1164.76806640625 1320 L 1164.76806640625 1349 L 1080 1349 L 1080 1310"/></g><g><path fill="none" stroke="#000000" paint-order="fill stroke markers" d=" M 1080 1310 L 1154.76806640625 1310 L 1164.76806640625 1320 L 1164.76806640625 1349 L 1080 1349 L 1080 1310 L 1080 1310" stroke-miterlimit="10" stroke-dasharray=""/></g><g><path fill="none" stroke="#000000" paint-order="fill stroke markers" d=" M 1154.76806640625 1310 L 1154.76806640625 1320 L 1164.76806640625 1320 L 1154.76806640625 1310" stroke-miterlimit="10" stroke-dasharray=""/></g><g><g><path fill="none" stroke="none"/><text fill="#000000" stroke="none" font-family="Arial" font-size="13px" font-style="normal" font-weight="normal" text-decoration="undefined" x="1100" y="1345" text-anchor="start" dominant-baseline="text-before-edge" transform="matrix(1 0 0 1 -15 -30)">Continuous</text><text fill="#000000" stroke="none" font-family="Arial" font-size="13px" font-style="normal" font-weight="normal" text-decoration="undefined" x="1100" y="1358" text-anchor="start" dominant-baseline="text-before-edge" transform="matrix(1 0 0 1 -15 -30)">Monitoring</text></g></g><g><path fill="none" stroke="#000000" paint-order="fill stroke markers" d=" M 361 130 L 566 130" stroke-miterlimit="10" stroke-dasharray=""/></g><g><path fill="#000000" stroke="none" paint-order="stroke fill markers" d=" M 555.8373251423759 134.209517756016 L 566 130 L 555.8373251423758 125.790482243984"/></g><g><path fill="none" stroke="#000000" paint-order="fill stroke markers" d=" M 555.8373251423759 134.209517756016 L 566 130 L 555.8373251423758 125.790482243984 L 555.8373251423759 134.209517756016" stroke-miterlimit="10" stroke-dasharray=""/></g><g><rect fill="#ffffff" stroke="none" x="432" y="144" width="92.49169921875" height="13" transform="matrix(1 0 0 1 -15 -30)"/></g><g><g><path fill="none" stroke="none"/><text fill="#000000" stroke="none" font-family="Arial" font-size="13px" font-style="normal" font-weight="normal" text-decoration="undefined" x="478.245849609375" y="150.5" text-anchor="middle" dominant-baseline="central" transform="matrix(1 0 0 1 -15 -30)">Task notification</text></g></g><g><rect fill="#ffffff" stroke="none" x="581" y="160" width="14" height="60" transform="matrix(1 0 0 1 -15 -30)"/></g><g><path fill="none" stroke="#000000" paint-order="fill stroke markers" d=" M 566 130 L 580 130 L 580 190 L 566 190 L 566 130 Z Z" stroke-miterlimit="10" stroke-dasharray=""/></g><g><path fill="none" stroke="#000000" paint-order="fill stroke markers" d=" M 807 130 L 587 130" stroke-miterlimit="10" stroke-dasharray=""/></g><g><path fill="none" stroke="#000000" paint-order="fill stroke markers" d=" M 597.1626748576241 125.790482243984 L 587 130 L 597.1626748576241 134.209517756016" stroke-miterlimit="10" stroke-dasharray=""/></g><g><rect fill="#ffffff" stroke="none" x="641" y="164" width="141.984375" height="13" transform="matrix(1 0 0 1 -15 -30)"/></g><g><g><path fill="none" stroke="none"/><text fill="#000000" stroke="none" font-family="Arial" font-size="13px" font-style="normal" font-weight="normal" text-decoration="undefined" x="711.9921875" y="170.5" text-anchor="middle" dominant-baseline="central" transform="matrix(1 0 0 1 -15 -30)">Analysis + Emotion Tags</text></g></g><g><path fill="none" stroke="#000000" paint-order="fill stroke markers" d=" M 958 130 L 587 130" stroke-miterlimit="10" stroke-dasharray=""/></g><g><path fill="none" stroke="#000000" paint-order="fill stroke markers" d=" M 597.1626748576241 125.790482243984 L 587 130 L 597.1626748576241 134.209517756016" stroke-miterlimit="10" stroke-dasharray=""/></g><g><rect fill="#ffffff" stroke="none" x="748" y="164" width="76.5908203125" height="13" transform="matrix(1 0 0 1 -15 -30)"/></g><g><g><path fill="none" stroke="none"/><text fill="#000000" stroke="none" font-family="Arial" font-size="13px" font-style="normal" font-weight="normal" text-decoration="undefined" x="786.29541015625" y="170.5" text-anchor="middle" dominant-baseline="central" transform="matrix(1 0 0 1 -15 -30)">Audio stream</text></g></g><g><path fill="none" stroke="#000000" paint-order="fill stroke markers" d=" M 61 140 L 256 140" stroke-miterlimit="10" stroke-dasharray=""/></g><g><path fill="#000000" stroke="none" paint-order="stroke fill markers" d=" M 245.83732514237585 144.209517756016 L 256 140 L 245.83732514237585 135.790482243984"/></g><g><path fill="none" stroke="#000000" paint-order="fill stroke markers" d=" M 245.83732514237585 144.209517756016 L 256 140 L 245.83732514237585 135.790482243984 L 245.83732514237585 144.209517756016" stroke-miterlimit="10" stroke-dasharray=""/></g><g><rect fill="#ffffff" stroke="none" x="122" y="154" width="103.3017578125" height="13" transform="matrix(1 0 0 1 -15 -30)"/></g><g><g><path fill="none" stroke="none"/><text fill="#000000" stroke="none" font-family="Arial" font-size="13px" font-style="normal" font-weight="normal" text-decoration="undefined" x="173.65087890625" y="160.5" text-anchor="middle" dominant-baseline="central" transform="matrix(1 0 0 1 -15 -30)">/讲道理 command</text></g></g><g><rect fill="#ffffff" stroke="none" x="271" y="170" width="14" height="60" transform="matrix(1 0 0 1 -15 -30)"/></g><g><path fill="none" stroke="#000000" paint-order="fill stroke markers" d=" M 256 140 L 270 140 L 270 200 L 256 200 L 256 140 Z Z" stroke-miterlimit="10" stroke-dasharray=""/></g><g><path fill="none" stroke="#000000" paint-order="fill stroke markers" d=" M 263 200 L 67 200" stroke-miterlimit="10" stroke-dasharray=""/></g><g><path fill="#000000" stroke="none" paint-order="stroke fill markers" d=" M 77.16267485762415 195.790482243984 L 67 200 L 77.16267485762415 204.209517756016"/></g><g><path fill="none" stroke="#000000" paint-order="fill stroke markers" d=" M 77.16267485762415 195.790482243984 L 67 200 L 77.16267485762415 204.209517756016 L 77.16267485762415 195.790482243984" stroke-miterlimit="10" stroke-dasharray=""/></g><g><rect fill="#ffffff" stroke="none" x="99" y="234" width="160.392578125" height="13" transform="matrix(1 0 0 1 -15 -30)"/></g><g><g><path fill="none" stroke="none"/><text fill="#000000" stroke="none" font-family="Arial" font-size="13px" font-style="normal" font-weight="normal" text-decoration="undefined" x="179.1962890625" y="240.5" text-anchor="middle" dominant-baseline="central" transform="matrix(1 0 0 1 -15 -30)">Deferred Reply (3s window)</text></g></g><g><rect fill="#ffffff" stroke="none" x="68" y="230" width="14" height="60" transform="matrix(1 0 0 1 -15 -30)"/></g><g><path fill="none" stroke="#000000" paint-order="fill stroke markers" d=" M 53 200 L 67 200 L 67 260 L 53 260 L 53 200 Z Z" stroke-miterlimit="10" stroke-dasharray=""/></g><g><path fill="none" stroke="#000000" paint-order="fill stroke markers" d=" M 264 320 L 353 320" stroke-miterlimit="10" stroke-dasharray=""/></g><g><path fill="#000000" stroke="none" paint-order="stroke fill markers" d=" M 342.83732514237585 324.209517756016 L 353 320 L 342.83732514237585 315.790482243984"/></g><g><path fill="none" stroke="#000000" paint-order="fill stroke markers" d=" M 342.83732514237585 324.209517756016 L 353 320 L 342.83732514237585 315.790482243984 L 342.83732514237585 324.209517756016" stroke-miterlimit="10" stroke-dasharray=""/></g><g><rect fill="#ffffff" stroke="none" x="221" y="334" width="205.23876953125" height="13" transform="matrix(1 0 0 1 -15 -30)"/></g><g><g><path fill="none" stroke="none"/><text fill="#000000" stroke="none" font-family="Arial" font-size="13px" font-style="normal" font-weight="normal" text-decoration="undefined" x="323.619384765625" y="340.5" text-anchor="middle" dominant-baseline="central" transform="matrix(1 0 0 1 -15 -30)">Enqueue task with interaction token</text></g></g><g><rect fill="#ffffff" stroke="none" x="368" y="350" width="14" height="60" transform="matrix(1 0 0 1 -15 -30)"/></g><g><path fill="none" stroke="#000000" paint-order="fill stroke markers" d=" M 353 320 L 367 320 L 367 380 L 353 380 L 353 320 Z Z" stroke-miterlimit="10" stroke-dasharray=""/></g><g><path fill="none" stroke="#000000" paint-order="fill stroke markers" d=" M 695 340 L 574 340" stroke-miterlimit="10" stroke-dasharray=""/></g><g><path fill="none" stroke="#000000" paint-order="fill stroke markers" d=" M 584.1626748576241 335.790482243984 L 574 340 L 584.1626748576241 344.209517756016" stroke-miterlimit="10" stroke-dasharray=""/></g><g><rect fill="#ffffff" stroke="none" x="592" y="374" width="112.95654296875" height="13" transform="matrix(1 0 0 1 -15 -30)"/></g><g><g><path fill="none" stroke="none"/><text fill="#000000" stroke="none" font-family="Arial" font-size="13px" font-style="normal" font-weight="normal" text-decoration="undefined" x="648.478271484375" y="380.5" text-anchor="middle" dominant-baseline="central" transform="matrix(1 0 0 1 -15 -30)">MatchTimeline data</text></g></g><g><path fill="none" stroke="#000000" paint-order="fill stroke markers" d=" M 695 340 L 574 340" stroke-miterlimit="10" stroke-dasharray=""/></g><g><path fill="none" stroke="#000000" paint-order="fill stroke markers" d=" M 584.1626748576241 335.790482243984 L 574 340 L 584.1626748576241 344.209517756016" stroke-miterlimit="10" stroke-dasharray=""/></g><g><rect fill="#ffffff" stroke="none" x="577" y="374" width="143.43798828125" height="13" transform="matrix(1 0 0 1 -15 -30)"/></g><g><g><path fill="none" stroke="none"/><text fill="#000000" stroke="none" font-family="Arial" font-size="13px" font-style="normal" font-weight="normal" text-decoration="undefined" x="648.718994140625" y="380.5" text-anchor="middle" dominant-baseline="central" transform="matrix(1 0 0 1 -15 -30)">429 + Retry-After header</text></g></g><g><path fill="none" stroke="#000000" paint-order="fill stroke markers" d=" M 574 440 L 688 440" stroke-miterlimit="10" stroke-dasharray=""/></g><g><path fill="#000000" stroke="none" paint-order="stroke fill markers" d=" M 677.8373251423759 444.209517756016 L 688 440 L 677.8373251423758 435.790482243984"/></g><g><path fill="none" stroke="#000000" paint-order="fill stroke markers" d=" M 677.8373251423759 444.209517756016 L 688 440 L 677.8373251423758 435.790482243984 L 677.8373251423759 444.209517756016" stroke-miterlimit="10" stroke-dasharray=""/></g><g><rect fill="#ffffff" stroke="none" x="559" y="454" width="174.13525390625" height="13" transform="matrix(1 0 0 1 -15 -30)"/></g><g><g><path fill="none" stroke="none"/><text fill="#000000" stroke="none" font-family="Arial" font-size="13px" font-style="normal" font-weight="normal" text-decoration="undefined" x="646.067626953125" y="460.5" text-anchor="middle" dominant-baseline="central" transform="matrix(1 0 0 1 -15 -30)">get_match_timeline(match_id)</text></g></g><g><rect fill="#ffffff" stroke="none" x="703" y="470" width="14" height="60" transform="matrix(1 0 0 1 -15 -30)"/></g><g><path fill="none" stroke="#000000" paint-order="fill stroke markers" d=" M 688 440 L 702 440 L 702 500 L 688 500 L 688 440 Z Z" stroke-miterlimit="10" stroke-dasharray=""/></g><g><path fill="none" stroke="#000000" paint-order="fill stroke markers" d=" M 574 590 L 604 590 L 604 610 L 580 610" stroke-miterlimit="10" stroke-dasharray=""/></g><g><path fill="#000000" stroke="none" paint-order="stroke fill markers" d=" M 590.1626748576241 605.790482243984 L 580 610 L 590.1626748576241 614.209517756016"/></g><g><path fill="none" stroke="#000000" paint-order="fill stroke markers" d=" M 590.1626748576241 605.790482243984 L 580 610 L 590.1626748576241 614.209517756016 L 590.1626748576241 605.790482243984" stroke-miterlimit="10" stroke-dasharray=""/></g><g><rect fill="#ffffff" stroke="none" x="554" y="623" width="149.07470703125" height="13" transform="matrix(1 0 0 1 -15 -30)"/></g><g><g><path fill="none" stroke="none"/><text fill="#000000" stroke="none" font-family="Arial" font-size="13px" font-style="normal" font-weight="normal" text-decoration="undefined" x="628.537353515625" y="629.5" text-anchor="middle" dominant-baseline="central" transform="matrix(1 0 0 1 -15 -30)">Wait based on Retry-After</text></g></g><g><rect fill="#ffffff" stroke="none" x="581" y="640" width="14" height="60" transform="matrix(1 0 0 1 -15 -30)"/></g><g><path fill="none" stroke="#000000" paint-order="fill stroke markers" d=" M 566 610 L 580 610 L 580 670 L 566 670 L 566 610 Z Z" stroke-miterlimit="10" stroke-dasharray=""/></g><g><path fill="none" stroke="#000000" paint-order="fill stroke markers" d=" M 580 650 L 688 650" stroke-miterlimit="10" stroke-dasharray=""/></g><g><path fill="#000000" stroke="none" paint-order="stroke fill markers" d=" M 677.8373251423759 654.209517756016 L 688 650 L 677.8373251423758 645.790482243984"/></g><g><path fill="none" stroke="#000000" paint-order="fill stroke markers" d=" M 677.8373251423759 654.209517756016 L 688 650 L 677.8373251423758 645.790482243984 L 677.8373251423759 654.209517756016" stroke-miterlimit="10" stroke-dasharray=""/></g><g><rect fill="#ffffff" stroke="none" x="610" y="664" width="78.03173828125" height="13" transform="matrix(1 0 0 1 -15 -30)"/></g><g><g><path fill="none" stroke="none"/><text fill="#000000" stroke="none" font-family="Arial" font-size="13px" font-style="normal" font-weight="normal" text-decoration="undefined" x="649.015869140625" y="670.5" text-anchor="middle" dominant-baseline="central" transform="matrix(1 0 0 1 -15 -30)">Retry request</text></g></g><g><rect fill="#ffffff" stroke="none" x="703" y="680" width="14" height="60" transform="matrix(1 0 0 1 -15 -30)"/></g><g><path fill="none" stroke="#000000" paint-order="fill stroke markers" d=" M 688 650 L 702 650 L 702 710 L 688 710 L 688 650 Z Z" stroke-miterlimit="10" stroke-dasharray=""/></g><g><path fill="none" stroke="#000000" paint-order="fill stroke markers" d=" M 574 770 L 1157 770" stroke-miterlimit="10" stroke-dasharray=""/></g><g><path fill="#000000" stroke="none" paint-order="stroke fill markers" d=" M 1146.837325142376 774.209517756016 L 1157 770 L 1146.837325142376 765.790482243984"/></g><g><path fill="none" stroke="#000000" paint-order="fill stroke markers" d=" M 1146.837325142376 774.209517756016 L 1157 770 L 1146.837325142376 765.790482243984 L 1146.837325142376 774.209517756016" stroke-miterlimit="10" stroke-dasharray=""/></g><g><rect fill="#ffffff" stroke="none" x="809" y="784" width="143.78076171875" height="13" transform="matrix(1 0 0 1 -15 -30)"/></g><g><g><path fill="none" stroke="none"/><text fill="#000000" stroke="none" font-family="Arial" font-size="13px" font-style="normal" font-weight="normal" text-decoration="undefined" x="880.890380859375" y="790.5" text-anchor="middle" dominant-baseline="central" transform="matrix(1 0 0 1 -15 -30)">Log performance metrics</text></g></g><g><rect fill="#ffffff" stroke="none" x="1172" y="800" width="14" height="1566" transform="matrix(1 0 0 1 -15 -30)"/></g><g><path fill="none" stroke="#000000" paint-order="fill stroke markers" d=" M 1157 770 L 1171 770 L 1171 2336 L 1157 2336 L 1157 770 Z Z" stroke-miterlimit="10" stroke-dasharray=""/></g><g><path fill="none" stroke="#000000" paint-order="fill stroke markers" d=" M 1157 790 L 574 790" stroke-miterlimit="10" stroke-dasharray=""/></g><g><path fill="none" stroke="#000000" paint-order="fill stroke markers" d=" M 584.1626748576241 785.790482243984 L 574 790 L 584.1626748576241 794.209517756016" stroke-miterlimit="10" stroke-dasharray=""/></g><g><rect fill="#ffffff" stroke="none" x="837" y="824" width="84.55712890625" height="13" transform="matrix(1 0 0 1 -15 -30)"/></g><g><g><path fill="none" stroke="none"/><text fill="#000000" stroke="none" font-family="Arial" font-size="13px" font-style="normal" font-weight="normal" text-decoration="undefined" x="879.278564453125" y="830.5" text-anchor="middle" dominant-baseline="central" transform="matrix(1 0 0 1 -15 -30)">Acknowledged</text></g></g><g><path fill="none" stroke="#000000" paint-order="fill stroke markers" d=" M 1171 790 L 1201 790 L 1201 810 L 1178 810" stroke-miterlimit="10" stroke-dasharray=""/></g><g><path fill="#000000" stroke="none" paint-order="stroke fill markers" d=" M 1188.162674857624 805.790482243984 L 1178 810 L 1188.162674857624 814.209517756016"/></g><g><path fill="none" stroke="#000000" paint-order="fill stroke markers" d=" M 1188.162674857624 805.790482243984 L 1178 810 L 1188.162674857624 814.209517756016 L 1188.162674857624 805.790482243984" stroke-miterlimit="10" stroke-dasharray=""/></g><g><rect fill="#ffffff" stroke="none" x="1130" y="823" width="191.50244140625" height="13" transform="matrix(1 0 0 1 -15 -30)"/></g><g><g><path fill="none" stroke="none"/><text fill="#000000" stroke="none" font-family="Arial" font-size="13px" font-style="normal" font-weight="normal" text-decoration="undefined" x="1225.751220703125" y="829.5" text-anchor="middle" dominant-baseline="central" transform="matrix(1 0 0 1 -15 -30)">Analyze llm_debug_wrapper logs</text></g></g><g><rect fill="#ffffff" stroke="none" x="1179" y="840" width="14" height="1523" transform="matrix(1 0 0 1 -15 -30)"/></g><g><path fill="none" stroke="#000000" paint-order="fill stroke markers" d=" M 1164 810 L 1178 810 L 1178 2333 L 1164 2333 L 1164 810 Z Z" stroke-miterlimit="10" stroke-dasharray=""/></g><g><path fill="none" stroke="#000000" paint-order="fill stroke markers" d=" M 1171 790 L 1201 790 L 1201 810 L 1178 810" stroke-miterlimit="10" stroke-dasharray=""/></g><g><path fill="#000000" stroke="none" paint-order="stroke fill markers" d=" M 1188.162674857624 805.790482243984 L 1178 810 L 1188.162674857624 814.209517756016"/></g><g><path fill="none" stroke="#000000" paint-order="fill stroke markers" d=" M 1188.162674857624 805.790482243984 L 1178 810 L 1188.162674857624 814.209517756016 L 1188.162674857624 805.790482243984" stroke-miterlimit="10" stroke-dasharray=""/></g><g><rect fill="#ffffff" stroke="none" x="1147" y="823" width="156.1015625" height="13" transform="matrix(1 0 0 1 -15 -30)"/></g><g><g><path fill="none" stroke="none"/><text fill="#000000" stroke="none" font-family="Arial" font-size="13px" font-style="normal" font-weight="normal" text-decoration="undefined" x="1225.05078125" y="829.5" text-anchor="middle" dominant-baseline="central" transform="matrix(1 0 0 1 -15 -30)">Monitor Redis queue depth</text></g></g><g><rect fill="#ffffff" stroke="none" x="1179" y="840" width="14" height="1526" transform="matrix(1 0 0 1 -15 -30)"/></g><g><path fill="none" stroke="#000000" paint-order="fill stroke markers" d=" M 1164 810 L 1178 810 L 1178 2336 L 1164 2336 L 1164 810 Z Z" stroke-miterlimit="10" stroke-dasharray=""/></g><g><path fill="none" stroke="#000000" paint-order="fill stroke markers" d=" M 1171 790 L 1201 790 L 1201 810 L 1178 810" stroke-miterlimit="10" stroke-dasharray=""/></g><g><path fill="#000000" stroke="none" paint-order="stroke fill markers" d=" M 1188.162674857624 805.790482243984 L 1178 810 L 1188.162674857624 814.209517756016"/></g><g><path fill="none" stroke="#000000" paint-order="fill stroke markers" d=" M 1188.162674857624 805.790482243984 L 1178 810 L 1188.162674857624 814.209517756016 L 1188.162674857624 805.790482243984" stroke-miterlimit="10" stroke-dasharray=""/></g><g><rect fill="#ffffff" stroke="none" x="1168" y="823" width="115.81298828125" height="13" transform="matrix(1 0 0 1 -15 -30)"/></g><g><g><path fill="none" stroke="none"/><text fill="#000000" stroke="none" font-family="Arial" font-size="13px" font-style="normal" font-weight="normal" text-decoration="undefined" x="1225.906494140625" y="829.5" text-anchor="middle" dominant-baseline="central" transform="matrix(1 0 0 1 -15 -30)">Track API rate limits</text></g></g><g><rect fill="#ffffff" stroke="none" x="1179" y="840" width="14" height="1529" transform="matrix(1 0 0 1 -15 -30)"/></g><g><path fill="none" stroke="#000000" paint-order="fill stroke markers" d=" M 1164 810 L 1178 810 L 1178 2339 L 1164 2339 L 1164 810 Z Z" stroke-miterlimit="10" stroke-dasharray=""/></g><g><path fill="none" stroke="#000000" paint-order="fill stroke markers" d=" M 573 820 L 270 820" stroke-miterlimit="10" stroke-dasharray=""/></g><g><path fill="#000000" stroke="none" paint-order="stroke fill markers" d=" M 280.16267485762415 815.790482243984 L 270 820 L 280.16267485762415 824.209517756016"/></g><g><path fill="none" stroke="#000000" paint-order="fill stroke markers" d=" M 280.16267485762415 815.790482243984 L 270 820 L 280.16267485762415 824.209517756016 L 280.16267485762415 815.790482243984" stroke-miterlimit="10" stroke-dasharray=""/></g><g><rect fill="#ffffff" stroke="none" x="357" y="854" width="157.5234375" height="13" transform="matrix(1 0 0 1 -15 -30)"/></g><g><g><path fill="none" stroke="none"/><text fill="#000000" stroke="none" font-family="Arial" font-size="13px" font-style="normal" font-weight="normal" text-decoration="undefined" x="435.76171875" y="860.5" text-anchor="middle" dominant-baseline="central" transform="matrix(1 0 0 1 -15 -30)">Patch webhook with results</text></g></g><g><rect fill="#ffffff" stroke="none" x="271" y="850" width="14" height="60" transform="matrix(1 0 0 1 -15 -30)"/></g><g><path fill="none" stroke="#000000" paint-order="fill stroke markers" d=" M 256 820 L 270 820 L 270 880 L 256 880 L 256 820 Z Z" stroke-miterlimit="10" stroke-dasharray=""/></g><g><path fill="none" stroke="#000000" paint-order="fill stroke markers" d=" M 574 820 L 800 820" stroke-miterlimit="10" stroke-dasharray=""/></g><g><path fill="#000000" stroke="none" paint-order="stroke fill markers" d=" M 789.8373251423759 824.209517756016 L 800 820 L 789.8373251423758 815.790482243984"/></g><g><path fill="none" stroke="#000000" paint-order="fill stroke markers" d=" M 789.8373251423759 824.209517756016 L 800 820 L 789.8373251423758 815.790482243984 L 789.8373251423759 824.209517756016" stroke-miterlimit="10" stroke-dasharray=""/></g><g><rect fill="#ffffff" stroke="none" x="616" y="834" width="173.42431640625" height="13" transform="matrix(1 0 0 1 -15 -30)"/></g><g><g><path fill="none" stroke="none"/><text fill="#000000" stroke="none" font-family="Arial" font-size="13px" font-style="normal" font-weight="normal" text-decoration="undefined" x="702.712158203125" y="840.5" text-anchor="middle" dominant-baseline="central" transform="matrix(1 0 0 1 -15 -30)">analyze_match(timeline_data)</text></g></g><g><rect fill="#ffffff" stroke="none" x="815" y="850" width="14" height="60" transform="matrix(1 0 0 1 -15 -30)"/></g><g><path fill="none" stroke="#000000" paint-order="fill stroke markers" d=" M 800 820 L 814 820 L 814 880 L 800 880 L 800 820 Z Z" stroke-miterlimit="10" stroke-dasharray=""/></g><g><path fill="none" stroke="#000000" paint-order="fill stroke markers" d=" M 574 820 L 951 820" stroke-miterlimit="10" stroke-dasharray=""/></g><g><path fill="#000000" stroke="none" paint-order="stroke fill markers" d=" M 940.8373251423759 824.209517756016 L 951 820 L 940.8373251423758 815.790482243984"/></g><g><path fill="none" stroke="#000000" paint-order="fill stroke markers" d=" M 940.8373251423759 824.209517756016 L 951 820 L 940.8373251423758 815.790482243984 L 940.8373251423759 824.209517756016" stroke-miterlimit="10" stroke-dasharray=""/></g><g><rect fill="#ffffff" stroke="none" x="681" y="834" width="193.654296875" height="13" transform="matrix(1 0 0 1 -15 -30)"/></g><g><g><path fill="none" stroke="none"/><text fill="#000000" stroke="none" font-family="Arial" font-size="13px" font-style="normal" font-weight="normal" text-decoration="undefined" x="777.8271484375" y="840.5" text-anchor="middle" dominant-baseline="central" transform="matrix(1 0 0 1 -15 -30)">synthesize_speech(text, emotion)</text></g></g><g><rect fill="#ffffff" stroke="none" x="966" y="850" width="14" height="60" transform="matrix(1 0 0 1 -15 -30)"/></g><g><path fill="none" stroke="#000000" paint-order="fill stroke markers" d=" M 951 820 L 965 820 L 965 880 L 951 880 L 951 820 Z Z" stroke-miterlimit="10" stroke-dasharray=""/></g><g><path fill="none" stroke="#000000" paint-order="fill stroke markers" d=" M 263 1180 L 67 1180" stroke-miterlimit="10" stroke-dasharray=""/></g><g><path fill="#000000" stroke="none" paint-order="stroke fill markers" d=" M 77.16267485762415 1175.7904822439841 L 67 1180 L 77.16267485762415 1184.2095177560159"/></g><g><path fill="none" stroke="#000000" paint-order="fill stroke markers" d=" M 77.16267485762415 1175.7904822439841 L 67 1180 L 77.16267485762415 1184.2095177560159 L 77.16267485762415 1175.7904822439841" stroke-miterlimit="10" stroke-dasharray=""/></g><g><rect fill="#ffffff" stroke="none" x="103" y="1214" width="153.5625" height="13" transform="matrix(1 0 0 1 -15 -30)"/></g><g><g><path fill="none" stroke="none"/><text fill="#000000" stroke="none" font-family="Arial" font-size="13px" font-style="normal" font-weight="normal" text-decoration="undefined" x="179.78125" y="1220.5" text-anchor="middle" dominant-baseline="central" transform="matrix(1 0 0 1 -15 -30)">Send analysis + Join voice</text></g></g><g><rect fill="#ffffff" stroke="none" x="68" y="1210" width="14" height="559" transform="matrix(1 0 0 1 -15 -30)"/></g><g><path fill="none" stroke="#000000" paint-order="fill stroke markers" d=" M 53 1180 L 67 1180 L 67 1739 L 53 1739 L 53 1180 Z Z" stroke-miterlimit="10" stroke-dasharray=""/></g><g><path fill="none" stroke="#000000" paint-order="fill stroke markers" d=" M 263 1180 L 67 1180" stroke-miterlimit="10" stroke-dasharray=""/></g><g><path fill="#000000" stroke="none" paint-order="stroke fill markers" d=" M 77.16267485762415 1175.7904822439841 L 67 1180 L 77.16267485762415 1184.2095177560159"/></g><g><path fill="none" stroke="#000000" paint-order="fill stroke markers" d=" M 77.16267485762415 1175.7904822439841 L 67 1180 L 77.16267485762415 1184.2095177560159 L 77.16267485762415 1175.7904822439841" stroke-miterlimit="10" stroke-dasharray=""/></g><g><rect fill="#ffffff" stroke="none" x="87" y="1214" width="185.71337890625" height="13" transform="matrix(1 0 0 1 -15 -30)"/></g><g><g><path fill="none" stroke="none"/><text fill="#000000" stroke="none" font-family="Arial" font-size="13px" font-style="normal" font-weight="normal" text-decoration="undefined" x="179.856689453125" y="1220.5" text-anchor="middle" dominant-baseline="central" transform="matrix(1 0 0 1 -15 -30)">Play TTS audio in voice channel</text></g></g><g><rect fill="#ffffff" stroke="none" x="68" y="1210" width="14" height="562" transform="matrix(1 0 0 1 -15 -30)"/></g><g><path fill="none" stroke="#000000" paint-order="fill stroke markers" d=" M 53 1180 L 67 1180 L 67 1742 L 53 1742 L 53 1180 Z Z" stroke-miterlimit="10" stroke-dasharray=""/></g><g><path fill="none" stroke="#000000" paint-order="fill stroke markers" d=" M 480 475 L 660 475 L 660 558 L 480 558 L 480 475" stroke-miterlimit="10" stroke-dasharray=""/></g><g><path fill="#ffffff" stroke="none" paint-order="stroke fill markers" d=" M 480 475 L 480 498 L 509.72998046875 498 L 521.22998046875 486.5 L 521.22998046875 475 L 480 475"/></g><g><path fill="none" stroke="#000000" paint-order="fill stroke markers" d=" M 480 475 L 480 498 L 509.72998046875 498 L 521.22998046875 486.5 L 521.22998046875 475 L 480 475 L 480 475" stroke-miterlimit="10" stroke-dasharray=""/></g><g><g><path fill="none" stroke="none"/><text fill="#000000" stroke="none" font-family="Arial" font-size="13px" font-style="normal" font-weight="bold" text-decoration="undefined" x="506.864990234375" y="516.5" text-anchor="middle" dominant-baseline="central" transform="matrix(1 0 0 1 -15 -30)">alt</text></g></g><g><g><path fill="none" stroke="none"/><text fill="#000000" stroke="none" font-family="Arial" font-size="13px" font-style="normal" font-weight="normal" text-decoration="undefined" x="560.522216796875" y="549.5" text-anchor="middle" dominant-baseline="central" transform="matrix(1 0 0 1 -15 -30)">[Rate Limit 429]</text></g></g></g></svg>