<svg version="1.1" xmlns="http://www.w3.org/2000/svg" xmlns:xlink="http://www.w3.org/1999/xlink" width="1456" height="600"><defs/><g><g><path fill="#C0C0C0" stroke="none" paint-order="stroke fill markers" d=" M 166.4326171875 397 C 166.4326171875 391.477152 170.9097691875 387 176.4326171875 387 C 181.9554651875 387 186.4326171875 391.477152 186.4326171875 397 C 186.4326171875 402.522848 181.9554651875 407 176.4326171875 407 C 170.9097691875 407 166.4326171875 402.522848 166.4326171875 397 Z" fill-opacity="0.2"/></g><g><path fill="#000000" stroke="none" paint-order="stroke fill markers" d=" M 159.4326171875 390 C 159.4326171875 384.477152 163.9097691875 380 169.4326171875 380 C 174.9554651875 380 179.4326171875 384.477152 179.4326171875 390 C 179.4326171875 395.522848 174.9554651875 400 169.4326171875 400 C 163.9097691875 400 159.4326171875 395.522848 159.4326171875 390 Z"/></g><g><path fill="#C0C0C0" stroke="none" paint-order="stroke fill markers" d=" M 502.1446533203125 467 L 544.1446533203125 467 Q 554.1446533203125 467 554.1446533203125 477 L 554.1446533203125 497 Q 554.1446533203125 507 544.1446533203125 507 L 502.1446533203125 507 Q 492.1446533203125 507 492.1446533203125 497 L 492.1446533203125 477 Q 492.1446533203125 467 502.1446533203125 467 Z" fill-opacity="0.2"/></g><g><path fill="#ffffff" stroke="none" paint-order="stroke fill markers" d=" M 495.1446533203125 460 L 537.1446533203125 460 Q 547.1446533203125 460 547.1446533203125 470 L 547.1446533203125 490 Q 547.1446533203125 500 537.1446533203125 500 L 495.1446533203125 500 Q 485.1446533203125 500 485.1446533203125 490 L 485.1446533203125 470 Q 485.1446533203125 460 495.1446533203125 460 Z"/></g><g><path fill="none" stroke="#000000" paint-order="fill stroke markers" d=" M 495.1446533203125 460 L 537.1446533203125 460 Q 547.1446533203125 460 547.1446533203125 470 L 547.1446533203125 490 Q 547.1446533203125 500 537.1446533203125 500 L 495.1446533203125 500 Q 485.1446533203125 500 485.1446533203125 490 L 485.1446533203125 470 Q 485.1446533203125 460 495.1446533203125 460 Z" stroke-miterlimit="10" stroke-dasharray=""/></g><g><g><path fill="none" stroke="none"/><text fill="#000000" stroke="none" font-family="Arial" font-size="13px" font-style="normal" font-weight="bold" text-decoration="undefined" x="495.6446533203125" y="483.5" text-anchor="middle" dominant-baseline="central" transform="matrix(1 0 0 1 21 -10)">用户空闲</text></g></g><g><path fill="#C0C0C0" stroke="none" paint-order="stroke fill markers" d=" M 377.5364990234375 287 L 419.5364990234375 287 Q 429.5364990234375 287 429.5364990234375 297 L 429.5364990234375 317 Q 429.5364990234375 327 419.5364990234375 327 L 377.5364990234375 327 Q 367.5364990234375 327 367.5364990234375 317 L 367.5364990234375 297 Q 367.5364990234375 287 377.5364990234375 287 Z" fill-opacity="0.2"/></g><g><path fill="#ffffff" stroke="none" paint-order="stroke fill markers" d=" M 370.5364990234375 280 L 412.5364990234375 280 Q 422.5364990234375 280 422.5364990234375 290 L 422.5364990234375 310 Q 422.5364990234375 320 412.5364990234375 320 L 370.5364990234375 320 Q 360.5364990234375 320 360.5364990234375 310 L 360.5364990234375 290 Q 360.5364990234375 280 370.5364990234375 280 Z"/></g><g><path fill="none" stroke="#000000" paint-order="fill stroke markers" d=" M 370.5364990234375 280 L 412.5364990234375 280 Q 422.5364990234375 280 422.5364990234375 290 L 422.5364990234375 310 Q 422.5364990234375 320 412.5364990234375 320 L 370.5364990234375 320 Q 360.5364990234375 320 360.5364990234375 310 L 360.5364990234375 290 Q 360.5364990234375 280 370.5364990234375 280 Z" stroke-miterlimit="10" stroke-dasharray=""/></g><g><g><path fill="none" stroke="none"/><text fill="#000000" stroke="none" font-family="Arial" font-size="13px" font-style="normal" font-weight="bold" text-decoration="undefined" x="371.0364990234375" y="303.5" text-anchor="middle" dominant-baseline="central" transform="matrix(1 0 0 1 21 -10)">用户绑定</text></g></g><g><path fill="#C0C0C0" stroke="none" paint-order="stroke fill markers" d=" M 254.4510498046875 197 L 298.6219482421875 197 Q 308.6219482421875 197 308.6219482421875 207 L 308.6219482421875 227 Q 308.6219482421875 237 298.6219482421875 237 L 254.4510498046875 237 Q 244.4510498046875 237 244.4510498046875 227 L 244.4510498046875 207 Q 244.4510498046875 197 254.4510498046875 197 Z" fill-opacity="0.2"/></g><g><path fill="#ffffff" stroke="none" paint-order="stroke fill markers" d=" M 247.4510498046875 190 L 291.6219482421875 190 Q 301.6219482421875 190 301.6219482421875 200 L 301.6219482421875 220 Q 301.6219482421875 230 291.6219482421875 230 L 247.4510498046875 230 Q 237.4510498046875 230 237.4510498046875 220 L 237.4510498046875 200 Q 237.4510498046875 190 247.4510498046875 190 Z"/></g><g><path fill="none" stroke="#000000" paint-order="fill stroke markers" d=" M 247.4510498046875 190 L 291.6219482421875 190 Q 301.6219482421875 190 301.6219482421875 200 L 301.6219482421875 220 Q 301.6219482421875 230 291.6219482421875 230 L 247.4510498046875 230 Q 237.4510498046875 230 237.4510498046875 220 L 237.4510498046875 200 Q 237.4510498046875 190 247.4510498046875 190 Z" stroke-miterlimit="10" stroke-dasharray=""/></g><g><g><path fill="none" stroke="none"/><text fill="#000000" stroke="none" font-family="Arial" font-size="13px" font-style="normal" font-weight="bold" text-decoration="undefined" x="249.0364990234375" y="213.5" text-anchor="middle" dominant-baseline="central" transform="matrix(1 0 0 1 21 -10)">RSO认证</text></g></g><g><path fill="#C0C0C0" stroke="none" paint-order="stroke fill markers" d=" M 413.4326171875 377 L 468.4326171875 377 Q 478.4326171875 377 478.4326171875 387 L 478.4326171875 407 Q 478.4326171875 417 468.4326171875 417 L 413.4326171875 417 Q 403.4326171875 417 403.4326171875 407 L 403.4326171875 387 Q 403.4326171875 377 413.4326171875 377 Z" fill-opacity="0.2"/></g><g><path fill="#ffffff" stroke="none" paint-order="stroke fill markers" d=" M 406.4326171875 370 L 461.4326171875 370 Q 471.4326171875 370 471.4326171875 380 L 471.4326171875 400 Q 471.4326171875 410 461.4326171875 410 L 406.4326171875 410 Q 396.4326171875 410 396.4326171875 400 L 396.4326171875 380 Q 396.4326171875 370 406.4326171875 370 Z"/></g><g><path fill="none" stroke="#000000" paint-order="fill stroke markers" d=" M 406.4326171875 370 L 461.4326171875 370 Q 471.4326171875 370 471.4326171875 380 L 471.4326171875 400 Q 471.4326171875 410 461.4326171875 410 L 406.4326171875 410 Q 396.4326171875 410 396.4326171875 400 L 396.4326171875 380 Q 396.4326171875 370 406.4326171875 370 Z" stroke-miterlimit="10" stroke-dasharray=""/></g><g><g><path fill="none" stroke="none"/><text fill="#000000" stroke="none" font-family="Arial" font-size="13px" font-style="normal" font-weight="bold" text-decoration="undefined" x="413.4326171875" y="393.5" text-anchor="middle" dominant-baseline="central" transform="matrix(1 0 0 1 21 -10)">已绑定用户</text></g></g><g><path fill="#C0C0C0" stroke="none" paint-order="stroke fill markers" d=" M 549.2864990234375 197 L 591.2864990234375 197 Q 601.2864990234375 197 601.2864990234375 207 L 601.2864990234375 227 Q 601.2864990234375 237 591.2864990234375 237 L 549.2864990234375 237 Q 539.2864990234375 237 539.2864990234375 227 L 539.2864990234375 207 Q 539.2864990234375 197 549.2864990234375 197 Z" fill-opacity="0.2"/></g><g><path fill="#ffffff" stroke="none" paint-order="stroke fill markers" d=" M 542.2864990234375 190 L 584.2864990234375 190 Q 594.2864990234375 190 594.2864990234375 200 L 594.2864990234375 220 Q 594.2864990234375 230 584.2864990234375 230 L 542.2864990234375 230 Q 532.2864990234375 230 532.2864990234375 220 L 532.2864990234375 200 Q 532.2864990234375 190 542.2864990234375 190 Z"/></g><g><path fill="none" stroke="#000000" paint-order="fill stroke markers" d=" M 542.2864990234375 190 L 584.2864990234375 190 Q 594.2864990234375 190 594.2864990234375 200 L 594.2864990234375 220 Q 594.2864990234375 230 584.2864990234375 230 L 542.2864990234375 230 Q 532.2864990234375 230 532.2864990234375 220 L 532.2864990234375 200 Q 532.2864990234375 190 542.2864990234375 190 Z" stroke-miterlimit="10" stroke-dasharray=""/></g><g><g><path fill="none" stroke="none"/><text fill="#000000" stroke="none" font-family="Arial" font-size="13px" font-style="normal" font-weight="bold" text-decoration="undefined" x="542.7864990234375" y="213.5" text-anchor="middle" dominant-baseline="central" transform="matrix(1 0 0 1 21 -10)">命令接收</text></g></g><g><path fill="#C0C0C0" stroke="none" paint-order="stroke fill markers" d=" M 257.4326171875 307 C 257.4326171875 301.477152 261.9097691875 297 267.4326171875 297 C 272.9554651875 297 277.4326171875 301.477152 277.4326171875 307 C 277.4326171875 312.522848 272.9554651875 317 267.4326171875 317 C 261.9097691875 317 257.4326171875 312.522848 257.4326171875 307 Z" fill-opacity="0.2"/></g><g><path fill="#000000" stroke="none" paint-order="stroke fill markers" d=" M 250.4326171875 300 C 250.4326171875 294.477152 254.9097691875 290 260.4326171875 290 C 265.9554651875 290 270.4326171875 294.477152 270.4326171875 300 C 270.4326171875 305.522848 265.9554651875 310 260.4326171875 310 C 254.9097691875 310 250.4326171875 305.522848 250.4326171875 300 Z"/></g><g><path fill="#C0C0C0" stroke="none" paint-order="stroke fill markers" d=" M 246.4326171875 377 L 288.4326171875 377 Q 298.4326171875 377 298.4326171875 387 L 298.4326171875 407 Q 298.4326171875 417 288.4326171875 417 L 246.4326171875 417 Q 236.4326171875 417 236.4326171875 407 L 236.4326171875 387 Q 236.4326171875 377 246.4326171875 377 Z" fill-opacity="0.2"/></g><g><path fill="#ffffff" stroke="none" paint-order="stroke fill markers" d=" M 239.4326171875 370 L 281.4326171875 370 Q 291.4326171875 370 291.4326171875 380 L 291.4326171875 400 Q 291.4326171875 410 281.4326171875 410 L 239.4326171875 410 Q 229.4326171875 410 229.4326171875 400 L 229.4326171875 380 Q 229.4326171875 370 239.4326171875 370 Z"/></g><g><path fill="none" stroke="#000000" paint-order="fill stroke markers" d=" M 239.4326171875 370 L 281.4326171875 370 Q 291.4326171875 370 291.4326171875 380 L 291.4326171875 400 Q 291.4326171875 410 281.4326171875 410 L 239.4326171875 410 Q 229.4326171875 410 229.4326171875 400 L 229.4326171875 380 Q 229.4326171875 370 239.4326171875 370 Z" stroke-miterlimit="10" stroke-dasharray=""/></g><g><g><path fill="none" stroke="none"/><text fill="#000000" stroke="none" font-family="Arial" font-size="13px" font-style="normal" font-weight="bold" text-decoration="undefined" x="239.9326171875" y="393.5" text-anchor="middle" dominant-baseline="central" transform="matrix(1 0 0 1 21 -10)">延迟回复</text></g></g><g><path fill="#C0C0C0" stroke="none" paint-order="stroke fill markers" d=" M 241.1446533203125 467 L 283.1446533203125 467 Q 293.1446533203125 467 293.1446533203125 477 L 293.1446533203125 497 Q 293.1446533203125 507 283.1446533203125 507 L 241.1446533203125 507 Q 231.1446533203125 507 231.1446533203125 497 L 231.1446533203125 477 Q 231.1446533203125 467 241.1446533203125 467 Z" fill-opacity="0.2"/></g><g><path fill="#ffffff" stroke="none" paint-order="stroke fill markers" d=" M 234.1446533203125 460 L 276.1446533203125 460 Q 286.1446533203125 460 286.1446533203125 470 L 286.1446533203125 490 Q 286.1446533203125 500 276.1446533203125 500 L 234.1446533203125 500 Q 224.1446533203125 500 224.1446533203125 490 L 224.1446533203125 470 Q 224.1446533203125 460 234.1446533203125 460 Z"/></g><g><path fill="none" stroke="#000000" paint-order="fill stroke markers" d=" M 234.1446533203125 460 L 276.1446533203125 460 Q 286.1446533203125 460 286.1446533203125 470 L 286.1446533203125 490 Q 286.1446533203125 500 276.1446533203125 500 L 234.1446533203125 500 Q 224.1446533203125 500 224.1446533203125 490 L 224.1446533203125 470 Q 224.1446533203125 460 234.1446533203125 460 Z" stroke-miterlimit="10" stroke-dasharray=""/></g><g><g><path fill="none" stroke="none"/><text fill="#000000" stroke="none" font-family="Arial" font-size="13px" font-style="normal" font-weight="bold" text-decoration="undefined" x="234.6446533203125" y="483.5" text-anchor="middle" dominant-baseline="central" transform="matrix(1 0 0 1 21 -10)">任务入队</text></g></g><g><path fill="#C0C0C0" stroke="none" paint-order="stroke fill markers" d=" M 249.1446533203125 577 C 249.1446533203125 569.8202976 254.9649509203125 564 262.1446533203125 564 C 269.3243557203125 564 275.1446533203125 569.8202976 275.1446533203125 577 C 275.1446533203125 584.1797024 269.3243557203125 590 262.1446533203125 590 C 254.9649509203125 590 249.1446533203125 584.1797024 249.1446533203125 577 Z" fill-opacity="0.2"/></g><g><path fill="none" stroke="#000000" paint-order="fill stroke markers" d=" M 242.1446533203125 570 C 242.1446533203125 562.8202976 247.9649509203125 557 255.1446533203125 557 C 262.3243557203125 557 268.1446533203125 562.8202976 268.1446533203125 570 C 268.1446533203125 577.1797024 262.3243557203125 583 255.1446533203125 583 C 247.9649509203125 583 242.1446533203125 577.1797024 242.1446533203125 570 Z" stroke-miterlimit="10" stroke-dasharray=""/></g><g><path fill="#000000" stroke="none" paint-order="stroke fill markers" d=" M 247.1446533203125 570 C 247.1446533203125 565.5817216 250.7263749203125 562 255.1446533203125 562 C 259.56293172031246 562 263.1446533203125 565.5817216 263.1446533203125 570 C 263.1446533203125 574.4182784 259.56293172031246 578 255.1446533203125 578 C 250.7263749203125 578 247.1446533203125 574.4182784 247.1446533203125 570 Z"/></g><g><path fill="#C0C0C0" stroke="none" paint-order="stroke fill markers" d=" M 588.4326171875 287 L 630.4326171875 287 Q 640.4326171875 287 640.4326171875 297 L 640.4326171875 317 Q 640.4326171875 327 630.4326171875 327 L 588.4326171875 327 Q 578.4326171875 327 578.4326171875 317 L 578.4326171875 297 Q 578.4326171875 287 588.4326171875 287 Z" fill-opacity="0.2"/></g><g><path fill="#ffffff" stroke="none" paint-order="stroke fill markers" d=" M 581.4326171875 280 L 623.4326171875 280 Q 633.4326171875 280 633.4326171875 290 L 633.4326171875 310 Q 633.4326171875 320 623.4326171875 320 L 581.4326171875 320 Q 571.4326171875 320 571.4326171875 310 L 571.4326171875 290 Q 571.4326171875 280 581.4326171875 280 Z"/></g><g><path fill="none" stroke="#000000" paint-order="fill stroke markers" d=" M 581.4326171875 280 L 623.4326171875 280 Q 633.4326171875 280 633.4326171875 290 L 633.4326171875 310 Q 633.4326171875 320 623.4326171875 320 L 581.4326171875 320 Q 571.4326171875 320 571.4326171875 310 L 571.4326171875 290 Q 571.4326171875 280 581.4326171875 280 Z" stroke-miterlimit="10" stroke-dasharray=""/></g><g><g><path fill="none" stroke="none"/><text fill="#000000" stroke="none" font-family="Arial" font-size="13px" font-style="normal" font-weight="bold" text-decoration="undefined" x="581.9326171875" y="303.5" text-anchor="middle" dominant-baseline="central" transform="matrix(1 0 0 1 21 -10)">异步处理</text></g></g><g><path fill="#C0C0C0" stroke="none" paint-order="stroke fill markers" d=" M 657.6839599609375 37 C 657.6839599609375 31.477152000000004 662.1611119609375 27 667.6839599609375 27 C 673.2068079609375 27 677.6839599609375 31.477152000000004 677.6839599609375 37 C 677.6839599609375 42.522847999999996 673.2068079609375 47 667.6839599609375 47 C 662.1611119609375 47 657.6839599609375 42.522847999999996 657.6839599609375 37 Z" fill-opacity="0.2"/></g><g><path fill="#000000" stroke="none" paint-order="stroke fill markers" d=" M 650.6839599609375 30 C 650.6839599609375 24.477152000000004 655.1611119609375 20 660.6839599609375 20 C 666.2068079609375 20 670.6839599609375 24.477152000000004 670.6839599609375 30 C 670.6839599609375 35.522847999999996 666.2068079609375 40 660.6839599609375 40 C 655.1611119609375 40 650.6839599609375 35.522847999999996 650.6839599609375 30 Z"/></g><g><path fill="#C0C0C0" stroke="none" paint-order="stroke fill markers" d=" M 735.4332275390625 107 L 803.9346923828125 107 Q 813.9346923828125 107 813.9346923828125 117 L 813.9346923828125 137 Q 813.9346923828125 147 803.9346923828125 147 L 735.4332275390625 147 Q 725.4332275390625 147 725.4332275390625 137 L 725.4332275390625 117 Q 725.4332275390625 107 735.4332275390625 107 Z" fill-opacity="0.2"/></g><g><path fill="#ffffff" stroke="none" paint-order="stroke fill markers" d=" M 728.4332275390625 100 L 796.9346923828125 100 Q 806.9346923828125 100 806.9346923828125 110 L 806.9346923828125 130 Q 806.9346923828125 140 796.9346923828125 140 L 728.4332275390625 140 Q 718.4332275390625 140 718.4332275390625 130 L 718.4332275390625 110 Q 718.4332275390625 100 728.4332275390625 100 Z"/></g><g><path fill="none" stroke="#000000" paint-order="fill stroke markers" d=" M 728.4332275390625 100 L 796.9346923828125 100 Q 806.9346923828125 100 806.9346923828125 110 L 806.9346923828125 130 Q 806.9346923828125 140 796.9346923828125 140 L 728.4332275390625 140 Q 718.4332275390625 140 718.4332275390625 130 L 718.4332275390625 110 Q 718.4332275390625 100 728.4332275390625 100 Z" stroke-miterlimit="10" stroke-dasharray=""/></g><g><g><path fill="none" stroke="none"/><text fill="#000000" stroke="none" font-family="Arial" font-size="13px" font-style="normal" font-weight="bold" text-decoration="undefined" x="742.1839599609375" y="123.5" text-anchor="middle" dominant-baseline="central" transform="matrix(1 0 0 1 21 -10)">获取Timeline</text></g></g><g><path fill="#C0C0C0" stroke="none" paint-order="stroke fill markers" d=" M 849.9232177734375 17 L 917.9232177734375 17 Q 927.9232177734375 17 927.9232177734375 27 L 927.9232177734375 47 Q 927.9232177734375 57 917.9232177734375 57 L 849.9232177734375 57 Q 839.9232177734375 57 839.9232177734375 47 L 839.9232177734375 27 Q 839.9232177734375 17 849.9232177734375 17 Z" fill-opacity="0.2"/></g><g><path fill="#ffffff" stroke="none" paint-order="stroke fill markers" d=" M 842.9232177734375 10 L 910.9232177734375 10 Q 920.9232177734375 10 920.9232177734375 20 L 920.9232177734375 40 Q 920.9232177734375 50 910.9232177734375 50 L 842.9232177734375 50 Q 832.9232177734375 50 832.9232177734375 40 L 832.9232177734375 20 Q 832.9232177734375 10 842.9232177734375 10 Z"/></g><g><path fill="none" stroke="#000000" paint-order="fill stroke markers" d=" M 842.9232177734375 10 L 910.9232177734375 10 Q 920.9232177734375 10 920.9232177734375 20 L 920.9232177734375 40 Q 920.9232177734375 50 910.9232177734375 50 L 842.9232177734375 50 Q 832.9232177734375 50 832.9232177734375 40 L 832.9232177734375 20 Q 832.9232177734375 10 842.9232177734375 10 Z" stroke-miterlimit="10" stroke-dasharray=""/></g><g><g><path fill="none" stroke="none"/><text fill="#000000" stroke="none" font-family="Arial" font-size="13px" font-style="normal" font-weight="bold" text-decoration="undefined" x="856.4232177734375" y="33.5" text-anchor="middle" dominant-baseline="central" transform="matrix(1 0 0 1 21 -10)">速率限制检查</text></g></g><g><path fill="#C0C0C0" stroke="none" paint-order="stroke fill markers" d=" M 1283.0364990234375 107 L 1325.0364990234375 107 Q 1335.0364990234375 107 1335.0364990234375 117 L 1335.0364990234375 137 Q 1335.0364990234375 147 1325.0364990234375 147 L 1283.0364990234375 147 Q 1273.0364990234375 147 1273.0364990234375 137 L 1273.0364990234375 117 Q 1273.0364990234375 107 1283.0364990234375 107 Z" fill-opacity="0.2"/></g><g><path fill="#ffffff" stroke="none" paint-order="stroke fill markers" d=" M 1276.0364990234375 100 L 1318.0364990234375 100 Q 1328.0364990234375 100 1328.0364990234375 110 L 1328.0364990234375 130 Q 1328.0364990234375 140 1318.0364990234375 140 L 1276.0364990234375 140 Q 1266.0364990234375 140 1266.0364990234375 130 L 1266.0364990234375 110 Q 1266.0364990234375 100 1276.0364990234375 100 Z"/></g><g><path fill="none" stroke="#000000" paint-order="fill stroke markers" d=" M 1276.0364990234375 100 L 1318.0364990234375 100 Q 1328.0364990234375 100 1328.0364990234375 110 L 1328.0364990234375 130 Q 1328.0364990234375 140 1318.0364990234375 140 L 1276.0364990234375 140 Q 1266.0364990234375 140 1266.0364990234375 130 L 1266.0364990234375 110 Q 1266.0364990234375 100 1276.0364990234375 100 Z" stroke-miterlimit="10" stroke-dasharray=""/></g><g><g><path fill="none" stroke="none"/><text fill="#000000" stroke="none" font-family="Arial" font-size="13px" font-style="normal" font-weight="bold" text-decoration="undefined" x="1276.5364990234375" y="123.5" text-anchor="middle" dominant-baseline="central" transform="matrix(1 0 0 1 21 -10)">数据解析</text></g></g><g><path fill="#C0C0C0" stroke="none" paint-order="stroke fill markers" d=" M 1282.6810302734375 197 L 1325.3919677734375 197 Q 1335.3919677734375 197 1335.3919677734375 207 L 1335.3919677734375 227 Q 1335.3919677734375 237 1325.3919677734375 237 L 1282.6810302734375 237 Q 1272.6810302734375 237 1272.6810302734375 227 L 1272.6810302734375 207 Q 1272.6810302734375 197 1282.6810302734375 197 Z" fill-opacity="0.2"/></g><g><path fill="#ffffff" stroke="none" paint-order="stroke fill markers" d=" M 1275.6810302734375 190 L 1318.3919677734375 190 Q 1328.3919677734375 190 1328.3919677734375 200 L 1328.3919677734375 220 Q 1328.3919677734375 230 1318.3919677734375 230 L 1275.6810302734375 230 Q 1265.6810302734375 230 1265.6810302734375 220 L 1265.6810302734375 200 Q 1265.6810302734375 190 1275.6810302734375 190 Z"/></g><g><path fill="none" stroke="#000000" paint-order="fill stroke markers" d=" M 1275.6810302734375 190 L 1318.3919677734375 190 Q 1328.3919677734375 190 1328.3919677734375 200 L 1328.3919677734375 220 Q 1328.3919677734375 230 1318.3919677734375 230 L 1275.6810302734375 230 Q 1265.6810302734375 230 1265.6810302734375 220 L 1265.6810302734375 200 Q 1265.6810302734375 190 1275.6810302734375 190 Z" stroke-miterlimit="10" stroke-dasharray=""/></g><g><g><path fill="none" stroke="none"/><text fill="#000000" stroke="none" font-family="Arial" font-size="13px" font-style="normal" font-weight="bold" text-decoration="undefined" x="1276.5364990234375" y="213.5" text-anchor="middle" dominant-baseline="central" transform="matrix(1 0 0 1 21 -10)">LLM分析</text></g></g><g><path fill="#C0C0C0" stroke="none" paint-order="stroke fill markers" d=" M 1283.0364990234375 287 L 1325.0364990234375 287 Q 1335.0364990234375 287 1335.0364990234375 297 L 1335.0364990234375 317 Q 1335.0364990234375 327 1325.0364990234375 327 L 1283.0364990234375 327 Q 1273.0364990234375 327 1273.0364990234375 317 L 1273.0364990234375 297 Q 1273.0364990234375 287 1283.0364990234375 287 Z" fill-opacity="0.2"/></g><g><path fill="#ffffff" stroke="none" paint-order="stroke fill markers" d=" M 1276.0364990234375 280 L 1318.0364990234375 280 Q 1328.0364990234375 280 1328.0364990234375 290 L 1328.0364990234375 310 Q 1328.0364990234375 320 1318.0364990234375 320 L 1276.0364990234375 320 Q 1266.0364990234375 320 1266.0364990234375 310 L 1266.0364990234375 290 Q 1266.0364990234375 280 1276.0364990234375 280 Z"/></g><g><path fill="none" stroke="#000000" paint-order="fill stroke markers" d=" M 1276.0364990234375 280 L 1318.0364990234375 280 Q 1328.0364990234375 280 1328.0364990234375 290 L 1328.0364990234375 310 Q 1328.0364990234375 320 1318.0364990234375 320 L 1276.0364990234375 320 Q 1266.0364990234375 320 1266.0364990234375 310 L 1266.0364990234375 290 Q 1266.0364990234375 280 1276.0364990234375 280 Z" stroke-miterlimit="10" stroke-dasharray=""/></g><g><g><path fill="none" stroke="none"/><text fill="#000000" stroke="none" font-family="Arial" font-size="13px" font-style="normal" font-weight="bold" text-decoration="undefined" x="1276.5364990234375" y="303.5" text-anchor="middle" dominant-baseline="central" transform="matrix(1 0 0 1 21 -10)">情绪标记</text></g></g><g><path fill="#C0C0C0" stroke="none" paint-order="stroke fill markers" d=" M 1380.1182861328125 377 L 1420.6710205078125 377 Q 1430.6710205078125 377 1430.6710205078125 387 L 1430.6710205078125 407 Q 1430.6710205078125 417 1420.6710205078125 417 L 1380.1182861328125 417 Q 1370.1182861328125 417 1370.1182861328125 407 L 1370.1182861328125 387 Q 1370.1182861328125 377 1380.1182861328125 377 Z" fill-opacity="0.2"/></g><g><path fill="#ffffff" stroke="none" paint-order="stroke fill markers" d=" M 1373.1182861328125 370 L 1413.6710205078125 370 Q 1423.6710205078125 370 1423.6710205078125 380 L 1423.6710205078125 400 Q 1423.6710205078125 410 1413.6710205078125 410 L 1373.1182861328125 410 Q 1363.1182861328125 410 1363.1182861328125 400 L 1363.1182861328125 380 Q 1363.1182861328125 370 1373.1182861328125 370 Z"/></g><g><path fill="none" stroke="#000000" paint-order="fill stroke markers" d=" M 1373.1182861328125 370 L 1413.6710205078125 370 Q 1423.6710205078125 370 1423.6710205078125 380 L 1423.6710205078125 400 Q 1423.6710205078125 410 1413.6710205078125 410 L 1373.1182861328125 410 Q 1363.1182861328125 410 1363.1182861328125 400 L 1363.1182861328125 380 Q 1363.1182861328125 370 1373.1182861328125 370 Z" stroke-miterlimit="10" stroke-dasharray=""/></g><g><g><path fill="none" stroke="none"/><text fill="#000000" stroke="none" font-family="Arial" font-size="13px" font-style="normal" font-weight="bold" text-decoration="undefined" x="1372.8946533203125" y="393.5" text-anchor="middle" dominant-baseline="central" transform="matrix(1 0 0 1 21 -10)">TTS合成</text></g></g><g><path fill="#C0C0C0" stroke="none" paint-order="stroke fill markers" d=" M 1379.3946533203125 467 L 1421.3946533203125 467 Q 1431.3946533203125 467 1431.3946533203125 477 L 1431.3946533203125 497 Q 1431.3946533203125 507 1421.3946533203125 507 L 1379.3946533203125 507 Q 1369.3946533203125 507 1369.3946533203125 497 L 1369.3946533203125 477 Q 1369.3946533203125 467 1379.3946533203125 467 Z" fill-opacity="0.2"/></g><g><path fill="#ffffff" stroke="none" paint-order="stroke fill markers" d=" M 1372.3946533203125 460 L 1414.3946533203125 460 Q 1424.3946533203125 460 1424.3946533203125 470 L 1424.3946533203125 490 Q 1424.3946533203125 500 1414.3946533203125 500 L 1372.3946533203125 500 Q 1362.3946533203125 500 1362.3946533203125 490 L 1362.3946533203125 470 Q 1362.3946533203125 460 1372.3946533203125 460 Z"/></g><g><path fill="none" stroke="#000000" paint-order="fill stroke markers" d=" M 1372.3946533203125 460 L 1414.3946533203125 460 Q 1424.3946533203125 460 1424.3946533203125 470 L 1424.3946533203125 490 Q 1424.3946533203125 500 1414.3946533203125 500 L 1372.3946533203125 500 Q 1362.3946533203125 500 1362.3946533203125 490 L 1362.3946533203125 470 Q 1362.3946533203125 460 1372.3946533203125 460 Z" stroke-miterlimit="10" stroke-dasharray=""/></g><g><g><path fill="none" stroke="none"/><text fill="#000000" stroke="none" font-family="Arial" font-size="13px" font-style="normal" font-weight="bold" text-decoration="undefined" x="1372.8946533203125" y="483.5" text-anchor="middle" dominant-baseline="central" transform="matrix(1 0 0 1 21 -10)">结果就绪</text></g></g><g><path fill="#C0C0C0" stroke="none" paint-order="stroke fill markers" d=" M 1387.3946533203125 577 C 1387.3946533203125 569.8202976 1393.2149509203125 564 1400.3946533203125 564 C 1407.5743557203125 564 1413.3946533203125 569.8202976 1413.3946533203125 577 C 1413.3946533203125 584.1797024 1407.5743557203125 590 1400.3946533203125 590 C 1393.2149509203125 590 1387.3946533203125 584.1797024 1387.3946533203125 577 Z" fill-opacity="0.2"/></g><g><path fill="none" stroke="#000000" paint-order="fill stroke markers" d=" M 1380.3946533203125 570 C 1380.3946533203125 562.8202976 1386.2149509203125 557 1393.3946533203125 557 C 1400.5743557203125 557 1406.3946533203125 562.8202976 1406.3946533203125 570 C 1406.3946533203125 577.1797024 1400.5743557203125 583 1393.3946533203125 583 C 1386.2149509203125 583 1380.3946533203125 577.1797024 1380.3946533203125 570 Z" stroke-miterlimit="10" stroke-dasharray=""/></g><g><path fill="#000000" stroke="none" paint-order="stroke fill markers" d=" M 1385.3946533203125 570 C 1385.3946533203125 565.5817216 1388.9763749203125 562 1393.3946533203125 562 C 1397.8129317203125 562 1401.3946533203125 565.5817216 1401.3946533203125 570 C 1401.3946533203125 574.4182784 1397.8129317203125 578 1393.3946533203125 578 C 1388.9763749203125 578 1385.3946533203125 574.4182784 1385.3946533203125 570 Z"/></g><g><path fill="#C0C0C0" stroke="none" paint-order="stroke fill markers" d=" M 588.4326171875 377 L 630.4326171875 377 Q 640.4326171875 377 640.4326171875 387 L 640.4326171875 407 Q 640.4326171875 417 630.4326171875 417 L 588.4326171875 417 Q 578.4326171875 417 578.4326171875 407 L 578.4326171875 387 Q 578.4326171875 377 588.4326171875 377 Z" fill-opacity="0.2"/></g><g><path fill="#ffffff" stroke="none" paint-order="stroke fill markers" d=" M 581.4326171875 370 L 623.4326171875 370 Q 633.4326171875 370 633.4326171875 380 L 633.4326171875 400 Q 633.4326171875 410 623.4326171875 410 L 581.4326171875 410 Q 571.4326171875 410 571.4326171875 400 L 571.4326171875 380 Q 571.4326171875 370 581.4326171875 370 Z"/></g><g><path fill="none" stroke="#000000" paint-order="fill stroke markers" d=" M 581.4326171875 370 L 623.4326171875 370 Q 633.4326171875 370 633.4326171875 380 L 633.4326171875 400 Q 633.4326171875 410 623.4326171875 410 L 581.4326171875 410 Q 571.4326171875 410 571.4326171875 400 L 571.4326171875 380 Q 571.4326171875 370 581.4326171875 370 Z" stroke-miterlimit="10" stroke-dasharray=""/></g><g><g><path fill="none" stroke="none"/><text fill="#000000" stroke="none" font-family="Arial" font-size="13px" font-style="normal" font-weight="bold" text-decoration="undefined" x="581.9326171875" y="393.5" text-anchor="middle" dominant-baseline="central" transform="matrix(1 0 0 1 21 -10)">响应交付</text></g></g><g><path fill="#C0C0C0" stroke="none" paint-order="stroke fill markers" d=" M 1077.6710205078125 127 C 1077.6710205078125 121.47715199999999 1082.1481725078124 117 1087.6710205078125 117 C 1093.1938685078126 117 1097.6710205078125 121.47715199999999 1097.6710205078125 127 C 1097.6710205078125 132.522848 1093.1938685078126 137 1087.6710205078125 137 C 1082.1481725078124 137 1077.6710205078125 132.522848 1077.6710205078125 127 Z" fill-opacity="0.2"/></g><g><path fill="#000000" stroke="none" paint-order="stroke fill markers" d=" M 1070.6710205078125 120 C 1070.6710205078125 114.477152 1075.1481725078124 110 1080.6710205078125 110 C 1086.1938685078126 110 1090.6710205078125 114.477152 1090.6710205078125 120 C 1090.6710205078125 125.52284800000001 1086.1938685078126 130 1080.6710205078125 130 C 1075.1481725078124 130 1070.6710205078125 125.52284800000001 1070.6710205078125 120 Z"/></g><g><path fill="#C0C0C0" stroke="none" paint-order="stroke fill markers" d=" M 1050.5416259765625 197 L 1124.8004150390625 197 Q 1134.8004150390625 197 1134.8004150390625 207 L 1134.8004150390625 227 Q 1134.8004150390625 237 1124.8004150390625 237 L 1050.5416259765625 237 Q 1040.5416259765625 237 1040.5416259765625 227 L 1040.5416259765625 207 Q 1040.5416259765625 197 1050.5416259765625 197 Z" fill-opacity="0.2"/></g><g><path fill="#ffffff" stroke="none" paint-order="stroke fill markers" d=" M 1043.5416259765625 190 L 1117.8004150390625 190 Q 1127.8004150390625 190 1127.8004150390625 200 L 1127.8004150390625 220 Q 1127.8004150390625 230 1117.8004150390625 230 L 1043.5416259765625 230 Q 1033.5416259765625 230 1033.5416259765625 220 L 1033.5416259765625 200 Q 1033.5416259765625 190 1043.5416259765625 190 Z"/></g><g><path fill="none" stroke="#000000" paint-order="fill stroke markers" d=" M 1043.5416259765625 190 L 1117.8004150390625 190 Q 1127.8004150390625 190 1127.8004150390625 200 L 1127.8004150390625 220 Q 1127.8004150390625 230 1117.8004150390625 230 L 1043.5416259765625 230 Q 1033.5416259765625 230 1033.5416259765625 220 L 1033.5416259765625 200 Q 1033.5416259765625 190 1043.5416259765625 190 Z" stroke-miterlimit="10" stroke-dasharray=""/></g><g><g><path fill="none" stroke="none"/><text fill="#000000" stroke="none" font-family="Arial" font-size="13px" font-style="normal" font-weight="bold" text-decoration="undefined" x="1060.1710205078125" y="213.5" text-anchor="middle" dominant-baseline="central" transform="matrix(1 0 0 1 21 -10)">更新Webhook</text></g></g><g><path fill="#C0C0C0" stroke="none" paint-order="stroke fill markers" d=" M 1053.6710205078125 287 L 1121.6710205078125 287 Q 1131.6710205078125 287 1131.6710205078125 297 L 1131.6710205078125 317 Q 1131.6710205078125 327 1121.6710205078125 327 L 1053.6710205078125 327 Q 1043.6710205078125 327 1043.6710205078125 317 L 1043.6710205078125 297 Q 1043.6710205078125 287 1053.6710205078125 287 Z" fill-opacity="0.2"/></g><g><path fill="#ffffff" stroke="none" paint-order="stroke fill markers" d=" M 1046.6710205078125 280 L 1114.6710205078125 280 Q 1124.6710205078125 280 1124.6710205078125 290 L 1124.6710205078125 310 Q 1124.6710205078125 320 1114.6710205078125 320 L 1046.6710205078125 320 Q 1036.6710205078125 320 1036.6710205078125 310 L 1036.6710205078125 290 Q 1036.6710205078125 280 1046.6710205078125 280 Z"/></g><g><path fill="none" stroke="#000000" paint-order="fill stroke markers" d=" M 1046.6710205078125 280 L 1114.6710205078125 280 Q 1124.6710205078125 280 1124.6710205078125 290 L 1124.6710205078125 310 Q 1124.6710205078125 320 1114.6710205078125 320 L 1046.6710205078125 320 Q 1036.6710205078125 320 1036.6710205078125 310 L 1036.6710205078125 290 Q 1036.6710205078125 280 1046.6710205078125 280 Z" stroke-miterlimit="10" stroke-dasharray=""/></g><g><g><path fill="none" stroke="none"/><text fill="#000000" stroke="none" font-family="Arial" font-size="13px" font-style="normal" font-weight="bold" text-decoration="undefined" x="1060.1710205078125" y="303.5" text-anchor="middle" dominant-baseline="central" transform="matrix(1 0 0 1 21 -10)">发送嵌入消息</text></g></g><g><path fill="#C0C0C0" stroke="none" paint-order="stroke fill markers" d=" M 1066.6710205078125 377 L 1108.6710205078125 377 Q 1118.6710205078125 377 1118.6710205078125 387 L 1118.6710205078125 407 Q 1118.6710205078125 417 1108.6710205078125 417 L 1066.6710205078125 417 Q 1056.6710205078125 417 1056.6710205078125 407 L 1056.6710205078125 387 Q 1056.6710205078125 377 1066.6710205078125 377 Z" fill-opacity="0.2"/></g><g><path fill="#ffffff" stroke="none" paint-order="stroke fill markers" d=" M 1059.6710205078125 370 L 1101.6710205078125 370 Q 1111.6710205078125 370 1111.6710205078125 380 L 1111.6710205078125 400 Q 1111.6710205078125 410 1101.6710205078125 410 L 1059.6710205078125 410 Q 1049.6710205078125 410 1049.6710205078125 400 L 1049.6710205078125 380 Q 1049.6710205078125 370 1059.6710205078125 370 Z"/></g><g><path fill="none" stroke="#000000" paint-order="fill stroke markers" d=" M 1059.6710205078125 370 L 1101.6710205078125 370 Q 1111.6710205078125 370 1111.6710205078125 380 L 1111.6710205078125 400 Q 1111.6710205078125 410 1101.6710205078125 410 L 1059.6710205078125 410 Q 1049.6710205078125 410 1049.6710205078125 400 L 1049.6710205078125 380 Q 1049.6710205078125 370 1059.6710205078125 370 Z" stroke-miterlimit="10" stroke-dasharray=""/></g><g><g><path fill="none" stroke="none"/><text fill="#000000" stroke="none" font-family="Arial" font-size="13px" font-style="normal" font-weight="bold" text-decoration="undefined" x="1060.1710205078125" y="393.5" text-anchor="middle" dominant-baseline="central" transform="matrix(1 0 0 1 21 -10)">加入语音</text></g></g><g><path fill="#C0C0C0" stroke="none" paint-order="stroke fill markers" d=" M 1067.3946533203125 467 L 1107.9473876953125 467 Q 1117.9473876953125 467 1117.9473876953125 477 L 1117.9473876953125 497 Q 1117.9473876953125 507 1107.9473876953125 507 L 1067.3946533203125 507 Q 1057.3946533203125 507 1057.3946533203125 497 L 1057.3946533203125 477 Q 1057.3946533203125 467 1067.3946533203125 467 Z" fill-opacity="0.2"/></g><g><path fill="#ffffff" stroke="none" paint-order="stroke fill markers" d=" M 1060.3946533203125 460 L 1100.9473876953125 460 Q 1110.9473876953125 460 1110.9473876953125 470 L 1110.9473876953125 490 Q 1110.9473876953125 500 1100.9473876953125 500 L 1060.3946533203125 500 Q 1050.3946533203125 500 1050.3946533203125 490 L 1050.3946533203125 470 Q 1050.3946533203125 460 1060.3946533203125 460 Z"/></g><g><path fill="none" stroke="#000000" paint-order="fill stroke markers" d=" M 1060.3946533203125 460 L 1100.9473876953125 460 Q 1110.9473876953125 460 1110.9473876953125 470 L 1110.9473876953125 490 Q 1110.9473876953125 500 1100.9473876953125 500 L 1060.3946533203125 500 Q 1050.3946533203125 500 1050.3946533203125 490 L 1050.3946533203125 470 Q 1050.3946533203125 460 1060.3946533203125 460 Z" stroke-miterlimit="10" stroke-dasharray=""/></g><g><g><path fill="none" stroke="none"/><text fill="#000000" stroke="none" font-family="Arial" font-size="13px" font-style="normal" font-weight="bold" text-decoration="undefined" x="1060.1710205078125" y="483.5" text-anchor="middle" dominant-baseline="central" transform="matrix(1 0 0 1 21 -10)">播放TTS</text></g></g><g><path fill="#C0C0C0" stroke="none" paint-order="stroke fill markers" d=" M 1074.6710205078125 577 C 1074.6710205078125 569.8202976 1080.4913181078125 564 1087.6710205078125 564 C 1094.8507229078125 564 1100.6710205078125 569.8202976 1100.6710205078125 577 C 1100.6710205078125 584.1797024 1094.8507229078125 590 1087.6710205078125 590 C 1080.4913181078125 590 1074.6710205078125 584.1797024 1074.6710205078125 577 Z" fill-opacity="0.2"/></g><g><path fill="none" stroke="#000000" paint-order="fill stroke markers" d=" M 1067.6710205078125 570 C 1067.6710205078125 562.8202976 1073.4913181078125 557 1080.6710205078125 557 C 1087.8507229078125 557 1093.6710205078125 562.8202976 1093.6710205078125 570 C 1093.6710205078125 577.1797024 1087.8507229078125 583 1080.6710205078125 583 C 1073.4913181078125 583 1067.6710205078125 577.1797024 1067.6710205078125 570 Z" stroke-miterlimit="10" stroke-dasharray=""/></g><g><path fill="#000000" stroke="none" paint-order="stroke fill markers" d=" M 1072.6710205078125 570 C 1072.6710205078125 565.5817216 1076.2527421078125 562 1080.6710205078125 562 C 1085.0892989078125 562 1088.6710205078125 565.5817216 1088.6710205078125 570 C 1088.6710205078125 574.4182784 1085.0892989078125 578 1080.6710205078125 578 C 1076.2527421078125 578 1072.6710205078125 574.4182784 1072.6710205078125 570 Z"/></g><g><path fill="#C0C0C0" stroke="none" paint-order="stroke fill markers" d=" M 700.4326171875 377 L 742.4326171875 377 Q 752.4326171875 377 752.4326171875 387 L 752.4326171875 407 Q 752.4326171875 417 742.4326171875 417 L 700.4326171875 417 Q 690.4326171875 417 690.4326171875 407 L 690.4326171875 387 Q 690.4326171875 377 700.4326171875 377 Z" fill-opacity="0.2"/></g><g><path fill="#ffffff" stroke="none" paint-order="stroke fill markers" d=" M 693.4326171875 370 L 735.4326171875 370 Q 745.4326171875 370 745.4326171875 380 L 745.4326171875 400 Q 745.4326171875 410 735.4326171875 410 L 693.4326171875 410 Q 683.4326171875 410 683.4326171875 400 L 683.4326171875 380 Q 683.4326171875 370 693.4326171875 370 Z"/></g><g><path fill="none" stroke="#000000" paint-order="fill stroke markers" d=" M 693.4326171875 370 L 735.4326171875 370 Q 745.4326171875 370 745.4326171875 380 L 745.4326171875 400 Q 745.4326171875 410 735.4326171875 410 L 693.4326171875 410 Q 683.4326171875 410 683.4326171875 400 L 683.4326171875 380 Q 683.4326171875 370 693.4326171875 370 Z" stroke-miterlimit="10" stroke-dasharray=""/></g><g><g><path fill="none" stroke="none"/><text fill="#000000" stroke="none" font-family="Arial" font-size="13px" font-style="normal" font-weight="bold" text-decoration="undefined" x="693.9326171875" y="393.5" text-anchor="middle" dominant-baseline="central" transform="matrix(1 0 0 1 21 -10)">监控循环</text></g></g><g><path fill="#C0C0C0" stroke="none" paint-order="stroke fill markers" d=" M 983.1826171875 487 C 983.1826171875 481.477152 987.6597691875 477 993.1826171875 477 C 998.7054651875 477 1003.1826171875 481.477152 1003.1826171875 487 C 1003.1826171875 492.522848 998.7054651875 497 993.1826171875 497 C 987.6597691875 497 983.1826171875 492.522848 983.1826171875 487 Z" fill-opacity="0.2"/></g><g><path fill="#000000" stroke="none" paint-order="stroke fill markers" d=" M 976.1826171875 480 C 976.1826171875 474.477152 980.6597691875 470 986.1826171875 470 C 991.7054651875 470 996.1826171875 474.477152 996.1826171875 480 C 996.1826171875 485.522848 991.7054651875 490 986.1826171875 490 C 980.6597691875 490 976.1826171875 485.522848 976.1826171875 480 Z"/></g><g><path fill="#C0C0C0" stroke="none" paint-order="stroke fill markers" d=" M 866.3740234375 557 L 917.77490234375 557 Q 927.77490234375 557 927.77490234375 567 L 927.77490234375 587 Q 927.77490234375 597 917.77490234375 597 L 866.3740234375 597 Q 856.3740234375 597 856.3740234375 587 L 856.3740234375 567 Q 856.3740234375 557 866.3740234375 557 Z" fill-opacity="0.2"/></g><g><path fill="#ffffff" stroke="none" paint-order="stroke fill markers" d=" M 859.3740234375 550 L 910.77490234375 550 Q 920.77490234375 550 920.77490234375 560 L 920.77490234375 580 Q 920.77490234375 590 910.77490234375 590 L 859.3740234375 590 Q 849.3740234375 590 849.3740234375 580 L 849.3740234375 560 Q 849.3740234375 550 859.3740234375 550 Z"/></g><g><path fill="none" stroke="#000000" paint-order="fill stroke markers" d=" M 859.3740234375 550 L 910.77490234375 550 Q 920.77490234375 550 920.77490234375 560 L 920.77490234375 580 Q 920.77490234375 590 910.77490234375 590 L 859.3740234375 590 Q 849.3740234375 590 849.3740234375 580 L 849.3740234375 560 Q 849.3740234375 550 859.3740234375 550 Z" stroke-miterlimit="10" stroke-dasharray=""/></g><g><g><path fill="none" stroke="none"/><text fill="#000000" stroke="none" font-family="Arial" font-size="13px" font-style="normal" font-weight="bold" text-decoration="undefined" x="864.574462890625" y="573.5" text-anchor="middle" dominant-baseline="central" transform="matrix(1 0 0 1 21 -10)">检查Redis</text></g></g><g><path fill="#C0C0C0" stroke="none" paint-order="stroke fill markers" d=" M 824.074462890625 377 L 879.074462890625 377 Q 889.074462890625 377 889.074462890625 387 L 889.074462890625 407 Q 889.074462890625 417 879.074462890625 417 L 824.074462890625 417 Q 814.074462890625 417 814.074462890625 407 L 814.074462890625 387 Q 814.074462890625 377 824.074462890625 377 Z" fill-opacity="0.2"/></g><g><path fill="#ffffff" stroke="none" paint-order="stroke fill markers" d=" M 817.074462890625 370 L 872.074462890625 370 Q 882.074462890625 370 882.074462890625 380 L 882.074462890625 400 Q 882.074462890625 410 872.074462890625 410 L 817.074462890625 410 Q 807.074462890625 410 807.074462890625 400 L 807.074462890625 380 Q 807.074462890625 370 817.074462890625 370 Z"/></g><g><path fill="none" stroke="#000000" paint-order="fill stroke markers" d=" M 817.074462890625 370 L 872.074462890625 370 Q 882.074462890625 370 882.074462890625 380 L 882.074462890625 400 Q 882.074462890625 410 872.074462890625 410 L 817.074462890625 410 Q 807.074462890625 410 807.074462890625 400 L 807.074462890625 380 Q 807.074462890625 370 817.074462890625 370 Z" stroke-miterlimit="10" stroke-dasharray=""/></g><g><g><path fill="none" stroke="none"/><text fill="#000000" stroke="none" font-family="Arial" font-size="13px" font-style="normal" font-weight="bold" text-decoration="undefined" x="824.074462890625" y="393.5" text-anchor="middle" dominant-baseline="central" transform="matrix(1 0 0 1 21 -10)">检查数据库</text></g></g><g><path fill="#C0C0C0" stroke="none" paint-order="stroke fill markers" d=" M 881.1826171875 467 L 923.1826171875 467 Q 933.1826171875 467 933.1826171875 477 L 933.1826171875 497 Q 933.1826171875 507 923.1826171875 507 L 881.1826171875 507 Q 871.1826171875 507 871.1826171875 497 L 871.1826171875 477 Q 871.1826171875 467 881.1826171875 467 Z" fill-opacity="0.2"/></g><g><path fill="#ffffff" stroke="none" paint-order="stroke fill markers" d=" M 874.1826171875 460 L 916.1826171875 460 Q 926.1826171875 460 926.1826171875 470 L 926.1826171875 490 Q 926.1826171875 500 916.1826171875 500 L 874.1826171875 500 Q 864.1826171875 500 864.1826171875 490 L 864.1826171875 470 Q 864.1826171875 460 874.1826171875 460 Z"/></g><g><path fill="none" stroke="#000000" paint-order="fill stroke markers" d=" M 874.1826171875 460 L 916.1826171875 460 Q 926.1826171875 460 926.1826171875 470 L 926.1826171875 490 Q 926.1826171875 500 916.1826171875 500 L 874.1826171875 500 Q 864.1826171875 500 864.1826171875 490 L 864.1826171875 470 Q 864.1826171875 460 874.1826171875 460 Z" stroke-miterlimit="10" stroke-dasharray=""/></g><g><g><path fill="none" stroke="none"/><text fill="#000000" stroke="none" font-family="Arial" font-size="13px" font-style="normal" font-weight="bold" text-decoration="undefined" x="874.6826171875" y="483.5" text-anchor="middle" dominant-baseline="central" transform="matrix(1 0 0 1 21 -10)">检查指标</text></g></g><g><path fill="#C0C0C0" stroke="none" paint-order="stroke fill markers" d=" M 510.1446533203125 577 C 510.1446533203125 569.8202976 515.9649509203125 564 523.1446533203125 564 C 530.3243557203125 564 536.1446533203125 569.8202976 536.1446533203125 577 C 536.1446533203125 584.1797024 530.3243557203125 590 523.1446533203125 590 C 515.9649509203125 590 510.1446533203125 584.1797024 510.1446533203125 577 Z" fill-opacity="0.2"/></g><g><path fill="none" stroke="#000000" paint-order="fill stroke markers" d=" M 503.1446533203125 570 C 503.1446533203125 562.8202976 508.9649509203125 557 516.1446533203125 557 C 523.3243557203125 557 529.1446533203125 562.8202976 529.1446533203125 570 C 529.1446533203125 577.1797024 523.3243557203125 583 516.1446533203125 583 C 508.9649509203125 583 503.1446533203125 577.1797024 503.1446533203125 570 Z" stroke-miterlimit="10" stroke-dasharray=""/></g><g><path fill="#000000" stroke="none" paint-order="stroke fill markers" d=" M 508.1446533203125 570 C 508.1446533203125 565.5817216 511.7263749203125 562 516.1446533203125 562 C 520.5629317203125 562 524.1446533203125 565.5817216 524.1446533203125 570 C 524.1446533203125 574.4182784 520.5629317203125 578 516.1446533203125 578 C 511.7263749203125 578 508.1446533203125 574.4182784 508.1446533203125 570 Z"/></g><g><path fill="none" stroke="#000000" paint-order="fill stroke markers" d=" M 169 401 Q 169 435 484 476" stroke-miterlimit="10" stroke-dasharray=""/></g><g><path fill="none" stroke="#000000" paint-order="fill stroke markers" d=" M 473.3790084879311 478.8626105743815 L 484 476 L 474.4656535298498 470.5139962279328" stroke-miterlimit="10" stroke-dasharray=""/></g><g><rect fill="#ffffff" stroke="none" x="117" y="424" width="65" height="13" transform="matrix(1 0 0 1 21 -10)"/></g><g><g><path fill="none" stroke="none"/><text fill="#000000" stroke="none" font-family="Arial" font-size="13px" font-style="normal" font-weight="normal" text-decoration="undefined" x="149.5" y="430.5" text-anchor="middle" dominant-baseline="central" transform="matrix(1 0 0 1 21 -10)">机器人在线</text></g></g><g><path fill="none" stroke="#000000" paint-order="fill stroke markers" d=" M 484 472 Q 346 435 346 412.5 Q 346 390 346 367.5 Q 346 345 370 321" stroke-miterlimit="10" stroke-dasharray=""/></g><g><path fill="none" stroke="#000000" paint-order="fill stroke markers" d=" M 365.790482243984 331.16267485762415 L 370 321 L 359.83732514237585 325.209517756016" stroke-miterlimit="10" stroke-dasharray=""/></g><g><rect fill="#ffffff" stroke="none" x="282" y="393" width="57.8017578125" height="13" transform="matrix(1 0 0 1 21 -10)"/></g><g><g><path fill="none" stroke="none"/><text fill="#000000" stroke="none" font-family="Arial" font-size="13px" font-style="normal" font-weight="normal" text-decoration="undefined" x="310.90087890625" y="399.5" text-anchor="middle" dominant-baseline="central" transform="matrix(1 0 0 1 21 -10)">/bind 命令</text></g></g><g><path fill="none" stroke="#000000" paint-order="fill stroke markers" d=" M 360 296 Q 71 255 236 217" stroke-miterlimit="10" stroke-dasharray=""/></g><g><path fill="none" stroke="#000000" paint-order="fill stroke markers" d=" M 227.04130274882647 223.38292594049278 L 236 217 L 225.15183420676394 215.17865463943187" stroke-miterlimit="10" stroke-dasharray=""/></g><g><rect fill="#ffffff" stroke="none" x="-11" y="244" width="115.58447265625" height="13" transform="matrix(1 0 0 1 21 -10)"/></g><g><g><path fill="none" stroke="none"/><text fill="#000000" stroke="none" font-family="Arial" font-size="13px" font-style="normal" font-weight="normal" text-decoration="undefined" x="46.792236328125" y="250.5" text-anchor="middle" dominant-baseline="central" transform="matrix(1 0 0 1 21 -10)">重定向到Riot OAuth</text></g></g><g><path fill="none" stroke="#000000" paint-order="fill stroke markers" d=" M 303 220 Q 424 255 406 279" stroke-miterlimit="10" stroke-dasharray=""/></g><g><path fill="none" stroke="#000000" paint-order="fill stroke markers" d=" M 408.7299907097617 268.3441494602911 L 406 279 L 415.46521911938726 273.39557076751026" stroke-miterlimit="10" stroke-dasharray=""/></g><g><rect fill="#ffffff" stroke="none" x="395" y="268" width="39" height="13" transform="matrix(1 0 0 1 21 -10)"/></g><g><g><path fill="none" stroke="none"/><text fill="#000000" stroke="none" font-family="Arial" font-size="13px" font-style="normal" font-weight="normal" text-decoration="undefined" x="414.5" y="274.5" text-anchor="middle" dominant-baseline="central" transform="matrix(1 0 0 1 21 -10)">授权码</text></g></g><g><path fill="none" stroke="#000000" paint-order="fill stroke markers" d=" M 411 321 Q 434 345 433 369" stroke-miterlimit="10" stroke-dasharray=""/></g><g><path fill="none" stroke="#000000" paint-order="fill stroke markers" d=" M 429.2172092782506 358.6708909215051 L 433 369 L 437.6289461018608 359.02137995582217" stroke-miterlimit="10" stroke-dasharray=""/></g><g><rect fill="#ffffff" stroke="none" x="375" y="349" width="105.447265625" height="13" transform="matrix(1 0 0 1 21 -10)"/></g><g><g><path fill="none" stroke="none"/><text fill="#000000" stroke="none" font-family="Arial" font-size="13px" font-style="normal" font-weight="normal" text-decoration="undefined" x="427.7236328125" y="355.5" text-anchor="middle" dominant-baseline="central" transform="matrix(1 0 0 1 21 -10)">获取并存储PUUID</text></g></g><g><path fill="none" stroke="#000000" paint-order="fill stroke markers" d=" M 433 411 Q 434 435 484 463" stroke-miterlimit="10" stroke-dasharray=""/></g><g><path fill="none" stroke="#000000" paint-order="fill stroke markers" d=" M 473.0762204914141 461.707312393577 L 484 463 L 477.1897896057498 454.36165326083477" stroke-miterlimit="10" stroke-dasharray=""/></g><g><rect fill="#ffffff" stroke="none" x="394" y="425" width="52" height="13" transform="matrix(1 0 0 1 21 -10)"/></g><g><g><path fill="none" stroke="none"/><text fill="#000000" stroke="none" font-family="Arial" font-size="13px" font-style="normal" font-weight="normal" text-decoration="undefined" x="420" y="431.5" text-anchor="middle" dominant-baseline="central" transform="matrix(1 0 0 1 21 -10)">绑定完成</text></g></g><g><path fill="none" stroke="#000000" paint-order="fill stroke markers" d=" M 518 459 Q 521 435 521 412.5 Q 521 390 521 367.5 Q 521 345 521 322.5 Q 521 300 521 277.5 Q 521 255 543 231" stroke-miterlimit="10" stroke-dasharray=""/></g><g><path fill="none" stroke="#000000" paint-order="fill stroke markers" d=" M 539.235893749185 241.3359326687327 L 543 231 L 533.0297668649936 235.64698302489055" stroke-miterlimit="10" stroke-dasharray=""/></g><g><rect fill="#ffffff" stroke="none" x="449" y="348" width="72.2236328125" height="13" transform="matrix(1 0 0 1 21 -10)"/></g><g><g><path fill="none" stroke="none"/><text fill="#000000" stroke="none" font-family="Arial" font-size="13px" font-style="normal" font-weight="normal" text-decoration="undefined" x="485.11181640625" y="354.5" text-anchor="middle" dominant-baseline="central" transform="matrix(1 0 0 1 21 -10)">/讲道理 命令</text></g></g><g><path fill="none" stroke="#000000" paint-order="fill stroke markers" d=" M 260 311 Q 260 345 260 369" stroke-miterlimit="10" stroke-dasharray=""/></g><g><path fill="none" stroke="#000000" paint-order="fill stroke markers" d=" M 255.790482243984 358.83732514237585 L 260 369 L 264.209517756016 358.83732514237585" stroke-miterlimit="10" stroke-dasharray=""/></g><g><path fill="none" stroke="#000000" paint-order="fill stroke markers" d=" M 260 411 Q 260 435 257 459" stroke-miterlimit="10" stroke-dasharray=""/></g><g><path fill="none" stroke="#000000" paint-order="fill stroke markers" d=" M 254.0835133377538 448.39367615292934 L 257 459 L 262.43753601960987 449.43792898816133" stroke-miterlimit="10" stroke-dasharray=""/></g><g><rect fill="#ffffff" stroke="none" x="204" y="440" width="98.236328125" height="13" transform="matrix(1 0 0 1 21 -10)"/></g><g><g><path fill="none" stroke="none"/><text fill="#000000" stroke="none" font-family="Arial" font-size="13px" font-style="normal" font-weight="normal" text-decoration="undefined" x="253.1181640625" y="446.5" text-anchor="middle" dominant-baseline="central" transform="matrix(1 0 0 1 21 -10)">发送到Redis队列</text></g></g><g><path fill="none" stroke="#000000" paint-order="fill stroke markers" d=" M 255 501 Q 255 525 255 556" stroke-miterlimit="10" stroke-dasharray=""/></g><g><path fill="none" stroke="#000000" paint-order="fill stroke markers" d=" M 250.790482243984 545.8373251423759 L 255 556 L 259.209517756016 545.8373251423759" stroke-miterlimit="10" stroke-dasharray=""/></g><g><path fill="none" stroke="#000000" paint-order="fill stroke markers" d=" M 581 231 Q 602 255 602 279" stroke-miterlimit="10" stroke-dasharray=""/></g><g><path fill="none" stroke="#000000" paint-order="fill stroke markers" d=" M 597.790482243984 268.83732514237585 L 602 279 L 606.209517756016 268.83732514237585" stroke-miterlimit="10" stroke-dasharray=""/></g><g><rect fill="#ffffff" stroke="none" x="549" y="258" width="93.6533203125" height="13" transform="matrix(1 0 0 1 21 -10)"/></g><g><g><path fill="none" stroke="none"/><text fill="#000000" stroke="none" font-family="Arial" font-size="13px" font-style="normal" font-weight="normal" text-decoration="undefined" x="595.82666015625" y="264.5" text-anchor="middle" dominant-baseline="central" transform="matrix(1 0 0 1 21 -10)">Worker接收任务</text></g></g><g><path fill="none" stroke="#000000" paint-order="fill stroke markers" d=" M 660 41 Q 661 75 717 100" stroke-miterlimit="10" stroke-dasharray=""/></g><g><path fill="none" stroke="#000000" paint-order="fill stroke markers" d=" M 706.0040631497994 99.70104718365447 L 717 100 L 709.4360900514168 92.01330692403138" stroke-miterlimit="10" stroke-dasharray=""/></g><g><path fill="none" stroke="#000000" paint-order="fill stroke markers" d=" M 751 99 Q 738 75 832 44" stroke-miterlimit="10" stroke-dasharray=""/></g><g><path fill="none" stroke="#000000" paint-order="fill stroke markers" d=" M 823.6670227643006 51.18063300756385 L 832 44 L 821.0302209963035 43.18516958202417" stroke-miterlimit="10" stroke-dasharray=""/></g><g><rect fill="#ffffff" stroke="none" x="676" y="64" width="73.68359375" height="13" transform="matrix(1 0 0 1 21 -10)"/></g><g><g><path fill="none" stroke="none"/><text fill="#000000" stroke="none" font-family="Arial" font-size="13px" font-style="normal" font-weight="normal" text-decoration="undefined" x="712.841796875" y="70.5" text-anchor="middle" dominant-baseline="central" transform="matrix(1 0 0 1 21 -10)">调用Riot API</text></g></g><g><path fill="none" stroke="#000000" paint-order="fill stroke markers" d=" M 922 35 Q 1314 75 808 116" stroke-miterlimit="10" stroke-dasharray=""/></g><g><path fill="none" stroke="#000000" paint-order="fill stroke markers" d=" M 817.7895036161467 110.98346544420852 L 808 116 L 818.4694499938844 119.37499878897077" stroke-miterlimit="10" stroke-dasharray=""/></g><g><rect fill="#ffffff" stroke="none" x="1245" y="93" width="98.24267578125" height="13" transform="matrix(1 0 0 1 21 -10)"/></g><g><g><path fill="none" stroke="none"/><text fill="#000000" stroke="none" font-family="Arial" font-size="13px" font-style="normal" font-weight="normal" text-decoration="undefined" x="1294.121337890625" y="99.5" text-anchor="middle" dominant-baseline="central" transform="matrix(1 0 0 1 21 -10)">429 - 等待并重试</text></g></g><g><path fill="none" stroke="#000000" paint-order="fill stroke markers" d=" M 922 35 Q 1264 75 1282 99" stroke-miterlimit="10" stroke-dasharray=""/></g><g><path fill="none" stroke="#000000" paint-order="fill stroke markers" d=" M 1272.5347808806127 93.39557076751026 L 1282 99 L 1279.2700092902382 88.34414946029108" stroke-miterlimit="10" stroke-dasharray=""/></g><g><rect fill="#ffffff" stroke="none" x="1232" y="69" width="44.08447265625" height="13" transform="matrix(1 0 0 1 21 -10)"/></g><g><g><path fill="none" stroke="none"/><text fill="#000000" stroke="none" font-family="Arial" font-size="13px" font-style="normal" font-weight="normal" text-decoration="undefined" x="1254.042236328125" y="75.5" text-anchor="middle" dominant-baseline="central" transform="matrix(1 0 0 1 21 -10)">200 OK</text></g></g><g><path fill="none" stroke="#000000" paint-order="fill stroke markers" d=" M 1297 141 Q 1297 165 1297 189" stroke-miterlimit="10" stroke-dasharray=""/></g><g><path fill="none" stroke="#000000" paint-order="fill stroke markers" d=" M 1292.7904822439841 178.83732514237585 L 1297 189 L 1301.2095177560159 178.83732514237585" stroke-miterlimit="10" stroke-dasharray=""/></g><g><rect fill="#ffffff" stroke="none" x="1233" y="168" width="114.86083984375" height="13" transform="matrix(1 0 0 1 21 -10)"/></g><g><g><path fill="none" stroke="none"/><text fill="#000000" stroke="none" font-family="Arial" font-size="13px" font-style="normal" font-weight="normal" text-decoration="undefined" x="1290.430419921875" y="174.5" text-anchor="middle" dominant-baseline="central" transform="matrix(1 0 0 1 21 -10)">解析为Pydantic模型</text></g></g><g><path fill="none" stroke="#000000" paint-order="fill stroke markers" d=" M 1297 231 Q 1297 255 1297 279" stroke-miterlimit="10" stroke-dasharray=""/></g><g><path fill="none" stroke="#000000" paint-order="fill stroke markers" d=" M 1292.7904822439841 268.83732514237585 L 1297 279 L 1301.2095177560159 268.83732514237585" stroke-miterlimit="10" stroke-dasharray=""/></g><g><rect fill="#ffffff" stroke="none" x="1257" y="258" width="67.17724609375" height="13" transform="matrix(1 0 0 1 21 -10)"/></g><g><g><path fill="none" stroke="none"/><text fill="#000000" stroke="none" font-family="Arial" font-size="13px" font-style="normal" font-weight="normal" text-decoration="undefined" x="1290.588623046875" y="264.5" text-anchor="middle" dominant-baseline="central" transform="matrix(1 0 0 1 21 -10)">Gemini分析</text></g></g><g><path fill="none" stroke="#000000" paint-order="fill stroke markers" d=" M 1329 315 Q 1393 345 1393 369" stroke-miterlimit="10" stroke-dasharray=""/></g><g><path fill="none" stroke="#000000" paint-order="fill stroke markers" d=" M 1388.7904822439841 358.83732514237585 L 1393 369 L 1397.2095177560159 358.83732514237585" stroke-miterlimit="10" stroke-dasharray=""/></g><g><rect fill="#ffffff" stroke="none" x="1347" y="348" width="78" height="13" transform="matrix(1 0 0 1 21 -10)"/></g><g><g><path fill="none" stroke="none"/><text fill="#000000" stroke="none" font-family="Arial" font-size="13px" font-style="normal" font-weight="normal" text-decoration="undefined" x="1386" y="354.5" text-anchor="middle" dominant-baseline="central" transform="matrix(1 0 0 1 21 -10)">添加情绪标签</text></g></g><g><path fill="none" stroke="#000000" paint-order="fill stroke markers" d=" M 1393 411 Q 1393 435 1393 459" stroke-miterlimit="10" stroke-dasharray=""/></g><g><path fill="none" stroke="#000000" paint-order="fill stroke markers" d=" M 1388.7904822439841 448.83732514237585 L 1393 459 L 1397.2095177560159 448.83732514237585" stroke-miterlimit="10" stroke-dasharray=""/></g><g><rect fill="#ffffff" stroke="none" x="1360" y="438" width="52" height="13" transform="matrix(1 0 0 1 21 -10)"/></g><g><g><path fill="none" stroke="none"/><text fill="#000000" stroke="none" font-family="Arial" font-size="13px" font-style="normal" font-weight="normal" text-decoration="undefined" x="1386" y="444.5" text-anchor="middle" dominant-baseline="central" transform="matrix(1 0 0 1 21 -10)">生成音频</text></g></g><g><path fill="none" stroke="#000000" paint-order="fill stroke markers" d=" M 1393 501 Q 1393 525 1393 556" stroke-miterlimit="10" stroke-dasharray=""/></g><g><path fill="none" stroke="#000000" paint-order="fill stroke markers" d=" M 1388.7904822439841 545.8373251423759 L 1393 556 L 1397.2095177560159 545.8373251423759" stroke-miterlimit="10" stroke-dasharray=""/></g><g><path fill="none" stroke="#000000" paint-order="fill stroke markers" d=" M 602 321 Q 602 345 602 369" stroke-miterlimit="10" stroke-dasharray=""/></g><g><path fill="none" stroke="#000000" paint-order="fill stroke markers" d=" M 597.790482243984 358.83732514237585 L 602 369 L 606.209517756016 358.83732514237585" stroke-miterlimit="10" stroke-dasharray=""/></g><g><rect fill="#ffffff" stroke="none" x="562" y="348" width="67.6533203125" height="13" transform="matrix(1 0 0 1 21 -10)"/></g><g><g><path fill="none" stroke="none"/><text fill="#000000" stroke="none" font-family="Arial" font-size="13px" font-style="normal" font-weight="normal" text-decoration="undefined" x="595.82666015625" y="354.5" text-anchor="middle" dominant-baseline="central" transform="matrix(1 0 0 1 21 -10)">Worker完成</text></g></g><g><path fill="none" stroke="#000000" paint-order="fill stroke markers" d=" M 1080 131 Q 1081 165 1080 189" stroke-miterlimit="10" stroke-dasharray=""/></g><g><path fill="none" stroke="#000000" paint-order="fill stroke markers" d=" M 1076.2172092782507 178.67089092150505 L 1080 189 L 1084.6289461018607 179.02137995582214" stroke-miterlimit="10" stroke-dasharray=""/></g><g><path fill="none" stroke="#000000" paint-order="fill stroke markers" d=" M 1080 231 Q 1081 255 1080 279" stroke-miterlimit="10" stroke-dasharray=""/></g><g><path fill="none" stroke="#000000" paint-order="fill stroke markers" d=" M 1076.2172092782507 268.6708909215051 L 1080 279 L 1084.6289461018607 269.02137995582217" stroke-miterlimit="10" stroke-dasharray=""/></g><g><rect fill="#ffffff" stroke="none" x="1035" y="259" width="78" height="13" transform="matrix(1 0 0 1 21 -10)"/></g><g><g><path fill="none" stroke="none"/><text fill="#000000" stroke="none" font-family="Arial" font-size="13px" font-style="normal" font-weight="normal" text-decoration="undefined" x="1074" y="265.5" text-anchor="middle" dominant-baseline="central" transform="matrix(1 0 0 1 21 -10)">更新原始消息</text></g></g><g><path fill="none" stroke="#000000" paint-order="fill stroke markers" d=" M 1080 321 Q 1081 345 1080 369" stroke-miterlimit="10" stroke-dasharray=""/></g><g><path fill="none" stroke="#000000" paint-order="fill stroke markers" d=" M 1076.2172092782507 358.6708909215051 L 1080 369 L 1084.6289461018607 359.02137995582217" stroke-miterlimit="10" stroke-dasharray=""/></g><g><rect fill="#ffffff" stroke="none" x="1035" y="349" width="78" height="13" transform="matrix(1 0 0 1 21 -10)"/></g><g><g><path fill="none" stroke="none"/><text fill="#000000" stroke="none" font-family="Arial" font-size="13px" font-style="normal" font-weight="normal" text-decoration="undefined" x="1074" y="355.5" text-anchor="middle" dominant-baseline="central" transform="matrix(1 0 0 1 21 -10)">发送分析结果</text></g></g><g><path fill="none" stroke="#000000" paint-order="fill stroke markers" d=" M 1080 411 Q 1081 435 1080 459" stroke-miterlimit="10" stroke-dasharray=""/></g><g><path fill="none" stroke="#000000" paint-order="fill stroke markers" d=" M 1076.2172092782507 448.6708909215051 L 1080 459 L 1084.6289461018607 449.02137995582217" stroke-miterlimit="10" stroke-dasharray=""/></g><g><rect fill="#ffffff" stroke="none" x="1035" y="439" width="78" height="13" transform="matrix(1 0 0 1 21 -10)"/></g><g><g><path fill="none" stroke="none"/><text fill="#000000" stroke="none" font-family="Arial" font-size="13px" font-style="normal" font-weight="normal" text-decoration="undefined" x="1074" y="445.5" text-anchor="middle" dominant-baseline="central" transform="matrix(1 0 0 1 21 -10)">连接语音频道</text></g></g><g><path fill="none" stroke="#000000" paint-order="fill stroke markers" d=" M 1080 501 Q 1081 525 1080 556" stroke-miterlimit="10" stroke-dasharray=""/></g><g><path fill="none" stroke="#000000" paint-order="fill stroke markers" d=" M 1076.1203284999247 545.7068882716885 L 1080 556 L 1084.5349870761204 545.9783288709207" stroke-miterlimit="10" stroke-dasharray=""/></g><g><rect fill="#ffffff" stroke="none" x="1048" y="529" width="52" height="13" transform="matrix(1 0 0 1 21 -10)"/></g><g><g><path fill="none" stroke="none"/><text fill="#000000" stroke="none" font-family="Arial" font-size="13px" font-style="normal" font-weight="normal" text-decoration="undefined" x="1074" y="535.5" text-anchor="middle" dominant-baseline="central" transform="matrix(1 0 0 1 21 -10)">音频播放</text></g></g><g><path fill="none" stroke="#000000" paint-order="fill stroke markers" d=" M 602 411 Q 602 435 548 463" stroke-miterlimit="10" stroke-dasharray=""/></g><g><path fill="none" stroke="#000000" paint-order="fill stroke markers" d=" M 555.0842473793257 454.5849278631424 L 548 463 L 558.9596739336702 462.05896478937825" stroke-miterlimit="10" stroke-dasharray=""/></g><g><rect fill="#ffffff" stroke="none" x="561" y="452" width="52" height="13" transform="matrix(1 0 0 1 21 -10)"/></g><g><g><path fill="none" stroke="none"/><text fill="#000000" stroke="none" font-family="Arial" font-size="13px" font-style="normal" font-weight="normal" text-decoration="undefined" x="587" y="458.5" text-anchor="middle" dominant-baseline="central" transform="matrix(1 0 0 1 21 -10)">命令完成</text></g></g><g><path fill="none" stroke="#000000" paint-order="fill stroke markers" d=" M 986 491 Q 986 525 922 554" stroke-miterlimit="10" stroke-dasharray=""/></g><g><path fill="none" stroke="#000000" paint-order="fill stroke markers" d=" M 929.5193095315694 545.9713024612674 L 922 554 L 932.9941012333469 553.6398082858799" stroke-miterlimit="10" stroke-dasharray=""/></g><g><path fill="none" stroke="#000000" paint-order="fill stroke markers" d=" M 852 549 Q 814 525 814 502.5 Q 814 480 814 457.5 Q 814 435 830 411" stroke-miterlimit="10" stroke-dasharray=""/></g><g><path fill="none" stroke="#000000" paint-order="fill stroke markers" d=" M 827.8652927502162 421.79087693182163 L 830 411 L 820.8602317743891 417.12083628127033" stroke-miterlimit="10" stroke-dasharray=""/></g><g><rect fill="#ffffff" stroke="none" x="739" y="483" width="78" height="13" transform="matrix(1 0 0 1 21 -10)"/></g><g><g><path fill="none" stroke="none"/><text fill="#000000" stroke="none" font-family="Arial" font-size="13px" font-style="normal" font-weight="normal" text-decoration="undefined" x="778" y="489.5" text-anchor="middle" dominant-baseline="central" transform="matrix(1 0 0 1 21 -10)">监控队列深度</text></g></g><g><path fill="none" stroke="#000000" paint-order="fill stroke markers" d=" M 868 411 Q 895 435 895 459" stroke-miterlimit="10" stroke-dasharray=""/></g><g><path fill="none" stroke="#000000" paint-order="fill stroke markers" d=" M 890.790482243984 448.83732514237585 L 895 459 L 899.209517756016 448.83732514237585" stroke-miterlimit="10" stroke-dasharray=""/></g><g><rect fill="#ffffff" stroke="none" x="843" y="438" width="91" height="13" transform="matrix(1 0 0 1 21 -10)"/></g><g><g><path fill="none" stroke="none"/><text fill="#000000" stroke="none" font-family="Arial" font-size="13px" font-style="normal" font-weight="normal" text-decoration="undefined" x="888.5" y="444.5" text-anchor="middle" dominant-baseline="central" transform="matrix(1 0 0 1 21 -10)">验证数据一致性</text></g></g><g><path fill="none" stroke="#000000" paint-order="fill stroke markers" d=" M 895 501 Q 895 525 890 549" stroke-miterlimit="10" stroke-dasharray=""/></g><g><path fill="none" stroke="#000000" paint-order="fill stroke markers" d=" M 887.9516853106921 538.1923912481268 L 890 549 L 896.1937562300469 539.9094893563258" stroke-miterlimit="10" stroke-dasharray=""/></g><g><rect fill="#ffffff" stroke="none" x="862" y="532" width="52" height="13" transform="matrix(1 0 0 1 21 -10)"/></g><g><g><path fill="none" stroke="none"/><text fill="#000000" stroke="none" font-family="Arial" font-size="13px" font-style="normal" font-weight="normal" text-decoration="undefined" x="888" y="538.5" text-anchor="middle" dominant-baseline="central" transform="matrix(1 0 0 1 21 -10)">追踪性能</text></g></g><g><path fill="none" stroke="#000000" paint-order="fill stroke markers" d=" M 548 471 Q 683 435 700 411" stroke-miterlimit="10" stroke-dasharray=""/></g><g><path fill="none" stroke="#000000" paint-order="fill stroke markers" d=" M 697.560867246122 421.7261657365976 L 700 411 L 690.6907281610397 416.8598172179976" stroke-miterlimit="10" stroke-dasharray=""/></g><g><rect fill="#ffffff" stroke="none" x="616" y="430" width="66.4599609375" height="13" transform="matrix(1 0 0 1 21 -10)"/></g><g><g><path fill="none" stroke="none"/><text fill="#000000" stroke="none" font-family="Arial" font-size="13px" font-style="normal" font-weight="normal" text-decoration="undefined" x="649.22998046875" y="436.5" text-anchor="middle" dominant-baseline="central" transform="matrix(1 0 0 1 21 -10)">CLI3观察者</text></g></g><g><path fill="none" stroke="#000000" paint-order="fill stroke markers" d=" M 730 411 Q 749 435 548 474" stroke-miterlimit="10" stroke-dasharray=""/></g><g><path fill="none" stroke="#000000" paint-order="fill stroke markers" d=" M 557.1747939276142 467.9317913363322 L 548 474 L 558.7784304979397 476.19668750647077" stroke-miterlimit="10" stroke-dasharray=""/></g><g><rect fill="#ffffff" stroke="none" x="704" y="453" width="52" height="13" transform="matrix(1 0 0 1 21 -10)"/></g><g><g><path fill="none" stroke="none"/><text fill="#000000" stroke="none" font-family="Arial" font-size="13px" font-style="normal" font-weight="normal" text-decoration="undefined" x="730" y="459.5" text-anchor="middle" dominant-baseline="central" transform="matrix(1 0 0 1 21 -10)">持续进行</text></g></g><g><path fill="none" stroke="#000000" paint-order="fill stroke markers" d=" M 516 501 Q 516 525 516 556" stroke-miterlimit="10" stroke-dasharray=""/></g><g><path fill="none" stroke="#000000" paint-order="fill stroke markers" d=" M 511.790482243984 545.8373251423759 L 516 556 L 520.209517756016 545.8373251423759" stroke-miterlimit="10" stroke-dasharray=""/></g><g><rect fill="#ffffff" stroke="none" x="477" y="528" width="65" height="13" transform="matrix(1 0 0 1 21 -10)"/></g><g><g><path fill="none" stroke="none"/><text fill="#000000" stroke="none" font-family="Arial" font-size="13px" font-style="normal" font-weight="normal" text-decoration="undefined" x="509.5" y="534.5" text-anchor="middle" dominant-baseline="central" transform="matrix(1 0 0 1 21 -10)">机器人关闭</text></g></g><g><path fill="#ffffff" stroke="none" paint-order="stroke fill markers" d=" M 41 280 L 189.4326171875 280 L 199.4326171875 290 L 199.4326171875 319 L 41 319 L 41 280"/></g><g><path fill="none" stroke="#000000" paint-order="fill stroke markers" d=" M 41 280 L 189.4326171875 280 L 199.4326171875 290 L 199.4326171875 319 L 41 319 L 41 280 L 41 280" stroke-miterlimit="10" stroke-dasharray=""/></g><g><path fill="none" stroke="#000000" paint-order="fill stroke markers" d=" M 189.4326171875 280 L 189.4326171875 290 L 199.4326171875 290 L 189.4326171875 280" stroke-miterlimit="10" stroke-dasharray=""/></g><g><g><path fill="none" stroke="none"/><text fill="#000000" stroke="none" font-family="Arial" font-size="13px" font-style="normal" font-weight="normal" text-decoration="undefined" x="25" y="295" text-anchor="start" dominant-baseline="text-before-edge" transform="matrix(1 0 0 1 21 -10)">需要生产API密钥</text></g></g><g><g><path fill="none" stroke="none"/><text fill="#000000" stroke="none" font-family="Arial" font-size="13px" font-style="normal" font-weight="normal" text-decoration="undefined" x="25" y="310" text-anchor="start" dominant-baseline="text-before-edge" transform="matrix(1 0 0 1 21 -10)">        标准OAuth 2.0流程</text></g></g><g><path fill="none" stroke="#000000" paint-order="fill stroke markers" d=" M 236 220 Q 121 255 120 279" stroke-miterlimit="10" stroke-dasharray="3"/></g><g><path fill="#ffffff" stroke="none" paint-order="stroke fill markers" d=" M 856.9346923828125 100 L 1009.6710205078125 100 L 1019.6710205078125 110 L 1019.6710205078125 139 L 856.9346923828125 139 L 856.9346923828125 100"/></g><g><path fill="none" stroke="#000000" paint-order="fill stroke markers" d=" M 856.9346923828125 100 L 1009.6710205078125 100 L 1019.6710205078125 110 L 1019.6710205078125 139 L 856.9346923828125 139 L 856.9346923828125 100 L 856.9346923828125 100" stroke-miterlimit="10" stroke-dasharray=""/></g><g><path fill="none" stroke="#000000" paint-order="fill stroke markers" d=" M 1009.6710205078125 100 L 1009.6710205078125 110 L 1019.6710205078125 110 L 1009.6710205078125 100" stroke-miterlimit="10" stroke-dasharray=""/></g><g><g><path fill="none" stroke="none"/><text fill="#000000" stroke="none" font-family="Arial" font-size="13px" font-style="normal" font-weight="normal" text-decoration="undefined" x="840.9346923828125" y="115" text-anchor="start" dominant-baseline="text-before-edge" transform="matrix(1 0 0 1 21 -10)">Cassiopeia处理速率限制</text></g></g><g><g><path fill="none" stroke="none"/><text fill="#000000" stroke="none" font-family="Arial" font-size="13px" font-style="normal" font-weight="normal" text-decoration="undefined" x="840.9346923828125" y="130" text-anchor="start" dominant-baseline="text-before-edge" transform="matrix(1 0 0 1 21 -10)">        遵守Retry-After头部</text></g></g><g><path fill="none" stroke="#000000" paint-order="fill stroke markers" d=" M 894 51 Q 914 75 927 99" stroke-miterlimit="10" stroke-dasharray="3"/></g><g><path fill="#ffffff" stroke="none" paint-order="stroke fill markers" d=" M 1161.6710205078125 370 L 1302.1182861328125 370 L 1312.1182861328125 380 L 1312.1182861328125 409 L 1161.6710205078125 409 L 1161.6710205078125 370"/></g><g><path fill="none" stroke="#000000" paint-order="fill stroke markers" d=" M 1161.6710205078125 370 L 1302.1182861328125 370 L 1312.1182861328125 380 L 1312.1182861328125 409 L 1161.6710205078125 409 L 1161.6710205078125 370 L 1161.6710205078125 370" stroke-miterlimit="10" stroke-dasharray=""/></g><g><path fill="none" stroke="#000000" paint-order="fill stroke markers" d=" M 1302.1182861328125 370 L 1302.1182861328125 380 L 1312.1182861328125 380 L 1302.1182861328125 370" stroke-miterlimit="10" stroke-dasharray=""/></g><g><g><path fill="none" stroke="none"/><text fill="#000000" stroke="none" font-family="Arial" font-size="13px" font-style="normal" font-weight="normal" text-decoration="undefined" x="1145.6710205078125" y="385" text-anchor="start" dominant-baseline="text-before-edge" transform="matrix(1 0 0 1 21 -10)">LLM输出包含情绪标签</text></g></g><g><g><path fill="none" stroke="none"/><text fill="#000000" stroke="none" font-family="Arial" font-size="13px" font-style="normal" font-weight="normal" text-decoration="undefined" x="1145.6710205078125" y="400" text-anchor="start" dominant-baseline="text-before-edge" transform="matrix(1 0 0 1 21 -10)">        用于TTS情感合成</text></g></g><g><path fill="none" stroke="#000000" paint-order="fill stroke markers" d=" M 1269 321 Q 1237 345 1237 369" stroke-miterlimit="10" stroke-dasharray="3"/></g></g></svg>
