<svg version="1.1" xmlns="http://www.w3.org/2000/svg" xmlns:xlink="http://www.w3.org/1999/xlink" width="868.97900390625" height="1361"><defs/><g><g><path fill="#ffffff" stroke="none" paint-order="stroke fill markers" d=" M 388.45947265625 10 L 524.31201171875 10 Q 540.81201171875 10 540.81201171875 26.5 L 540.81201171875 26.5 Q 540.81201171875 43 524.31201171875 43 L 388.45947265625 43 Q 371.95947265625 43 371.95947265625 26.5 L 371.95947265625 26.5 Q 371.95947265625 10 388.45947265625 10 Z"/></g><g><path fill="none" stroke="#000000" paint-order="fill stroke markers" d=" M 388.45947265625 10 L 524.31201171875 10 Q 540.81201171875 10 540.81201171875 26.5 L 540.81201171875 26.5 Q 540.81201171875 43 524.31201171875 43 L 388.45947265625 43 Q 371.95947265625 43 371.95947265625 26.5 L 371.95947265625 26.5 Q 371.95947265625 10 388.45947265625 10 Z" stroke-miterlimit="10" stroke-dasharray=""/></g><g><g><path fill="none" stroke="none"/><text fill="#000000" stroke="none" font-family="Arial" font-size="13px" font-style="normal" font-weight="normal" text-decoration="undefined" x="466.3857421875" y="36.5" text-anchor="middle" dominant-baseline="central" transform="matrix(1 0 0 1 -10 -10)">项目启动&lt;br/&gt;2025-10-06</text></g></g><g><rect fill="#ffffff" stroke="none" x="373.31396484375" y="103" width="186.1435546875" height="46" transform="matrix(1 0 0 1 -10 -10)"/></g><g><path fill="none" stroke="#000000" paint-order="fill stroke markers" d=" M 363.31396484375 93 L 549.45751953125 93 L 549.45751953125 139 L 363.31396484375 139 L 363.31396484375 93 Z Z" stroke-miterlimit="10" stroke-dasharray=""/></g><g><g><path fill="none" stroke="none"/><text fill="#000000" stroke="none" font-family="Arial" font-size="13px" font-style="normal" font-weight="normal" text-decoration="undefined" x="466.3857421875" y="119.5" text-anchor="middle" dominant-baseline="central" transform="matrix(1 0 0 1 -10 -10)">P1:</text><text fill="#000000" stroke="none" font-family="Arial" font-size="13px" font-style="normal" font-weight="normal" text-decoration="undefined" x="466.3857421875" y="132.5" text-anchor="middle" dominant-baseline="central" transform="matrix(1 0 0 1 -10 -10)">基础设施与连接&lt;br/&gt;第1-2周</text></g></g><g><rect fill="#ffffff" stroke="none" x="20" y="205.5" width="103.5732421875" height="98" transform="matrix(1 0 0 1 -10 -10)"/></g><g><path fill="none" stroke="#000000" paint-order="fill stroke markers" d=" M 10 195.5 L 113.5732421875 195.5 L 113.5732421875 293.5 L 10 293.5 L 10 195.5 Z Z" stroke-miterlimit="10" stroke-dasharray=""/></g><g><g><path fill="none" stroke="none"/><text fill="#000000" stroke="none" font-family="Arial" font-size="13px" font-style="normal" font-weight="normal" text-decoration="undefined" x="71.78662109375" y="222" text-anchor="middle" dominant-baseline="central" transform="matrix(1 0 0 1 -10 -10)">Poetry +</text><text fill="#000000" stroke="none" font-family="Arial" font-size="13px" font-style="normal" font-weight="normal" text-decoration="undefined" x="71.78662109375" y="235" text-anchor="middle" dominant-baseline="central" transform="matrix(1 0 0 1 -10 -10)">CI/CD</text><text fill="#000000" stroke="none" font-family="Arial" font-size="13px" font-style="normal" font-weight="normal" text-decoration="undefined" x="71.78662109375" y="248" text-anchor="middle" dominant-baseline="central" transform="matrix(1 0 0 1 -10 -10)">配置&lt;br/&gt;Ruff,</text><text fill="#000000" stroke="none" font-family="Arial" font-size="13px" font-style="normal" font-weight="normal" text-decoration="undefined" x="71.78662109375" y="261" text-anchor="middle" dominant-baseline="central" transform="matrix(1 0 0 1 -10 -10)">MyPy,</text><text fill="#000000" stroke="none" font-family="Arial" font-size="13px" font-style="normal" font-weight="normal" text-decoration="undefined" x="71.78662109375" y="274" text-anchor="middle" dominant-baseline="central" transform="matrix(1 0 0 1 -10 -10)">Pre-commit</text></g></g><g><rect fill="#ffffff" stroke="none" x="173.5732421875" y="238" width="284.41796875" height="33" transform="matrix(1 0 0 1 -10 -10)"/></g><g><path fill="none" stroke="#000000" paint-order="fill stroke markers" d=" M 163.5732421875 228 L 447.9912109375 228 L 447.9912109375 261 L 163.5732421875 261 L 163.5732421875 228 Z Z" stroke-miterlimit="10" stroke-dasharray=""/></g><g><g><path fill="none" stroke="none"/><text fill="#000000" stroke="none" font-family="Arial" font-size="13px" font-style="normal" font-weight="normal" text-decoration="undefined" x="315.7822265625" y="254.5" text-anchor="middle" dominant-baseline="central" transform="matrix(1 0 0 1 -10 -10)">六边形架构骨架&lt;br/&gt;Core/Adapters/Contracts</text></g></g><g><rect fill="#ffffff" stroke="none" x="507.9912109375" y="199" width="176.80615234375" height="111" transform="matrix(1 0 0 1 -10 -10)"/></g><g><path fill="none" stroke="#000000" paint-order="fill stroke markers" d=" M 497.9912109375 189 L 674.79736328125 189 L 674.79736328125 300 L 497.9912109375 300 L 497.9912109375 189 Z Z" stroke-miterlimit="10" stroke-dasharray=""/></g><g><g><path fill="none" stroke="none"/><text fill="#000000" stroke="none" font-family="Arial" font-size="13px" font-style="normal" font-weight="normal" text-decoration="undefined" x="596.394287109375" y="222" text-anchor="middle" dominant-baseline="central" transform="matrix(1 0 0 1 -10 -10)">Pydantic Settings + Docker</text><text fill="#000000" stroke="none" font-family="Arial" font-size="13px" font-style="normal" font-weight="normal" text-decoration="undefined" x="596.394287109375" y="235" text-anchor="middle" dominant-baseline="central" transform="matrix(1 0 0 1 -10 -10)">Compose&lt;br/&gt;PostgreSQL</text><text fill="#000000" stroke="none" font-family="Arial" font-size="13px" font-style="normal" font-weight="normal" text-decoration="undefined" x="596.394287109375" y="248" text-anchor="middle" dominant-baseline="central" transform="matrix(1 0 0 1 -10 -10)">+ Redis</text></g></g><g><rect fill="#ffffff" stroke="none" x="734.79736328125" y="231.5" width="134.181640625" height="46" transform="matrix(1 0 0 1 -10 -10)"/></g><g><path fill="none" stroke="#000000" paint-order="fill stroke markers" d=" M 724.79736328125 221.5 L 858.97900390625 221.5 L 858.97900390625 267.5 L 724.79736328125 267.5 L 724.79736328125 221.5 Z Z" stroke-miterlimit="10" stroke-dasharray=""/></g><g><g><path fill="none" stroke="none"/><text fill="#000000" stroke="none" font-family="Arial" font-size="13px" font-style="normal" font-weight="normal" text-decoration="undefined" x="801.88818359375" y="248" text-anchor="middle" dominant-baseline="central" transform="matrix(1 0 0 1 -10 -10)">llm_debug_wrapper</text><text fill="#000000" stroke="none" font-family="Arial" font-size="13px" font-style="normal" font-weight="normal" text-decoration="undefined" x="801.88818359375" y="261" text-anchor="middle" dominant-baseline="central" transform="matrix(1 0 0 1 -10 -10)">实现</text></g></g><g><rect fill="#ffffff" stroke="none" x="354.0631103515625" y="360" width="186.1435546875" height="46" transform="matrix(1 0 0 1 -10 -10)"/></g><g><path fill="none" stroke="#000000" paint-order="fill stroke markers" d=" M 344.0631103515625 350 L 530.2066650390625 350 L 530.2066650390625 396 L 344.0631103515625 396 L 344.0631103515625 350 Z Z" stroke-miterlimit="10" stroke-dasharray=""/></g><g><g><path fill="none" stroke="none"/><text fill="#000000" stroke="none" font-family="Arial" font-size="13px" font-style="normal" font-weight="normal" text-decoration="undefined" x="447.1348876953125" y="376.5" text-anchor="middle" dominant-baseline="central" transform="matrix(1 0 0 1 -10 -10)">P2:</text><text fill="#000000" stroke="none" font-family="Arial" font-size="13px" font-style="normal" font-weight="normal" text-decoration="undefined" x="447.1348876953125" y="389.5" text-anchor="middle" dominant-baseline="central" transform="matrix(1 0 0 1 -10 -10)">数据处理与实时&lt;br/&gt;第3-4周</text></g></g><g><rect fill="#ffffff" stroke="none" x="137.7686767578125" y="469" width="189.03173828125" height="46" transform="matrix(1 0 0 1 -10 -10)"/></g><g><path fill="none" stroke="#000000" paint-order="fill stroke markers" d=" M 127.7686767578125 459 L 316.8004150390625 459 L 316.8004150390625 505 L 127.7686767578125 505 L 127.7686767578125 459 Z Z" stroke-miterlimit="10" stroke-dasharray=""/></g><g><g><path fill="none" stroke="none"/><text fill="#000000" stroke="none" font-family="Arial" font-size="13px" font-style="normal" font-weight="normal" text-decoration="undefined" x="232.2845458984375" y="485.5" text-anchor="middle" dominant-baseline="central" transform="matrix(1 0 0 1 -10 -10)">异步任务队列&lt;br/&gt;Celery/RQ</text><text fill="#000000" stroke="none" font-family="Arial" font-size="13px" font-style="normal" font-weight="normal" text-decoration="undefined" x="232.2845458984375" y="498.5" text-anchor="middle" dominant-baseline="central" transform="matrix(1 0 0 1 -10 -10)">配置</text></g></g><g><rect fill="#ffffff" stroke="none" x="376.8004150390625" y="456" width="140.6689453125" height="72" transform="matrix(1 0 0 1 -10 -10)"/></g><g><path fill="none" stroke="#000000" paint-order="fill stroke markers" d=" M 366.8004150390625 446 L 507.4693603515625 446 L 507.4693603515625 518 L 366.8004150390625 518 L 366.8004150390625 446 Z Z" stroke-miterlimit="10" stroke-dasharray=""/></g><g><g><path fill="none" stroke="none"/><text fill="#000000" stroke="none" font-family="Arial" font-size="13px" font-style="normal" font-weight="normal" text-decoration="undefined" x="447.1348876953125" y="472.5" text-anchor="middle" dominant-baseline="central" transform="matrix(1 0 0 1 -10 -10)">Match-V5 Timeline</text><text fill="#000000" stroke="none" font-family="Arial" font-size="13px" font-style="normal" font-weight="normal" text-decoration="undefined" x="447.1348876953125" y="485.5" text-anchor="middle" dominant-baseline="central" transform="matrix(1 0 0 1 -10 -10)">抓取&lt;br/&gt;Cassiopeia</text><text fill="#000000" stroke="none" font-family="Arial" font-size="13px" font-style="normal" font-weight="normal" text-decoration="undefined" x="447.1348876953125" y="498.5" text-anchor="middle" dominant-baseline="central" transform="matrix(1 0 0 1 -10 -10)">集成</text></g></g><g><rect fill="#ffffff" stroke="none" x="567.4693603515625" y="475.5" width="180.3544921875" height="33" transform="matrix(1 0 0 1 -10 -10)"/></g><g><path fill="none" stroke="#000000" paint-order="fill stroke markers" d=" M 557.4693603515625 465.5 L 737.8238525390625 465.5 L 737.8238525390625 498.5 L 557.4693603515625 498.5 L 557.4693603515625 465.5 Z Z" stroke-miterlimit="10" stroke-dasharray=""/></g><g><g><path fill="none" stroke="none"/><text fill="#000000" stroke="none" font-family="Arial" font-size="13px" font-style="normal" font-weight="normal" text-decoration="undefined" x="657.6466064453125" y="492" text-anchor="middle" dominant-baseline="central" transform="matrix(1 0 0 1 -10 -10)">实时比赛监控&lt;br/&gt;轮询逻辑</text></g></g><g><rect fill="#ffffff" stroke="none" x="364.893798828125" y="578" width="160.1435546875" height="46" transform="matrix(1 0 0 1 -10 -10)"/></g><g><path fill="none" stroke="#000000" paint-order="fill stroke markers" d=" M 354.893798828125 568 L 515.037353515625 568 L 515.037353515625 614 L 354.893798828125 614 L 354.893798828125 568 Z Z" stroke-miterlimit="10" stroke-dasharray=""/></g><g><g><path fill="none" stroke="none"/><text fill="#000000" stroke="none" font-family="Arial" font-size="13px" font-style="normal" font-weight="normal" text-decoration="undefined" x="444.965576171875" y="594.5" text-anchor="middle" dominant-baseline="central" transform="matrix(1 0 0 1 -10 -10)">P3:</text><text fill="#000000" stroke="none" font-family="Arial" font-size="13px" font-style="normal" font-weight="normal" text-decoration="undefined" x="444.965576171875" y="607.5" text-anchor="middle" dominant-baseline="central" transform="matrix(1 0 0 1 -10 -10)">评分与社区&lt;br/&gt;第5-6周</text></g></g><g><rect fill="#ffffff" stroke="none" x="139.884033203125" y="680.5" width="209.96630859375" height="46" transform="matrix(1 0 0 1 -10 -10)"/></g><g><path fill="none" stroke="#000000" paint-order="fill stroke markers" d=" M 129.884033203125 670.5 L 339.850341796875 670.5 L 339.850341796875 716.5 L 129.884033203125 716.5 L 129.884033203125 670.5 Z Z" stroke-miterlimit="10" stroke-dasharray=""/></g><g><g><path fill="none" stroke="none"/><text fill="#000000" stroke="none" font-family="Arial" font-size="13px" font-style="normal" font-weight="normal" text-decoration="undefined" x="244.8671875" y="697" text-anchor="middle" dominant-baseline="central" transform="matrix(1 0 0 1 -10 -10)">RBAC</text><text fill="#000000" stroke="none" font-family="Arial" font-size="13px" font-style="normal" font-weight="normal" text-decoration="undefined" x="244.8671875" y="710" text-anchor="middle" dominant-baseline="central" transform="matrix(1 0 0 1 -10 -10)">权限系统&lt;br/&gt;管理员/赞助商检查</text></g></g><g><rect fill="#ffffff" stroke="none" x="399.850341796875" y="674" width="129.814453125" height="59" transform="matrix(1 0 0 1 -10 -10)"/></g><g><path fill="none" stroke="#000000" paint-order="fill stroke markers" d=" M 389.850341796875 664 L 519.664794921875 664 L 519.664794921875 723 L 389.850341796875 723 L 389.850341796875 664 Z Z" stroke-miterlimit="10" stroke-dasharray=""/></g><g><g><path fill="none" stroke="none"/><text fill="#000000" stroke="none" font-family="Arial" font-size="13px" font-style="normal" font-weight="normal" text-decoration="undefined" x="464.757568359375" y="690.5" text-anchor="middle" dominant-baseline="central" transform="matrix(1 0 0 1 -10 -10)">V1</text><text fill="#000000" stroke="none" font-family="Arial" font-size="13px" font-style="normal" font-weight="normal" text-decoration="undefined" x="464.757568359375" y="703.5" text-anchor="middle" dominant-baseline="central" transform="matrix(1 0 0 1 -10 -10)">评分算法&lt;br/&gt;CLI4</text><text fill="#000000" stroke="none" font-family="Arial" font-size="13px" font-style="normal" font-weight="normal" text-decoration="undefined" x="464.757568359375" y="716.5" text-anchor="middle" dominant-baseline="central" transform="matrix(1 0 0 1 -10 -10)">实验室设计</text></g></g><g><rect fill="#ffffff" stroke="none" x="579.664794921875" y="680.5" width="183.96630859375" height="46" transform="matrix(1 0 0 1 -10 -10)"/></g><g><path fill="none" stroke="#000000" paint-order="fill stroke markers" d=" M 569.664794921875 670.5 L 753.631103515625 670.5 L 753.631103515625 716.5 L 569.664794921875 716.5 L 569.664794921875 670.5 Z Z" stroke-miterlimit="10" stroke-dasharray=""/></g><g><g><path fill="none" stroke="none"/><text fill="#000000" stroke="none" font-family="Arial" font-size="13px" font-style="normal" font-weight="normal" text-decoration="undefined" x="671.64794921875" y="697" text-anchor="middle" dominant-baseline="central" transform="matrix(1 0 0 1 -10 -10)">排行榜与通缉榜&lt;br/&gt;/排行榜</text><text fill="#000000" stroke="none" font-family="Arial" font-size="13px" font-style="normal" font-weight="normal" text-decoration="undefined" x="671.64794921875" y="710" text-anchor="middle" dominant-baseline="central" transform="matrix(1 0 0 1 -10 -10)">/通缉榜</text></g></g><g><rect fill="#ffffff" stroke="none" x="404.185791015625" y="783" width="121.1435546875" height="59" transform="matrix(1 0 0 1 -10 -10)"/></g><g><path fill="none" stroke="#000000" paint-order="fill stroke markers" d=" M 394.185791015625 773 L 515.329345703125 773 L 515.329345703125 832 L 394.185791015625 832 L 394.185791015625 773 Z Z" stroke-miterlimit="10" stroke-dasharray=""/></g><g><g><path fill="none" stroke="none"/><text fill="#000000" stroke="none" font-family="Arial" font-size="13px" font-style="normal" font-weight="normal" text-decoration="undefined" x="464.757568359375" y="799.5" text-anchor="middle" dominant-baseline="central" transform="matrix(1 0 0 1 -10 -10)">P4: AI</text><text fill="#000000" stroke="none" font-family="Arial" font-size="13px" font-style="normal" font-weight="normal" text-decoration="undefined" x="464.757568359375" y="812.5" text-anchor="middle" dominant-baseline="central" transform="matrix(1 0 0 1 -10 -10)">赋能&lt;br/&gt;第7-8周</text></g></g><g><rect fill="#ffffff" stroke="none" x="205.7869873046875" y="898.5" width="130.53173828125" height="59" transform="matrix(1 0 0 1 -10 -10)"/></g><g><path fill="none" stroke="#000000" paint-order="fill stroke markers" d=" M 195.7869873046875 888.5 L 326.3187255859375 888.5 L 326.3187255859375 947.5 L 195.7869873046875 947.5 L 195.7869873046875 888.5 Z Z" stroke-miterlimit="10" stroke-dasharray=""/></g><g><g><path fill="none" stroke="none"/><text fill="#000000" stroke="none" font-family="Arial" font-size="13px" font-style="normal" font-weight="normal" text-decoration="undefined" x="271.0528564453125" y="915" text-anchor="middle" dominant-baseline="central" transform="matrix(1 0 0 1 -10 -10)">LLM</text><text fill="#000000" stroke="none" font-family="Arial" font-size="13px" font-style="normal" font-weight="normal" text-decoration="undefined" x="271.0528564453125" y="928" text-anchor="middle" dominant-baseline="central" transform="matrix(1 0 0 1 -10 -10)">适配器&lt;br/&gt;Gemini</text><text fill="#000000" stroke="none" font-family="Arial" font-size="13px" font-style="normal" font-weight="normal" text-decoration="undefined" x="271.0528564453125" y="941" text-anchor="middle" dominant-baseline="central" transform="matrix(1 0 0 1 -10 -10)">集成</text></g></g><g><rect fill="#ffffff" stroke="none" x="386.3187255859375" y="892" width="144.96630859375" height="72" transform="matrix(1 0 0 1 -10 -10)"/></g><g><path fill="none" stroke="#000000" paint-order="fill stroke markers" d=" M 376.3187255859375 882 L 521.2850341796875 882 L 521.2850341796875 954 L 376.3187255859375 954 L 376.3187255859375 882 Z Z" stroke-miterlimit="10" stroke-dasharray=""/></g><g><g><path fill="none" stroke="none"/><text fill="#000000" stroke="none" font-family="Arial" font-size="13px" font-style="normal" font-weight="normal" text-decoration="undefined" x="458.8018798828125" y="908.5" text-anchor="middle" dominant-baseline="central" transform="matrix(1 0 0 1 -10 -10)">核心功能:</text><text fill="#000000" stroke="none" font-family="Arial" font-size="13px" font-style="normal" font-weight="normal" text-decoration="undefined" x="458.8018798828125" y="921.5" text-anchor="middle" dominant-baseline="central" transform="matrix(1 0 0 1 -10 -10)">/讲道理&lt;br/&gt;延迟回复</text><text fill="#000000" stroke="none" font-family="Arial" font-size="13px" font-style="normal" font-weight="normal" text-decoration="undefined" x="458.8018798828125" y="934.5" text-anchor="middle" dominant-baseline="central" transform="matrix(1 0 0 1 -10 -10)">+ 分析</text></g></g><g><rect fill="#ffffff" stroke="none" x="581.2850341796875" y="892" width="154.3544921875" height="72" transform="matrix(1 0 0 1 -10 -10)"/></g><g><path fill="none" stroke="#000000" paint-order="fill stroke markers" d=" M 571.2850341796875 882 L 725.6395263671875 882 L 725.6395263671875 954 L 571.2850341796875 954 L 571.2850341796875 882 Z Z" stroke-miterlimit="10" stroke-dasharray=""/></g><g><g><path fill="none" stroke="none"/><text fill="#000000" stroke="none" font-family="Arial" font-size="13px" font-style="normal" font-weight="normal" text-decoration="undefined" x="658.4622802734375" y="908.5" text-anchor="middle" dominant-baseline="central" transform="matrix(1 0 0 1 -10 -10)">TTS 适配器 +</text><text fill="#000000" stroke="none" font-family="Arial" font-size="13px" font-style="normal" font-weight="normal" text-decoration="undefined" x="658.4622802734375" y="921.5" text-anchor="middle" dominant-baseline="central" transform="matrix(1 0 0 1 -10 -10)">语音播放&lt;br/&gt;豆包集成</text></g></g><g><rect fill="#ffffff" stroke="none" x="355.6246337890625" y="1014" width="206.3544921875" height="33" transform="matrix(1 0 0 1 -10 -10)"/></g><g><path fill="none" stroke="#000000" paint-order="fill stroke markers" d=" M 345.6246337890625 1004 L 551.9791259765625 1004 L 551.9791259765625 1037 L 345.6246337890625 1037 L 345.6246337890625 1004 Z Z" stroke-miterlimit="10" stroke-dasharray=""/></g><g><g><path fill="none" stroke="none"/><text fill="#000000" stroke="none" font-family="Arial" font-size="13px" font-style="normal" font-weight="normal" text-decoration="undefined" x="458.8018798828125" y="1030.5" text-anchor="middle" dominant-baseline="central" transform="matrix(1 0 0 1 -10 -10)">赞助商自定义音频&lt;br/&gt;情感合成</text></g></g><g><rect fill="#ffffff" stroke="none" x="375.1151123046875" y="1097" width="167.37353515625" height="46" transform="matrix(1 0 0 1 -10 -10)"/></g><g><path fill="none" stroke="#000000" paint-order="fill stroke markers" d=" M 365.1151123046875 1087 L 532.4886474609375 1087 L 532.4886474609375 1133 L 365.1151123046875 1133 L 365.1151123046875 1087 Z Z" stroke-miterlimit="10" stroke-dasharray=""/></g><g><g><path fill="none" stroke="none"/><text fill="#000000" stroke="none" font-family="Arial" font-size="13px" font-style="normal" font-weight="normal" text-decoration="undefined" x="458.8018798828125" y="1113.5" text-anchor="middle" dominant-baseline="central" transform="matrix(1 0 0 1 -10 -10)">P5:</text><text fill="#000000" stroke="none" font-family="Arial" font-size="13px" font-style="normal" font-weight="normal" text-decoration="undefined" x="458.8018798828125" y="1126.5" text-anchor="middle" dominant-baseline="central" transform="matrix(1 0 0 1 -10 -10)">优化与探索&lt;br/&gt;第9-10周</text></g></g><g><rect fill="#ffffff" stroke="none" x="90.309814453125" y="1212.5" width="141.3544921875" height="46" transform="matrix(1 0 0 1 -10 -10)"/></g><g><path fill="none" stroke="#000000" paint-order="fill stroke markers" d=" M 80.309814453125 1202.5 L 221.664306640625 1202.5 L 221.664306640625 1248.5 L 80.309814453125 1248.5 L 80.309814453125 1202.5 Z Z" stroke-miterlimit="10" stroke-dasharray=""/></g><g><g><path fill="none" stroke="none"/><text fill="#000000" stroke="none" font-family="Arial" font-size="13px" font-style="normal" font-weight="normal" text-decoration="undefined" x="160.987060546875" y="1229" text-anchor="middle" dominant-baseline="central" transform="matrix(1 0 0 1 -10 -10)">i18n</text><text fill="#000000" stroke="none" font-family="Arial" font-size="13px" font-style="normal" font-weight="normal" text-decoration="undefined" x="160.987060546875" y="1242" text-anchor="middle" dominant-baseline="central" transform="matrix(1 0 0 1 -10 -10)">框架&lt;br/&gt;多语言支持</text></g></g><g><rect fill="#ffffff" stroke="none" x="281.664306640625" y="1206" width="148.5908203125" height="59" transform="matrix(1 0 0 1 -10 -10)"/></g><g><path fill="none" stroke="#000000" paint-order="fill stroke markers" d=" M 271.664306640625 1196 L 420.255126953125 1196 L 420.255126953125 1255 L 271.664306640625 1255 L 271.664306640625 1196 Z Z" stroke-miterlimit="10" stroke-dasharray=""/></g><g><g><path fill="none" stroke="none"/><text fill="#000000" stroke="none" font-family="Arial" font-size="13px" font-style="normal" font-weight="normal" text-decoration="undefined" x="355.959716796875" y="1222.5" text-anchor="middle" dominant-baseline="central" transform="matrix(1 0 0 1 -10 -10)">Docker</text><text fill="#000000" stroke="none" font-family="Arial" font-size="13px" font-style="normal" font-weight="normal" text-decoration="undefined" x="355.959716796875" y="1235.5" text-anchor="middle" dominant-baseline="central" transform="matrix(1 0 0 1 -10 -10)">生产部署&lt;br/&gt;Alembic</text><text fill="#000000" stroke="none" font-family="Arial" font-size="13px" font-style="normal" font-weight="normal" text-decoration="undefined" x="355.959716796875" y="1248.5" text-anchor="middle" dominant-baseline="central" transform="matrix(1 0 0 1 -10 -10)">迁移</text></g></g><g><rect fill="#ffffff" stroke="none" x="480.255126953125" y="1193" width="105.25537109375" height="85" transform="matrix(1 0 0 1 -10 -10)"/></g><g><path fill="none" stroke="#000000" paint-order="fill stroke markers" d=" M 470.255126953125 1183 L 575.510498046875 1183 L 575.510498046875 1268 L 470.255126953125 1268 L 470.255126953125 1183 Z Z" stroke-miterlimit="10" stroke-dasharray=""/></g><g><g><path fill="none" stroke="none"/><text fill="#000000" stroke="none" font-family="Arial" font-size="13px" font-style="normal" font-weight="normal" text-decoration="undefined" x="532.8828125" y="1209.5" text-anchor="middle" dominant-baseline="central" transform="matrix(1 0 0 1 -10 -10)">多区域 API</text><text fill="#000000" stroke="none" font-family="Arial" font-size="13px" font-style="normal" font-weight="normal" text-decoration="undefined" x="532.8828125" y="1222.5" text-anchor="middle" dominant-baseline="central" transform="matrix(1 0 0 1 -10 -10)">路由&lt;br/&gt;NA1,</text><text fill="#000000" stroke="none" font-family="Arial" font-size="13px" font-style="normal" font-weight="normal" text-decoration="undefined" x="532.8828125" y="1235.5" text-anchor="middle" dominant-baseline="central" transform="matrix(1 0 0 1 -10 -10)">EUW 等</text></g></g><g><rect fill="#ffffff" stroke="none" x="635.510498046875" y="1199.5" width="154.3544921875" height="72" transform="matrix(1 0 0 1 -10 -10)"/></g><g><path fill="none" stroke="#000000" paint-order="fill stroke markers" d=" M 625.510498046875 1189.5 L 779.864990234375 1189.5 L 779.864990234375 1261.5 L 625.510498046875 1261.5 L 625.510498046875 1189.5 Z Z" stroke-miterlimit="10" stroke-dasharray=""/></g><g><g><path fill="none" stroke="none"/><text fill="#000000" stroke="none" font-family="Arial" font-size="13px" font-style="normal" font-weight="normal" text-decoration="undefined" x="712.687744140625" y="1216" text-anchor="middle" dominant-baseline="central" transform="matrix(1 0 0 1 -10 -10)">E2E 测试 +</text><text fill="#000000" stroke="none" font-family="Arial" font-size="13px" font-style="normal" font-weight="normal" text-decoration="undefined" x="712.687744140625" y="1229" text-anchor="middle" dominant-baseline="central" transform="matrix(1 0 0 1 -10 -10)">压力测试&lt;br/&gt;性能分析</text></g></g><g><path fill="#ffffff" stroke="none" paint-order="stroke fill markers" d=" M 388.45947265625 1318 L 524.31201171875 1318 Q 540.81201171875 1318 540.81201171875 1334.5 L 540.81201171875 1334.5 Q 540.81201171875 1351 524.31201171875 1351 L 388.45947265625 1351 Q 371.95947265625 1351 371.95947265625 1334.5 L 371.95947265625 1334.5 Q 371.95947265625 1318 388.45947265625 1318 Z"/></g><g><path fill="none" stroke="#000000" paint-order="fill stroke markers" d=" M 388.45947265625 1318 L 524.31201171875 1318 Q 540.81201171875 1318 540.81201171875 1334.5 L 540.81201171875 1334.5 Q 540.81201171875 1351 524.31201171875 1351 L 388.45947265625 1351 Q 371.95947265625 1351 371.95947265625 1334.5 L 371.95947265625 1334.5 Q 371.95947265625 1318 388.45947265625 1318 Z" stroke-miterlimit="10" stroke-dasharray=""/></g><g><g><path fill="none" stroke="none"/><text fill="#000000" stroke="none" font-family="Arial" font-size="13px" font-style="normal" font-weight="normal" text-decoration="undefined" x="466.3857421875" y="1344.5" text-anchor="middle" dominant-baseline="central" transform="matrix(1 0 0 1 -10 -10)">项目完成&lt;br/&gt;2025-12-22</text></g></g><g><path fill="none" stroke="#000000" paint-order="fill stroke markers" d=" M 456 44 Q 456 68 456 92" stroke-miterlimit="10" stroke-dasharray=""/></g><g><path fill="#000000" stroke="none" paint-order="stroke fill markers" d=" M 451.790482243984 81.83732514237585 L 456 92 L 460.209517756016 81.83732514237585"/></g><g><path fill="none" stroke="#000000" paint-order="fill stroke markers" d=" M 451.790482243984 81.83732514237585 L 456 92 L 460.209517756016 81.83732514237585 L 451.790482243984 81.83732514237585" stroke-miterlimit="10" stroke-dasharray=""/></g><g><path fill="none" stroke="#000000" paint-order="fill stroke markers" d=" M 362 127 Q 62 164 62 195" stroke-miterlimit="10" stroke-dasharray=""/></g><g><path fill="#000000" stroke="none" paint-order="stroke fill markers" d=" M 57.790482243984016 184.83732514237585 L 62 195 L 66.20951775601598 184.83732514237585"/></g><g><path fill="none" stroke="#000000" paint-order="fill stroke markers" d=" M 57.790482243984016 184.83732514237585 L 62 195 L 66.20951775601598 184.83732514237585 L 57.790482243984016 184.83732514237585" stroke-miterlimit="10" stroke-dasharray=""/></g><g><path fill="none" stroke="#000000" paint-order="fill stroke markers" d=" M 381 140 Q 306 164 305 227" stroke-miterlimit="10" stroke-dasharray=""/></g><g><path fill="#000000" stroke="none" paint-order="stroke fill markers" d=" M 300.9523044249756 216.7717958305513 L 305 227 L 309.37027953829914 216.90541448314374"/></g><g><path fill="none" stroke="#000000" paint-order="fill stroke markers" d=" M 300.9523044249756 216.7717958305513 L 305 227 L 309.37027953829914 216.90541448314374 L 300.9523044249756 216.7717958305513" stroke-miterlimit="10" stroke-dasharray=""/></g><g><path fill="none" stroke="#000000" paint-order="fill stroke markers" d=" M 521 140 Q 586 164 586 188" stroke-miterlimit="10" stroke-dasharray=""/></g><g><path fill="#000000" stroke="none" paint-order="stroke fill markers" d=" M 581.790482243984 177.83732514237585 L 586 188 L 590.209517756016 177.83732514237585"/></g><g><path fill="none" stroke="#000000" paint-order="fill stroke markers" d=" M 581.790482243984 177.83732514237585 L 586 188 L 590.209517756016 177.83732514237585 L 581.790482243984 177.83732514237585" stroke-miterlimit="10" stroke-dasharray=""/></g><g><path fill="none" stroke="#000000" paint-order="fill stroke markers" d=" M 550 129 Q 792 164 791 221" stroke-miterlimit="10" stroke-dasharray=""/></g><g><path fill="#000000" stroke="none" paint-order="stroke fill markers" d=" M 786.9693950215545 210.76504892499574 L 791 221 L 795.387135197705 210.91272857720892"/></g><g><path fill="none" stroke="#000000" paint-order="fill stroke markers" d=" M 786.9693950215545 210.76504892499574 L 791 221 L 795.387135197705 210.91272857720892 L 786.9693950215545 210.76504892499574" stroke-miterlimit="10" stroke-dasharray=""/></g><g><path fill="none" stroke="#000000" paint-order="fill stroke markers" d=" M 62 295 Q 62 325 343 361" stroke-miterlimit="10" stroke-dasharray=""/></g><g><path fill="#000000" stroke="none" paint-order="stroke fill markers" d=" M 332.3847875628705 363.8839668712749 L 343 361 L 333.45463877057415 355.53318383336574"/></g><g><path fill="none" stroke="#000000" paint-order="fill stroke markers" d=" M 332.3847875628705 363.8839668712749 L 343 361 L 333.45463877057415 355.53318383336574 L 332.3847875628705 363.8839668712749" stroke-miterlimit="10" stroke-dasharray=""/></g><g><path fill="none" stroke="#000000" paint-order="fill stroke markers" d=" M 305 262 Q 306 325 372 349" stroke-miterlimit="10" stroke-dasharray=""/></g><g><path fill="#000000" stroke="none" paint-order="stroke fill markers" d=" M 361.0106115116948 349.4830534681629 L 372 349 L 363.8877584958123 341.57089926183966"/></g><g><path fill="none" stroke="#000000" paint-order="fill stroke markers" d=" M 361.0106115116948 349.4830534681629 L 372 349 L 363.8877584958123 341.57089926183966 L 361.0106115116948 349.4830534681629" stroke-miterlimit="10" stroke-dasharray=""/></g><g><path fill="none" stroke="#000000" paint-order="fill stroke markers" d=" M 586 301 Q 586 325 512 349" stroke-miterlimit="10" stroke-dasharray=""/></g><g><path fill="#000000" stroke="none" paint-order="stroke fill markers" d=" M 520.368312221926 341.8605777155036 L 512 349 L 522.9656242303319 349.8689564080884"/></g><g><path fill="none" stroke="#000000" paint-order="fill stroke markers" d=" M 520.368312221926 341.8605777155036 L 512 349 L 522.9656242303319 349.8689564080884 L 520.368312221926 341.8605777155036" stroke-miterlimit="10" stroke-dasharray=""/></g><g><path fill="none" stroke="#000000" paint-order="fill stroke markers" d=" M 791 269 Q 792 325 531 360" stroke-miterlimit="10" stroke-dasharray=""/></g><g><path fill="#000000" stroke="none" paint-order="stroke fill markers" d=" M 540.5130262746492 354.4771084477573 L 531 360 L 541.631999456759 362.82145132006156"/></g><g><path fill="none" stroke="#000000" paint-order="fill stroke markers" d=" M 540.5130262746492 354.4771084477573 L 531 360 L 541.631999456759 362.82145132006156 L 540.5130262746492 354.4771084477573" stroke-miterlimit="10" stroke-dasharray=""/></g><g><path fill="none" stroke="#000000" paint-order="fill stroke markers" d=" M 343 394 Q 222 421 222 458" stroke-miterlimit="10" stroke-dasharray=""/></g><g><path fill="#000000" stroke="none" paint-order="stroke fill markers" d=" M 217.790482243984 447.83732514237585 L 222 458 L 226.209517756016 447.83732514237585"/></g><g><path fill="none" stroke="#000000" paint-order="fill stroke markers" d=" M 217.790482243984 447.83732514237585 L 222 458 L 226.209517756016 447.83732514237585 L 217.790482243984 447.83732514237585" stroke-miterlimit="10" stroke-dasharray=""/></g><g><path fill="none" stroke="#000000" paint-order="fill stroke markers" d=" M 437 397 Q 437 421 437 445" stroke-miterlimit="10" stroke-dasharray=""/></g><g><path fill="#000000" stroke="none" paint-order="stroke fill markers" d=" M 432.790482243984 434.83732514237585 L 437 445 L 441.209517756016 434.83732514237585"/></g><g><path fill="none" stroke="#000000" paint-order="fill stroke markers" d=" M 432.790482243984 434.83732514237585 L 437 445 L 441.209517756016 434.83732514237585 L 432.790482243984 434.83732514237585" stroke-miterlimit="10" stroke-dasharray=""/></g><g><path fill="none" stroke="#000000" paint-order="fill stroke markers" d=" M 531 394 Q 648 421 647 465" stroke-miterlimit="10" stroke-dasharray=""/></g><g><path fill="#000000" stroke="none" paint-order="stroke fill markers" d=" M 643.0224792467553 454.7443026245161 L 647 465 L 651.4393412630723 454.93559494306874"/></g><g><path fill="none" stroke="#000000" paint-order="fill stroke markers" d=" M 643.0224792467553 454.7443026245161 L 647 465 L 651.4393412630723 454.93559494306874 L 643.0224792467553 454.7443026245161" stroke-miterlimit="10" stroke-dasharray=""/></g><g><path fill="none" stroke="#000000" paint-order="fill stroke markers" d=" M 222 506 Q 222 543 354 573" stroke-miterlimit="10" stroke-dasharray=""/></g><g><path fill="#000000" stroke="none" paint-order="stroke fill markers" d=" M 343.1571238729393 574.8525758535662 L 354 573 L 345.0229598142705 566.6428977117088"/></g><g><path fill="none" stroke="#000000" paint-order="fill stroke markers" d=" M 343.1571238729393 574.8525758535662 L 354 573 L 345.0229598142705 566.6428977117088 L 343.1571238729393 574.8525758535662" stroke-miterlimit="10" stroke-dasharray=""/></g><g><path fill="none" stroke="#000000" paint-order="fill stroke markers" d=" M 437 519 Q 437 543 436 567" stroke-miterlimit="10" stroke-dasharray=""/></g><g><path fill="#000000" stroke="none" paint-order="stroke fill markers" d=" M 432.2172092782506 556.670890921505 L 436 567 L 440.6289461018608 557.0213799558221"/></g><g><path fill="none" stroke="#000000" paint-order="fill stroke markers" d=" M 432.2172092782506 556.670890921505 L 436 567 L 440.6289461018608 557.0213799558221 L 432.2172092782506 556.670890921505" stroke-miterlimit="10" stroke-dasharray=""/></g><g><path fill="none" stroke="#000000" paint-order="fill stroke markers" d=" M 647 500 Q 648 543 516 573" stroke-miterlimit="10" stroke-dasharray=""/></g><g><path fill="#000000" stroke="none" paint-order="stroke fill markers" d=" M 524.9770401857295 566.6428977117088 L 516 573 L 526.8428761270608 574.8525758535662"/></g><g><path fill="none" stroke="#000000" paint-order="fill stroke markers" d=" M 524.9770401857295 566.6428977117088 L 516 573 L 526.8428761270608 574.8525758535662 L 524.9770401857295 566.6428977117088" stroke-miterlimit="10" stroke-dasharray=""/></g><g><path fill="none" stroke="#000000" paint-order="fill stroke markers" d=" M 354 610 Q 235 639 234 670" stroke-miterlimit="10" stroke-dasharray=""/></g><g><path fill="#000000" stroke="none" paint-order="stroke fill markers" d=" M 230.12032849992457 659.7068882716885 L 234 670 L 238.53498707612027 659.9783288709207"/></g><g><path fill="none" stroke="#000000" paint-order="fill stroke markers" d=" M 230.12032849992457 659.7068882716885 L 234 670 L 238.53498707612027 659.9783288709207 L 230.12032849992457 659.7068882716885" stroke-miterlimit="10" stroke-dasharray=""/></g><g><path fill="none" stroke="#000000" paint-order="fill stroke markers" d=" M 445 615 Q 455 639 455 663" stroke-miterlimit="10" stroke-dasharray=""/></g><g><path fill="#000000" stroke="none" paint-order="stroke fill markers" d=" M 450.790482243984 652.8373251423759 L 455 663 L 459.209517756016 652.8373251423759"/></g><g><path fill="none" stroke="#000000" paint-order="fill stroke markers" d=" M 450.790482243984 652.8373251423759 L 455 663 L 459.209517756016 652.8373251423759 L 450.790482243984 652.8373251423759" stroke-miterlimit="10" stroke-dasharray=""/></g><g><path fill="none" stroke="#000000" paint-order="fill stroke markers" d=" M 516 608 Q 662 639 661 670" stroke-miterlimit="10" stroke-dasharray=""/></g><g><path fill="#000000" stroke="none" paint-order="stroke fill markers" d=" M 657.1203284999245 659.7068882716885 L 661 670 L 665.5349870761203 659.9783288709207"/></g><g><path fill="none" stroke="#000000" paint-order="fill stroke markers" d=" M 657.1203284999245 659.7068882716885 L 661 670 L 665.5349870761203 659.9783288709207 L 657.1203284999245 659.7068882716885" stroke-miterlimit="10" stroke-dasharray=""/></g><g><path fill="none" stroke="#000000" paint-order="fill stroke markers" d=" M 234 718 Q 235 748 393 787" stroke-miterlimit="10" stroke-dasharray=""/></g><g><path fill="#000000" stroke="none" paint-order="stroke fill markers" d=" M 382.1246731913235 788.6514438544746 L 393 787 L 384.1422355177172 780.4777298142127"/></g><g><path fill="none" stroke="#000000" paint-order="fill stroke markers" d=" M 382.1246731913235 788.6514438544746 L 393 787 L 384.1422355177172 780.4777298142127 L 382.1246731913235 788.6514438544746" stroke-miterlimit="10" stroke-dasharray=""/></g><g><path fill="none" stroke="#000000" paint-order="fill stroke markers" d=" M 455 724 Q 455 748 455 772" stroke-miterlimit="10" stroke-dasharray=""/></g><g><path fill="#000000" stroke="none" paint-order="stroke fill markers" d=" M 450.790482243984 761.8373251423759 L 455 772 L 459.209517756016 761.8373251423759"/></g><g><path fill="none" stroke="#000000" paint-order="fill stroke markers" d=" M 450.790482243984 761.8373251423759 L 455 772 L 459.209517756016 761.8373251423759 L 450.790482243984 761.8373251423759" stroke-miterlimit="10" stroke-dasharray=""/></g><g><path fill="none" stroke="#000000" paint-order="fill stroke markers" d=" M 661 718 Q 662 748 516 786" stroke-miterlimit="10" stroke-dasharray=""/></g><g><path fill="#000000" stroke="none" paint-order="stroke fill markers" d=" M 524.7747063481562 779.3664090792673 L 516 786 L 526.8953114853695 787.5139972380342"/></g><g><path fill="none" stroke="#000000" paint-order="fill stroke markers" d=" M 524.7747063481562 779.3664090792673 L 516 786 L 526.8953114853695 787.5139972380342 L 524.7747063481562 779.3664090792673" stroke-miterlimit="10" stroke-dasharray=""/></g><g><path fill="none" stroke="#000000" paint-order="fill stroke markers" d=" M 393 819 Q 261 857 261 888" stroke-miterlimit="10" stroke-dasharray=""/></g><g><path fill="#000000" stroke="none" paint-order="stroke fill markers" d=" M 256.790482243984 877.8373251423759 L 261 888 L 265.209517756016 877.8373251423759"/></g><g><path fill="none" stroke="#000000" paint-order="fill stroke markers" d=" M 256.790482243984 877.8373251423759 L 261 888 L 265.209517756016 877.8373251423759 L 256.790482243984 877.8373251423759" stroke-miterlimit="10" stroke-dasharray=""/></g><g><path fill="none" stroke="#000000" paint-order="fill stroke markers" d=" M 451 833 Q 449 857 449 881" stroke-miterlimit="10" stroke-dasharray=""/></g><g><path fill="#000000" stroke="none" paint-order="stroke fill markers" d=" M 444.790482243984 870.8373251423759 L 449 881 L 453.209517756016 870.8373251423759"/></g><g><path fill="none" stroke="#000000" paint-order="fill stroke markers" d=" M 444.790482243984 870.8373251423759 L 449 881 L 453.209517756016 870.8373251423759 L 444.790482243984 870.8373251423759" stroke-miterlimit="10" stroke-dasharray=""/></g><g><path fill="none" stroke="#000000" paint-order="fill stroke markers" d=" M 516 820 Q 648 857 648 881" stroke-miterlimit="10" stroke-dasharray=""/></g><g><path fill="#000000" stroke="none" paint-order="stroke fill markers" d=" M 643.790482243984 870.8373251423759 L 648 881 L 652.209517756016 870.8373251423759"/></g><g><path fill="none" stroke="#000000" paint-order="fill stroke markers" d=" M 643.790482243984 870.8373251423759 L 648 881 L 652.209517756016 870.8373251423759 L 643.790482243984 870.8373251423759" stroke-miterlimit="10" stroke-dasharray=""/></g><g><path fill="none" stroke="#000000" paint-order="fill stroke markers" d=" M 261 949 Q 261 979 370 1003" stroke-miterlimit="10" stroke-dasharray=""/></g><g><path fill="#000000" stroke="none" paint-order="stroke fill markers" d=" M 359.1698781575407 1004.9257364506822 L 370 1003 L 360.980246101065 996.703648707176"/></g><g><path fill="none" stroke="#000000" paint-order="fill stroke markers" d=" M 359.1698781575407 1004.9257364506822 L 370 1003 L 360.980246101065 996.703648707176 L 359.1698781575407 1004.9257364506822" stroke-miterlimit="10" stroke-dasharray=""/></g><g><path fill="none" stroke="#000000" paint-order="fill stroke markers" d=" M 449 955 Q 449 979 448 1003" stroke-miterlimit="10" stroke-dasharray=""/></g><g><path fill="#000000" stroke="none" paint-order="stroke fill markers" d=" M 444.2172092782506 992.670890921505 L 448 1003 L 452.6289461018608 993.0213799558221"/></g><g><path fill="none" stroke="#000000" paint-order="fill stroke markers" d=" M 444.2172092782506 992.670890921505 L 448 1003 L 452.6289461018608 993.0213799558221 L 444.2172092782506 992.670890921505" stroke-miterlimit="10" stroke-dasharray=""/></g><g><path fill="none" stroke="#000000" paint-order="fill stroke markers" d=" M 648 955 Q 648 979 531 1003" stroke-miterlimit="10" stroke-dasharray=""/></g><g><path fill="#000000" stroke="none" paint-order="stroke fill markers" d=" M 540.1095057953077 996.8342150406248 L 531 1003 L 541.8012616772323 1005.0815249650079"/></g><g><path fill="none" stroke="#000000" paint-order="fill stroke markers" d=" M 540.1095057953077 996.8342150406248 L 531 1003 L 541.8012616772323 1005.0815249650079 L 540.1095057953077 996.8342150406248" stroke-miterlimit="10" stroke-dasharray=""/></g><g><path fill="none" stroke="#000000" paint-order="fill stroke markers" d=" M 448 1038 Q 449 1062 449 1086" stroke-miterlimit="10" stroke-dasharray=""/></g><g><path fill="#000000" stroke="none" paint-order="stroke fill markers" d=" M 444.790482243984 1075.837325142376 L 449 1086 L 453.209517756016 1075.837325142376"/></g><g><path fill="none" stroke="#000000" paint-order="fill stroke markers" d=" M 444.790482243984 1075.837325142376 L 449 1086 L 453.209517756016 1075.837325142376 L 444.790482243984 1075.837325142376" stroke-miterlimit="10" stroke-dasharray=""/></g><g><path fill="none" stroke="#000000" paint-order="fill stroke markers" d=" M 364 1124 Q 151 1158 150 1202" stroke-miterlimit="10" stroke-dasharray=""/></g><g><path fill="#000000" stroke="none" paint-order="stroke fill markers" d=" M 146.02247924675535 1191.744302624516 L 150 1202 L 154.43934126307227 1191.9355949430687"/></g><g><path fill="none" stroke="#000000" paint-order="fill stroke markers" d=" M 146.02247924675535 1191.744302624516 L 150 1202 L 154.43934126307227 1191.9355949430687 L 146.02247924675535 1191.744302624516" stroke-miterlimit="10" stroke-dasharray=""/></g><g><path fill="none" stroke="#000000" paint-order="fill stroke markers" d=" M 397 1134 Q 346 1158 345 1195" stroke-miterlimit="10" stroke-dasharray=""/></g><g><path fill="#000000" stroke="none" paint-order="stroke fill markers" d=" M 341.06658547114057 1184.72730560446 L 345 1195 L 349.4825477815691 1184.9547640452824"/></g><g><path fill="none" stroke="#000000" paint-order="fill stroke markers" d=" M 341.06658547114057 1184.72730560446 L 345 1195 L 349.4825477815691 1184.9547640452824 L 341.06658547114057 1184.72730560446" stroke-miterlimit="10" stroke-dasharray=""/></g><g><path fill="none" stroke="#000000" paint-order="fill stroke markers" d=" M 486 1134 Q 523 1158 523 1182" stroke-miterlimit="10" stroke-dasharray=""/></g><g><path fill="#000000" stroke="none" paint-order="stroke fill markers" d=" M 518.790482243984 1171.837325142376 L 523 1182 L 527.209517756016 1171.837325142376"/></g><g><path fill="none" stroke="#000000" paint-order="fill stroke markers" d=" M 518.790482243984 1171.837325142376 L 523 1182 L 527.209517756016 1171.837325142376 L 518.790482243984 1171.837325142376" stroke-miterlimit="10" stroke-dasharray=""/></g><g><path fill="none" stroke="#000000" paint-order="fill stroke markers" d=" M 533 1126 Q 703 1158 703 1189" stroke-miterlimit="10" stroke-dasharray=""/></g><g><path fill="#000000" stroke="none" paint-order="stroke fill markers" d=" M 698.790482243984 1178.837325142376 L 703 1189 L 707.209517756016 1178.837325142376"/></g><g><path fill="none" stroke="#000000" paint-order="fill stroke markers" d=" M 698.790482243984 1178.837325142376 L 703 1189 L 707.209517756016 1178.837325142376 L 698.790482243984 1178.837325142376" stroke-miterlimit="10" stroke-dasharray=""/></g><g><path fill="none" stroke="#000000" paint-order="fill stroke markers" d=" M 150 1250 Q 151 1293 371 1323" stroke-miterlimit="10" stroke-dasharray=""/></g><g><path fill="#000000" stroke="none" paint-order="stroke fill markers" d=" M 360.3617537286436 1325.7978056169025 L 371 1323 L 361.4992765974378 1317.4559712457449"/></g><g><path fill="none" stroke="#000000" paint-order="fill stroke markers" d=" M 360.3617537286436 1325.7978056169025 L 371 1323 L 361.4992765974378 1317.4559712457449 L 360.3617537286436 1325.7978056169025" stroke-miterlimit="10" stroke-dasharray=""/></g><g><path fill="none" stroke="#000000" paint-order="fill stroke markers" d=" M 345 1256 Q 346 1293 410 1317" stroke-miterlimit="10" stroke-dasharray=""/></g><g><path fill="#000000" stroke="none" paint-order="stroke fill markers" d=" M 399.0063306467394 1317.3731409267 L 410 1317 L 401.96245137057895 1309.4901523297945"/></g><g><path fill="none" stroke="#000000" paint-order="fill stroke markers" d=" M 399.0063306467394 1317.3731409267 L 410 1317 L 401.96245137057895 1309.4901523297945 L 399.0063306467394 1317.3731409267" stroke-miterlimit="10" stroke-dasharray=""/></g><g><path fill="none" stroke="#000000" paint-order="fill stroke markers" d=" M 523 1269 Q 523 1293 484 1317" stroke-miterlimit="10" stroke-dasharray=""/></g><g><path fill="#000000" stroke="none" paint-order="stroke fill markers" d=" M 490.4489291432435 1308.0886974630291 L 484 1317 L 494.86132398167604 1315.258839075482"/></g><g><path fill="none" stroke="#000000" paint-order="fill stroke markers" d=" M 490.4489291432435 1308.0886974630291 L 484 1317 L 494.86132398167604 1315.258839075482 L 490.4489291432435 1308.0886974630291" stroke-miterlimit="10" stroke-dasharray=""/></g><g><path fill="none" stroke="#000000" paint-order="fill stroke markers" d=" M 703 1263 Q 703 1293 542 1320" stroke-miterlimit="10" stroke-dasharray=""/></g><g><path fill="#000000" stroke="none" paint-order="stroke fill markers" d=" M 551.326491519725 1314.1676286184352 L 542 1320 L 552.7189347525792 1322.4707160439734"/></g><g><path fill="none" stroke="#000000" paint-order="fill stroke markers" d=" M 551.326491519725 1314.1676286184352 L 542 1320 L 552.7189347525792 1322.4707160439734 L 551.326491519725 1314.1676286184352" stroke-miterlimit="10" stroke-dasharray=""/></g></g></svg>