<svg version="1.1" xmlns="http://www.w3.org/2000/svg" xmlns:xlink="http://www.w3.org/1999/xlink" width="1664.7835693359375" height="476"><defs/><g><g><rect fill="#ffffff" stroke="none" x="20" y="212" width="90.0654296875" height="33" transform="matrix(1 0 0 1 -10 -10)"/></g><g><path fill="none" stroke="#000000" paint-order="fill stroke markers" d=" M 10 202 L 100.0654296875 202 L 100.0654296875 235 L 10 235 L 10 202 Z Z" stroke-miterlimit="10" stroke-dasharray=""/></g><g><g><path fill="none" stroke="none"/><text fill="#000000" stroke="none" font-family="Arial" font-size="13px" font-style="normal" font-weight="normal" text-decoration="undefined" x="65.03271484375" y="228.5" text-anchor="middle" dominant-baseline="central" transform="matrix(1 0 0 1 -10 -10)">Discord用户</text></g></g><g><rect fill="#ffffff" stroke="none" x="122.2115478515625" y="308" width="103.0654296875" height="46" transform="matrix(1 0 0 1 -10 -10)"/></g><g><path fill="none" stroke="#000000" paint-order="fill stroke markers" d=" M 112.2115478515625 298 L 215.2769775390625 298 L 215.2769775390625 344 L 112.2115478515625 344 L 112.2115478515625 298 Z Z" stroke-miterlimit="10" stroke-dasharray=""/></g><g><g><path fill="none" stroke="none"/><text fill="#000000" stroke="none" font-family="Arial" font-size="13px" font-style="normal" font-weight="normal" text-decoration="undefined" x="173.7442626953125" y="324.5" text-anchor="middle" dominant-baseline="central" transform="matrix(1 0 0 1 -10 -10)">CLI1:</text><text fill="#000000" stroke="none" font-family="Arial" font-size="13px" font-style="normal" font-weight="normal" text-decoration="undefined" x="173.7442626953125" y="337.5" text-anchor="middle" dominant-baseline="central" transform="matrix(1 0 0 1 -10 -10)">Discord机器人</text></g></g><g><rect fill="#ffffff" stroke="none" x="129.5654296875" y="26.5" width="111" height="33" transform="matrix(1 0 0 1 -10 -10)"/></g><g><path fill="none" stroke="#000000" paint-order="fill stroke markers" d=" M 119.5654296875 16.5 L 230.5654296875 16.5 L 230.5654296875 49.5 L 119.5654296875 49.5 L 119.5654296875 16.5 Z Z" stroke-miterlimit="10" stroke-dasharray=""/></g><g><g><path fill="none" stroke="none"/><text fill="#000000" stroke="none" font-family="Arial" font-size="13px" font-style="normal" font-weight="normal" text-decoration="undefined" x="185.0654296875" y="43" text-anchor="middle" dominant-baseline="central" transform="matrix(1 0 0 1 -10 -10)">斜杠命令处理器</text></g></g><g><rect fill="#ffffff" stroke="none" x="669.60693359375" y="410.5" width="72" height="59" transform="matrix(1 0 0 1 -10 -10)"/></g><g><path fill="none" stroke="#000000" paint-order="fill stroke markers" d=" M 659.60693359375 400.5 L 731.60693359375 400.5 L 731.60693359375 459.5 L 659.60693359375 459.5 L 659.60693359375 400.5 Z Z" stroke-miterlimit="10" stroke-dasharray=""/></g><g><g><path fill="none" stroke="none"/><text fill="#000000" stroke="none" font-family="Arial" font-size="13px" font-style="normal" font-weight="normal" text-decoration="undefined" x="705.60693359375" y="427" text-anchor="middle" dominant-baseline="central" transform="matrix(1 0 0 1 -10 -10)">延迟回复</text><text fill="#000000" stroke="none" font-family="Arial" font-size="13px" font-style="normal" font-weight="normal" text-decoration="undefined" x="705.60693359375" y="440" text-anchor="middle" dominant-baseline="central" transform="matrix(1 0 0 1 -10 -10)">- 3秒</text></g></g><g><rect fill="#ffffff" stroke="none" x="476.6015625" y="116" width="105.236328125" height="33" transform="matrix(1 0 0 1 -10 -10)"/></g><g><path fill="none" stroke="#000000" paint-order="fill stroke markers" d=" M 466.6015625 106 L 571.837890625 106 L 571.837890625 139 L 466.6015625 139 L 466.6015625 106 Z Z" stroke-miterlimit="10" stroke-dasharray=""/></g><g><g><path fill="none" stroke="none"/><text fill="#000000" stroke="none" font-family="Arial" font-size="13px" font-style="normal" font-weight="normal" text-decoration="undefined" x="529.2197265625" y="132.5" text-anchor="middle" dominant-baseline="central" transform="matrix(1 0 0 1 -10 -10)">Redis任务队列</text></g></g><g><rect fill="#ffffff" stroke="none" x="950.298828125" y="199" width="61.6533203125" height="59" transform="matrix(1 0 0 1 -10 -10)"/></g><g><path fill="none" stroke="#000000" paint-order="fill stroke markers" d=" M 940.298828125 189 L 1001.9521484375 189 L 1001.9521484375 248 L 940.298828125 248 L 940.298828125 189 Z Z" stroke-miterlimit="10" stroke-dasharray=""/></g><g><g><path fill="none" stroke="none"/><text fill="#000000" stroke="none" font-family="Arial" font-size="13px" font-style="normal" font-weight="normal" text-decoration="undefined" x="981.12548828125" y="215.5" text-anchor="middle" dominant-baseline="central" transform="matrix(1 0 0 1 -10 -10)">CLI2:</text><text fill="#000000" stroke="none" font-family="Arial" font-size="13px" font-style="normal" font-weight="normal" text-decoration="undefined" x="981.12548828125" y="228.5" text-anchor="middle" dominant-baseline="central" transform="matrix(1 0 0 1 -10 -10)">Celery</text><text fill="#000000" stroke="none" font-family="Arial" font-size="13px" font-style="normal" font-weight="normal" text-decoration="undefined" x="981.12548828125" y="241.5" text-anchor="middle" dominant-baseline="central" transform="matrix(1 0 0 1 -10 -10)">Worker</text></g></g><g><rect fill="#ffffff" stroke="none" x="1249.0364990234375" y="308" width="174.62255859375" height="46" transform="matrix(1 0 0 1 -10 -10)"/></g><g><path fill="none" stroke="#000000" paint-order="fill stroke markers" d=" M 1239.0364990234375 298 L 1413.6590576171875 298 L 1413.6590576171875 344 L 1239.0364990234375 344 L 1239.0364990234375 298 Z Z" stroke-miterlimit="10" stroke-dasharray=""/></g><g><g><path fill="none" stroke="none"/><text fill="#000000" stroke="none" font-family="Arial" font-size="13px" font-style="normal" font-weight="normal" text-decoration="undefined" x="1336.3477783203125" y="324.5" text-anchor="middle" dominant-baseline="central" transform="matrix(1 0 0 1 -10 -10)">Riot</text><text fill="#000000" stroke="none" font-family="Arial" font-size="13px" font-style="normal" font-weight="normal" text-decoration="undefined" x="1336.3477783203125" y="337.5" text-anchor="middle" dominant-baseline="central" transform="matrix(1 0 0 1 -10 -10)">API适配器&lt;br/&gt;Cassiopeia</text></g></g><g><rect fill="#ffffff" stroke="none" x="1043.2156982421875" y="314.5" width="155.82080078125" height="33" transform="matrix(1 0 0 1 -10 -10)"/></g><g><path fill="none" stroke="#000000" paint-order="fill stroke markers" d=" M 1033.2156982421875 304.5 L 1189.0364990234375 304.5 L 1189.0364990234375 337.5 L 1033.2156982421875 337.5 L 1033.2156982421875 304.5 Z Z" stroke-miterlimit="10" stroke-dasharray=""/></g><g><g><path fill="none" stroke="none"/><text fill="#000000" stroke="none" font-family="Arial" font-size="13px" font-style="normal" font-weight="normal" text-decoration="undefined" x="1121.1260986328125" y="331" text-anchor="middle" dominant-baseline="central" transform="matrix(1 0 0 1 -10 -10)">LLM适配器&lt;br/&gt;Gemini</text></g></g><g><rect fill="#ffffff" stroke="none" x="853.3084716796875" y="314.5" width="139.9072265625" height="33" transform="matrix(1 0 0 1 -10 -10)"/></g><g><path fill="none" stroke="#000000" paint-order="fill stroke markers" d=" M 843.3084716796875 304.5 L 983.2156982421875 304.5 L 983.2156982421875 337.5 L 843.3084716796875 337.5 L 843.3084716796875 304.5 Z Z" stroke-miterlimit="10" stroke-dasharray=""/></g><g><g><path fill="none" stroke="none"/><text fill="#000000" stroke="none" font-family="Arial" font-size="13px" font-style="normal" font-weight="normal" text-decoration="undefined" x="923.2620849609375" y="331" text-anchor="middle" dominant-baseline="central" transform="matrix(1 0 0 1 -10 -10)">TTS适配器&lt;br/&gt;豆包</text></g></g><g><rect fill="#ffffff" stroke="none" x="1473.2908935546875" y="404" width="126.93896484375" height="72" transform="matrix(1 0 0 1 -10 -10)"/></g><g><path fill="none" stroke="#000000" paint-order="fill stroke markers" d=" M 1463.2908935546875 394 L 1590.2298583984375 394 L 1590.2298583984375 466 L 1463.2908935546875 466 L 1463.2908935546875 394 Z Z" stroke-miterlimit="10" stroke-dasharray=""/></g><g><g><path fill="none" stroke="none"/><text fill="#000000" stroke="none" font-family="Arial" font-size="13px" font-style="normal" font-weight="normal" text-decoration="undefined" x="1536.7603759765625" y="420.5" text-anchor="middle" dominant-baseline="central" transform="matrix(1 0 0 1 -10 -10)">Riot Games</text><text fill="#000000" stroke="none" font-family="Arial" font-size="13px" font-style="normal" font-weight="normal" text-decoration="undefined" x="1536.7603759765625" y="433.5" text-anchor="middle" dominant-baseline="central" transform="matrix(1 0 0 1 -10 -10)">API&lt;br/&gt;Match-V5</text><text fill="#000000" stroke="none" font-family="Arial" font-size="13px" font-style="normal" font-weight="normal" text-decoration="undefined" x="1536.7603759765625" y="446.5" text-anchor="middle" dominant-baseline="central" transform="matrix(1 0 0 1 -10 -10)">Timeline</text></g></g><g><rect fill="#ffffff" stroke="none" x="1249.4046630859375" y="423.5" width="173.88623046875" height="33" transform="matrix(1 0 0 1 -10 -10)"/></g><g><path fill="none" stroke="#000000" paint-order="fill stroke markers" d=" M 1239.4046630859375 413.5 L 1413.2908935546875 413.5 L 1413.2908935546875 446.5 L 1239.4046630859375 446.5 L 1239.4046630859375 413.5 Z Z" stroke-miterlimit="10" stroke-dasharray=""/></g><g><g><path fill="none" stroke="none"/><text fill="#000000" stroke="none" font-family="Arial" font-size="13px" font-style="normal" font-weight="normal" text-decoration="undefined" x="1336.3477783203125" y="440" text-anchor="middle" dominant-baseline="central" transform="matrix(1 0 0 1 -10 -10)">429处理器&lt;br/&gt;Retry-After</text></g></g><g><rect fill="#ffffff" stroke="none" x="1090.5374755859375" y="417" width="61.17724609375" height="46" transform="matrix(1 0 0 1 -10 -10)"/></g><g><path fill="none" stroke="#000000" paint-order="fill stroke markers" d=" M 1080.5374755859375 407 L 1141.7147216796875 407 L 1141.7147216796875 453 L 1080.5374755859375 453 L 1080.5374755859375 407 Z Z" stroke-miterlimit="10" stroke-dasharray=""/></g><g><g><path fill="none" stroke="none"/><text fill="#000000" stroke="none" font-family="Arial" font-size="13px" font-style="normal" font-weight="normal" text-decoration="undefined" x="1121.1260986328125" y="433.5" text-anchor="middle" dominant-baseline="central" transform="matrix(1 0 0 1 -10 -10)">Gemini</text><text fill="#000000" stroke="none" font-family="Arial" font-size="13px" font-style="normal" font-weight="normal" text-decoration="undefined" x="1121.1260986328125" y="446.5" text-anchor="middle" dominant-baseline="central" transform="matrix(1 0 0 1 -10 -10)">API</text></g></g><g><rect fill="#ffffff" stroke="none" x="900.2620849609375" y="410.5" width="46" height="59" transform="matrix(1 0 0 1 -10 -10)"/></g><g><path fill="none" stroke="#000000" paint-order="fill stroke markers" d=" M 890.2620849609375 400.5 L 936.2620849609375 400.5 L 936.2620849609375 459.5 L 890.2620849609375 459.5 L 890.2620849609375 400.5 Z Z" stroke-miterlimit="10" stroke-dasharray=""/></g><g><g><path fill="none" stroke="none"/><text fill="#000000" stroke="none" font-family="Arial" font-size="13px" font-style="normal" font-weight="normal" text-decoration="undefined" x="923.2620849609375" y="427" text-anchor="middle" dominant-baseline="central" transform="matrix(1 0 0 1 -10 -10)">豆包</text><text fill="#000000" stroke="none" font-family="Arial" font-size="13px" font-style="normal" font-weight="normal" text-decoration="undefined" x="923.2620849609375" y="440" text-anchor="middle" dominant-baseline="central" transform="matrix(1 0 0 1 -10 -10)">TTS</text><text fill="#000000" stroke="none" font-family="Arial" font-size="13px" font-style="normal" font-weight="normal" text-decoration="undefined" x="923.2620849609375" y="453" text-anchor="middle" dominant-baseline="central" transform="matrix(1 0 0 1 -10 -10)">API</text></g></g><g><path fill="#ffffff" stroke="#000000" paint-order="fill stroke markers" d=" M 620.1395263671875 308.5 C 620.1395263671875 306.2908608 658.904710859375 304.5 706.7239990234375 304.5 C 754.5432871875 304.5 793.3084716796875 306.2908608 793.3084716796875 308.5 L 793.3084716796875 333.5 C 793.3084716796875 335.7091392 754.5432871875 337.5 706.7239990234375 337.5 C 658.904710859375 337.5 620.1395263671875 335.7091392 620.1395263671875 333.5 L 620.1395263671875 308.5 Z" stroke-miterlimit="10" stroke-dasharray=""/></g><g><path fill="none" stroke="#000000" paint-order="fill stroke markers" d=" M 620.1395263671875 308.5 C 620.1395263671875 310.7091392 658.904710859375 312.5 706.7239990234375 312.5 C 754.5432871875 312.5 793.3084716796875 310.7091392 793.3084716796875 308.5" stroke-miterlimit="10" stroke-dasharray=""/></g><g><g><path fill="none" stroke="none"/><text fill="#000000" stroke="none" font-family="Arial" font-size="13px" font-style="normal" font-weight="normal" text-decoration="undefined" x="716.7239990234375" y="333" text-anchor="middle" dominant-baseline="central" transform="matrix(1 0 0 1 -10 -10)">PostgreSQL&lt;br/&gt;用户绑定</text></g></g><g><rect fill="#ffffff" stroke="none" x="409.254150390625" y="20" width="59" height="46" transform="matrix(1 0 0 1 -10 -10)"/></g><g><path fill="none" stroke="#000000" paint-order="fill stroke markers" d=" M 399.254150390625 10 L 458.254150390625 10 L 458.254150390625 56 L 399.254150390625 56 L 399.254150390625 10 Z Z" stroke-miterlimit="10" stroke-dasharray=""/></g><g><g><path fill="none" stroke="none"/><text fill="#000000" stroke="none" font-family="Arial" font-size="13px" font-style="normal" font-weight="normal" text-decoration="undefined" x="438.754150390625" y="36.5" text-anchor="middle" dominant-baseline="central" transform="matrix(1 0 0 1 -10 -10)">CLI3:</text><text fill="#000000" stroke="none" font-family="Arial" font-size="13px" font-style="normal" font-weight="normal" text-decoration="undefined" x="438.754150390625" y="49.5" text-anchor="middle" dominant-baseline="central" transform="matrix(1 0 0 1 -10 -10)">观察者</text></g></g><g><rect fill="#ffffff" stroke="none" x="210.0654296875" y="116" width="216.5361328125" height="33" transform="matrix(1 0 0 1 -10 -10)"/></g><g><path fill="none" stroke="#000000" paint-order="fill stroke markers" d=" M 200.0654296875 106 L 416.6015625 106 L 416.6015625 139 L 200.0654296875 139 L 200.0654296875 106 Z Z" stroke-miterlimit="10" stroke-dasharray=""/></g><g><g><path fill="none" stroke="none"/><text fill="#000000" stroke="none" font-family="Arial" font-size="13px" font-style="normal" font-weight="normal" text-decoration="undefined" x="318.33349609375" y="132.5" text-anchor="middle" dominant-baseline="central" transform="matrix(1 0 0 1 -10 -10)">llm_debug_wrapper&lt;br/&gt;性能指标</text></g></g><g><rect fill="#ffffff" stroke="none" x="1370.0096435546875" y="20" width="101.630859375" height="46" transform="matrix(1 0 0 1 -10 -10)"/></g><g><path fill="none" stroke="#000000" paint-order="fill stroke markers" d=" M 1360.0096435546875 10 L 1461.6405029296875 10 L 1461.6405029296875 56 L 1360.0096435546875 56 L 1360.0096435546875 10 Z Z" stroke-miterlimit="10" stroke-dasharray=""/></g><g><g><path fill="none" stroke="none"/><text fill="#000000" stroke="none" font-family="Arial" font-size="13px" font-style="normal" font-weight="normal" text-decoration="undefined" x="1420.8250732421875" y="36.5" text-anchor="middle" dominant-baseline="central" transform="matrix(1 0 0 1 -10 -10)">CLI4:</text><text fill="#000000" stroke="none" font-family="Arial" font-size="13px" font-style="normal" font-weight="normal" text-decoration="undefined" x="1420.8250732421875" y="49.5" text-anchor="middle" dominant-baseline="central" transform="matrix(1 0 0 1 -10 -10)">Jupyter实验室</text></g></g><g><rect fill="#ffffff" stroke="none" x="1497.4290771484375" y="116" width="167.3544921875" height="33" transform="matrix(1 0 0 1 -10 -10)"/></g><g><path fill="none" stroke="#000000" paint-order="fill stroke markers" d=" M 1487.4290771484375 106 L 1654.7835693359375 106 L 1654.7835693359375 139 L 1487.4290771484375 139 L 1487.4290771484375 106 Z Z" stroke-miterlimit="10" stroke-dasharray=""/></g><g><g><path fill="none" stroke="none"/><text fill="#000000" stroke="none" font-family="Arial" font-size="13px" font-style="normal" font-weight="normal" text-decoration="undefined" x="1581.1063232421875" y="132.5" text-anchor="middle" dominant-baseline="central" transform="matrix(1 0 0 1 -10 -10)">评分算法&lt;br/&gt;设计与测试</text></g></g><g><rect fill="#ffffff" stroke="none" x="1277.8846435546875" y="116" width="169.54443359375" height="33" transform="matrix(1 0 0 1 -10 -10)"/></g><g><path fill="none" stroke="#000000" paint-order="fill stroke markers" d=" M 1267.8846435546875 106 L 1437.4290771484375 106 L 1437.4290771484375 139 L 1267.8846435546875 139 L 1267.8846435546875 106 Z Z" stroke-miterlimit="10" stroke-dasharray=""/></g><g><g><path fill="none" stroke="none"/><text fill="#000000" stroke="none" font-family="Arial" font-size="13px" font-style="normal" font-weight="normal" text-decoration="undefined" x="1362.6568603515625" y="132.5" text-anchor="middle" dominant-baseline="central" transform="matrix(1 0 0 1 -10 -10)">Prompt工程&lt;br/&gt;LLM质量</text></g></g><g><rect fill="#ffffff" stroke="none" x="75.2579345703125" y="423.5" width="196.97265625" height="33" transform="matrix(1 0 0 1 -10 -10)"/></g><g><path fill="none" stroke="#000000" paint-order="fill stroke markers" d=" M 65.2579345703125 413.5 L 262.2305908203125 413.5 L 262.2305908203125 446.5 L 65.2579345703125 446.5 L 65.2579345703125 413.5 Z Z" stroke-miterlimit="10" stroke-dasharray=""/></g><g><g><path fill="none" stroke="none"/><text fill="#000000" stroke="none" font-family="Arial" font-size="13px" font-style="normal" font-weight="normal" text-decoration="undefined" x="173.7442626953125" y="440" text-anchor="middle" dominant-baseline="central" transform="matrix(1 0 0 1 -10 -10)">Discord语音频道&lt;br/&gt;TTS播放</text></g></g><g><path fill="none" stroke="#000000" paint-order="fill stroke markers" d=" M 55 236 Q 55 273 111 298" stroke-miterlimit="10" stroke-dasharray=""/></g><g><path fill="#000000" stroke="none" paint-order="stroke fill markers" d=" M 100.00406314979942 297.70104718365445 L 111 298 L 103.43609005141687 290.0133069240314"/></g><g><path fill="none" stroke="#000000" paint-order="fill stroke markers" d=" M 100.00406314979942 297.70104718365445 L 111 298 L 103.43609005141687 290.0133069240314 L 100.00406314979942 297.70104718365445" stroke-miterlimit="10" stroke-dasharray=""/></g><g><path fill="none" stroke="#000000" paint-order="fill stroke markers" d=" M 157 297 Q 150 273 150 246 Q 150 219 150 191.5 Q 150 164 150 143.5 Q 150 123 150 102 Q 150 81 166 51" stroke-miterlimit="10" stroke-dasharray=""/></g><g><path fill="#000000" stroke="none" paint-order="stroke fill markers" d=" M 164.93184514583803 61.94801558308765 L 166 51 L 157.50328439992748 57.98611651860202"/></g><g><path fill="none" stroke="#000000" paint-order="fill stroke markers" d=" M 164.93184514583803 61.94801558308765 L 166 51 L 157.50328439992748 57.98611651860202 L 164.93184514583803 61.94801558308765" stroke-miterlimit="10" stroke-dasharray=""/></g><g><path fill="none" stroke="#000000" paint-order="fill stroke markers" d=" M 216 326 Q 696 369 696 400" stroke-miterlimit="10" stroke-dasharray=""/></g><g><path fill="#000000" stroke="none" paint-order="stroke fill markers" d=" M 691.790482243984 389.83732514237585 L 696 400 L 700.209517756016 389.83732514237585"/></g><g><path fill="none" stroke="#000000" paint-order="fill stroke markers" d=" M 691.790482243984 389.83732514237585 L 696 400 L 700.209517756016 389.83732514237585 L 691.790482243984 389.83732514237585" stroke-miterlimit="10" stroke-dasharray=""/></g><g><path fill="none" stroke="#000000" paint-order="fill stroke markers" d=" M 195 51 Q 229 81 466 114" stroke-miterlimit="10" stroke-dasharray=""/></g><g><path fill="#000000" stroke="none" paint-order="stroke fill markers" d=" M 455.35389721461445 116.76776001181571 L 466 114 L 456.514966654193 108.42917040029673"/></g><g><path fill="none" stroke="#000000" paint-order="fill stroke markers" d=" M 455.35389721461445 116.76776001181571 L 466 114 L 456.514966654193 108.42917040029673 L 455.35389721461445 116.76776001181571" stroke-miterlimit="10" stroke-dasharray=""/></g><g><path fill="none" stroke="#000000" paint-order="fill stroke markers" d=" M 519 140 Q 519 164 939 214" stroke-miterlimit="10" stroke-dasharray=""/></g><g><path fill="#000000" stroke="none" paint-order="stroke fill markers" d=" M 928.4109637733831 216.97864260887303 L 939 214 L 929.4062022904639 208.61863906539446"/></g><g><path fill="none" stroke="#000000" paint-order="fill stroke markers" d=" M 928.4109637733831 216.97864260887303 L 939 214 L 929.4062022904639 208.61863906539446 L 928.4109637733831 216.97864260887303" stroke-miterlimit="10" stroke-dasharray=""/></g><g><path fill="none" stroke="#000000" paint-order="fill stroke markers" d=" M 1003 224 Q 1287 273 1307 297" stroke-miterlimit="10" stroke-dasharray=""/></g><g><path fill="#000000" stroke="none" paint-order="stroke fill markers" d=" M 1297.260172980272 291.88768451425597 L 1307 297 L 1303.7278552143011 286.49794931923185"/></g><g><path fill="none" stroke="#000000" paint-order="fill stroke markers" d=" M 1297.260172980272 291.88768451425597 L 1307 297 L 1303.7278552143011 286.49794931923185 L 1297.260172980272 291.88768451425597" stroke-miterlimit="10" stroke-dasharray=""/></g><g><path fill="none" stroke="#000000" paint-order="fill stroke markers" d=" M 1003 236 Q 1071 273 1096 304" stroke-miterlimit="10" stroke-dasharray=""/></g><g><path fill="#000000" stroke="none" paint-order="stroke fill markers" d=" M 1086.3436124362959 298.7317764645432 L 1096 304 L 1092.8970994586675 293.44670628521135"/></g><g><path fill="none" stroke="#000000" paint-order="fill stroke markers" d=" M 1086.3436124362959 298.7317764645432 L 1096 304 L 1092.8970994586675 293.44670628521135 L 1086.3436124362959 298.7317764645432" stroke-miterlimit="10" stroke-dasharray=""/></g><g><path fill="none" stroke="#000000" paint-order="fill stroke markers" d=" M 939 248 Q 913 273 913 304" stroke-miterlimit="10" stroke-dasharray=""/></g><g><path fill="#000000" stroke="none" paint-order="stroke fill markers" d=" M 908.790482243984 293.83732514237585 L 913 304 L 917.209517756016 293.83732514237585"/></g><g><path fill="none" stroke="#000000" paint-order="fill stroke markers" d=" M 908.790482243984 293.83732514237585 L 913 304 L 917.209517756016 293.83732514237585 L 908.790482243984 293.83732514237585" stroke-miterlimit="10" stroke-dasharray=""/></g><g><path fill="none" stroke="#000000" paint-order="fill stroke markers" d=" M 1415 342 Q 1527 369 1527 393" stroke-miterlimit="10" stroke-dasharray=""/></g><g><path fill="#000000" stroke="none" paint-order="stroke fill markers" d=" M 1522.7904822439841 382.83732514237585 L 1527 393 L 1531.2095177560159 382.83732514237585"/></g><g><path fill="none" stroke="#000000" paint-order="fill stroke markers" d=" M 1522.7904822439841 382.83732514237585 L 1527 393 L 1531.2095177560159 382.83732514237585 L 1522.7904822439841 382.83732514237585" stroke-miterlimit="10" stroke-dasharray=""/></g><g><path fill="none" stroke="#000000" paint-order="fill stroke markers" d=" M 1326 345 Q 1326 369 1326 413" stroke-miterlimit="10" stroke-dasharray=""/></g><g><path fill="#000000" stroke="none" paint-order="stroke fill markers" d=" M 1321.7904822439841 402.83732514237585 L 1326 413 L 1330.2095177560159 402.83732514237585"/></g><g><path fill="none" stroke="#000000" paint-order="fill stroke markers" d=" M 1321.7904822439841 402.83732514237585 L 1326 413 L 1330.2095177560159 402.83732514237585 L 1321.7904822439841 402.83732514237585" stroke-miterlimit="10" stroke-dasharray=""/></g><g><path fill="none" stroke="#000000" paint-order="fill stroke markers" d=" M 1111 339 Q 1111 369 1111 406" stroke-miterlimit="10" stroke-dasharray=""/></g><g><path fill="#000000" stroke="none" paint-order="stroke fill markers" d=" M 1106.7904822439841 395.83732514237585 L 1111 406 L 1115.2095177560159 395.83732514237585"/></g><g><path fill="none" stroke="#000000" paint-order="fill stroke markers" d=" M 1106.7904822439841 395.83732514237585 L 1111 406 L 1115.2095177560159 395.83732514237585 L 1106.7904822439841 395.83732514237585" stroke-miterlimit="10" stroke-dasharray=""/></g><g><path fill="none" stroke="#000000" paint-order="fill stroke markers" d=" M 913 339 Q 913 369 913 400" stroke-miterlimit="10" stroke-dasharray=""/></g><g><path fill="#000000" stroke="none" paint-order="stroke fill markers" d=" M 908.790482243984 389.83732514237585 L 913 400 L 917.209517756016 389.83732514237585"/></g><g><path fill="none" stroke="#000000" paint-order="fill stroke markers" d=" M 908.790482243984 389.83732514237585 L 913 400 L 917.209517756016 389.83732514237585 L 908.790482243984 389.83732514237585" stroke-miterlimit="10" stroke-dasharray=""/></g><g><path fill="none" stroke="#000000" paint-order="fill stroke markers" d=" M 939 229 Q 819 273 747 304" stroke-miterlimit="10" stroke-dasharray=""/></g><g><path fill="#000000" stroke="none" paint-order="stroke fill markers" d=" M 754.6695643940589 296.11471103856144 L 747 304 L 757.9989422880345 303.8474596955373"/></g><g><path fill="none" stroke="#000000" paint-order="fill stroke markers" d=" M 754.6695643940589 296.11471103856144 L 747 304 L 757.9989422880345 303.8474596955373 L 754.6695643940589 296.11471103856144" stroke-miterlimit="10" stroke-dasharray=""/></g><g><path fill="none" stroke="#000000" paint-order="fill stroke markers" d=" M 459 41 Q 622 81 622 102 Q 622 123 622 143.5 Q 622 164 622 191.5 Q 622 219 622 246 Q 622 273 675 304" stroke-miterlimit="10" stroke-dasharray=""/></g><g><path fill="#000000" stroke="none" paint-order="stroke fill markers" d=" M 664.1023897688955 302.50263857037595 L 675 304 L 668.3530203276324 295.23543148608377"/></g><g><path fill="none" stroke="#000000" paint-order="fill stroke markers" d=" M 664.1023897688955 302.50263857037595 L 675 304 L 668.3530203276324 295.23543148608377 L 664.1023897688955 302.50263857037595" stroke-miterlimit="10" stroke-dasharray=""/></g><g><path fill="none" stroke="#000000" paint-order="fill stroke markers" d=" M 459 49 Q 519 81 519 105" stroke-miterlimit="10" stroke-dasharray=""/></g><g><path fill="#000000" stroke="none" paint-order="stroke fill markers" d=" M 514.790482243984 94.83732514237585 L 519 105 L 523.209517756016 94.83732514237585"/></g><g><path fill="none" stroke="#000000" paint-order="fill stroke markers" d=" M 514.790482243984 94.83732514237585 L 519 105 L 523.209517756016 94.83732514237585 L 514.790482243984 94.83732514237585" stroke-miterlimit="10" stroke-dasharray=""/></g><g><path fill="none" stroke="#000000" paint-order="fill stroke markers" d=" M 398 45 Q 308 81 308 105" stroke-miterlimit="10" stroke-dasharray=""/></g><g><path fill="#000000" stroke="none" paint-order="stroke fill markers" d=" M 303.790482243984 94.83732514237585 L 308 105 L 312.209517756016 94.83732514237585"/></g><g><path fill="none" stroke="#000000" paint-order="fill stroke markers" d=" M 303.790482243984 94.83732514237585 L 308 105 L 312.209517756016 94.83732514237585 L 303.790482243984 94.83732514237585" stroke-miterlimit="10" stroke-dasharray=""/></g><g><path fill="none" stroke="#000000" paint-order="fill stroke markers" d=" M 1463 49 Q 1571 81 1571 105" stroke-miterlimit="10" stroke-dasharray=""/></g><g><path fill="#000000" stroke="none" paint-order="stroke fill markers" d=" M 1566.7904822439841 94.83732514237585 L 1571 105 L 1575.2095177560159 94.83732514237585"/></g><g><path fill="none" stroke="#000000" paint-order="fill stroke markers" d=" M 1566.7904822439841 94.83732514237585 L 1571 105 L 1575.2095177560159 94.83732514237585 L 1566.7904822439841 94.83732514237585" stroke-miterlimit="10" stroke-dasharray=""/></g><g><path fill="none" stroke="#000000" paint-order="fill stroke markers" d=" M 1382 57 Q 1353 81 1352 105" stroke-miterlimit="10" stroke-dasharray=""/></g><g><path fill="#000000" stroke="none" paint-order="stroke fill markers" d=" M 1348.2172092782507 94.67089092150505 L 1352 105 L 1356.6289461018607 95.02137995582214"/></g><g><path fill="none" stroke="#000000" paint-order="fill stroke markers" d=" M 1348.2172092782507 94.67089092150505 L 1352 105 L 1356.6289461018607 95.02137995582214 L 1348.2172092782507 94.67089092150505" stroke-miterlimit="10" stroke-dasharray=""/></g><g><path fill="none" stroke="#000000" paint-order="fill stroke markers" d=" M 1571 140 Q 1571 164 1003 215" stroke-miterlimit="10" stroke-dasharray=""/></g><g><path fill="#000000" stroke="none" paint-order="stroke fill markers" d=" M 1012.7455022544032 209.89851141239913 L 1003 215 L 1013.4984079045956 218.28381355571892"/></g><g><path fill="none" stroke="#000000" paint-order="fill stroke markers" d=" M 1012.7455022544032 209.89851141239913 L 1003 215 L 1013.4984079045956 218.28381355571892 L 1012.7455022544032 209.89851141239913" stroke-miterlimit="10" stroke-dasharray=""/></g><g><rect fill="#ffffff" stroke="none" x="1569" y="182" width="26" height="13" transform="matrix(1 0 0 1 -10 -10)"/></g><g><g><path fill="none" stroke="none"/><text fill="#000000" stroke="none" font-family="Arial" font-size="13px" font-style="normal" font-weight="normal" text-decoration="undefined" x="1582" y="188.5" text-anchor="middle" dominant-baseline="central" transform="matrix(1 0 0 1 -10 -10)">部署</text></g></g><g><path fill="none" stroke="#000000" paint-order="fill stroke markers" d=" M 1352 140 Q 1353 164 1353 191.5 Q 1353 219 1353 246 Q 1353 273 1190 305" stroke-miterlimit="10" stroke-dasharray=""/></g><g><path fill="#000000" stroke="none" paint-order="stroke fill markers" d=" M 1199.1613902276542 298.911574169242 L 1190 305 L 1200.7832483467507 307.17291396339016"/></g><g><path fill="none" stroke="#000000" paint-order="fill stroke markers" d=" M 1199.1613902276542 298.911574169242 L 1190 305 L 1200.7832483467507 307.17291396339016 L 1199.1613902276542 298.911574169242" stroke-miterlimit="10" stroke-dasharray=""/></g><g><rect fill="#ffffff" stroke="none" x="1364" y="222" width="26" height="13" transform="matrix(1 0 0 1 -10 -10)"/></g><g><g><path fill="none" stroke="none"/><text fill="#000000" stroke="none" font-family="Arial" font-size="13px" font-style="normal" font-weight="normal" text-decoration="undefined" x="1377" y="228.5" text-anchor="middle" dominant-baseline="central" transform="matrix(1 0 0 1 -10 -10)">优化</text></g></g><g><path fill="none" stroke="#000000" paint-order="fill stroke markers" d=" M 939 224 Q 700 273 216 316" stroke-miterlimit="10" stroke-dasharray=""/></g><g><path fill="#000000" stroke="none" paint-order="stroke fill markers" d=" M 225.75028454897725 310.90765759065874 L 216 316 L 226.49532217284928 319.2936624733112"/></g><g><path fill="none" stroke="#000000" paint-order="fill stroke markers" d=" M 225.75028454897725 310.90765759065874 L 216 316 L 226.49532217284928 319.2936624733112 L 225.75028454897725 310.90765759065874" stroke-miterlimit="10" stroke-dasharray=""/></g><g><path fill="none" stroke="#000000" paint-order="fill stroke markers" d=" M 164 345 Q 164 369 163 413" stroke-miterlimit="10" stroke-dasharray=""/></g><g><path fill="#000000" stroke="none" paint-order="stroke fill markers" d=" M 159.02247924675535 402.7443026245161 L 163 413 L 167.43934126307227 402.93559494306874"/></g><g><path fill="none" stroke="#000000" paint-order="fill stroke markers" d=" M 159.02247924675535 402.7443026245161 L 163 413 L 167.43934126307227 402.93559494306874 L 159.02247924675535 402.7443026245161" stroke-miterlimit="10" stroke-dasharray=""/></g></g></svg>