<svg version="1.1" xmlns="http://www.w3.org/2000/svg" xmlns:xlink="http://www.w3.org/1999/xlink" width="1733.50439453125" height="600"><defs/><g><g><path fill="#C0C0C0" stroke="none" paint-order="stroke fill markers" d=" M 173.431640625 397 C 173.431640625 391.477152 177.908792625 387 183.431640625 387 C 188.954488625 387 193.431640625 391.477152 193.431640625 397 C 193.431640625 402.522848 188.954488625 407 183.431640625 407 C 177.908792625 407 173.431640625 402.522848 173.431640625 397 Z" fill-opacity="0.2"/></g><g><path fill="#000000" stroke="none" paint-order="stroke fill markers" d=" M 166.431640625 390 C 166.431640625 384.477152 170.908792625 380 176.431640625 380 C 181.954488625 380 186.431640625 384.477152 186.431640625 390 C 186.431640625 395.522848 181.954488625 400 176.431640625 400 C 170.908792625 400 166.431640625 395.522848 166.431640625 390 Z"/></g><g><path fill="#C0C0C0" stroke="none" paint-order="stroke fill markers" d=" M 553.223388671875 467 L 594.525146484375 467 Q 604.525146484375 467 604.525146484375 477 L 604.525146484375 497 Q 604.525146484375 507 594.525146484375 507 L 553.223388671875 507 Q 543.223388671875 507 543.223388671875 497 L 543.223388671875 477 Q 543.223388671875 467 553.223388671875 467 Z" fill-opacity="0.2"/></g><g><path fill="#ffffff" stroke="none" paint-order="stroke fill markers" d=" M 546.223388671875 460 L 587.525146484375 460 Q 597.525146484375 460 597.525146484375 470 L 597.525146484375 490 Q 597.525146484375 500 587.525146484375 500 L 546.223388671875 500 Q 536.223388671875 500 536.223388671875 490 L 536.223388671875 470 Q 536.223388671875 460 546.223388671875 460 Z"/></g><g><path fill="none" stroke="#000000" paint-order="fill stroke markers" d=" M 546.223388671875 460 L 587.525146484375 460 Q 597.525146484375 460 597.525146484375 470 L 597.525146484375 490 Q 597.525146484375 500 587.525146484375 500 L 546.223388671875 500 Q 536.223388671875 500 536.223388671875 490 L 536.223388671875 470 Q 536.223388671875 460 546.223388671875 460 Z" stroke-miterlimit="10" stroke-dasharray=""/></g><g><g><path fill="none" stroke="none"/><text fill="#000000" stroke="none" font-family="Arial" font-size="13px" font-style="normal" font-weight="bold" text-decoration="undefined" x="556.374267578125" y="483.5" text-anchor="middle" dominant-baseline="central" transform="matrix(1 0 0 1 11 -10)">UserIdle</text></g></g><g><path fill="#C0C0C0" stroke="none" paint-order="stroke fill markers" d=" M 420.083984375 287 L 487.36669921875 287 Q 497.36669921875 287 497.36669921875 297 L 497.36669921875 317 Q 497.36669921875 327 487.36669921875 327 L 420.083984375 327 Q 410.083984375 327 410.083984375 317 L 410.083984375 297 Q 410.083984375 287 420.083984375 287 Z" fill-opacity="0.2"/></g><g><path fill="#ffffff" stroke="none" paint-order="stroke fill markers" d=" M 413.083984375 280 L 480.36669921875 280 Q 490.36669921875 280 490.36669921875 290 L 490.36669921875 310 Q 490.36669921875 320 480.36669921875 320 L 413.083984375 320 Q 403.083984375 320 403.083984375 310 L 403.083984375 290 Q 403.083984375 280 413.083984375 280 Z"/></g><g><path fill="none" stroke="#000000" paint-order="fill stroke markers" d=" M 413.083984375 280 L 480.36669921875 280 Q 490.36669921875 280 490.36669921875 290 L 490.36669921875 310 Q 490.36669921875 320 480.36669921875 320 L 413.083984375 320 Q 403.083984375 320 403.083984375 310 L 403.083984375 290 Q 403.083984375 280 413.083984375 280 Z" stroke-miterlimit="10" stroke-dasharray=""/></g><g><g><path fill="none" stroke="none"/><text fill="#000000" stroke="none" font-family="Arial" font-size="13px" font-style="normal" font-weight="bold" text-decoration="undefined" x="436.225341796875" y="303.5" text-anchor="middle" dominant-baseline="central" transform="matrix(1 0 0 1 11 -10)">UserBinding</text></g></g><g><path fill="#C0C0C0" stroke="none" paint-order="stroke fill markers" d=" M 278.987060546875 197 L 333.987060546875 197 Q 343.987060546875 197 343.987060546875 207 L 343.987060546875 227 Q 343.987060546875 237 333.987060546875 237 L 278.987060546875 237 Q 268.987060546875 237 268.987060546875 227 L 268.987060546875 207 Q 268.987060546875 197 278.987060546875 197 Z" fill-opacity="0.2"/></g><g><path fill="#ffffff" stroke="none" paint-order="stroke fill markers" d=" M 271.987060546875 190 L 326.987060546875 190 Q 336.987060546875 190 336.987060546875 200 L 336.987060546875 220 Q 336.987060546875 230 326.987060546875 230 L 271.987060546875 230 Q 261.987060546875 230 261.987060546875 220 L 261.987060546875 200 Q 261.987060546875 190 271.987060546875 190 Z"/></g><g><path fill="none" stroke="#000000" paint-order="fill stroke markers" d=" M 271.987060546875 190 L 326.987060546875 190 Q 336.987060546875 190 336.987060546875 200 L 336.987060546875 220 Q 336.987060546875 230 326.987060546875 230 L 271.987060546875 230 Q 261.987060546875 230 261.987060546875 220 L 261.987060546875 200 Q 261.987060546875 190 271.987060546875 190 Z" stroke-miterlimit="10" stroke-dasharray=""/></g><g><g><path fill="none" stroke="none"/><text fill="#000000" stroke="none" font-family="Arial" font-size="13px" font-style="normal" font-weight="bold" text-decoration="undefined" x="288.987060546875" y="213.5" text-anchor="middle" dominant-baseline="central" transform="matrix(1 0 0 1 11 -10)">RSO_Auth</text></g></g><g><path fill="#C0C0C0" stroke="none" paint-order="stroke fill markers" d=" M 454.4027099609375 377 L 514.4617919921875 377 Q 524.4617919921875 377 524.4617919921875 387 L 524.4617919921875 407 Q 524.4617919921875 417 514.4617919921875 417 L 454.4027099609375 417 Q 444.4027099609375 417 444.4027099609375 407 L 444.4027099609375 387 Q 444.4027099609375 377 454.4027099609375 377 Z" fill-opacity="0.2"/></g><g><path fill="#ffffff" stroke="none" paint-order="stroke fill markers" d=" M 447.4027099609375 370 L 507.4617919921875 370 Q 517.4617919921875 370 517.4617919921875 380 L 517.4617919921875 400 Q 517.4617919921875 410 507.4617919921875 410 L 447.4027099609375 410 Q 437.4027099609375 410 437.4027099609375 400 L 437.4027099609375 380 Q 437.4027099609375 370 447.4027099609375 370 Z"/></g><g><path fill="none" stroke="#000000" paint-order="fill stroke markers" d=" M 447.4027099609375 370 L 507.4617919921875 370 Q 517.4617919921875 370 517.4617919921875 380 L 517.4617919921875 400 Q 517.4617919921875 410 507.4617919921875 410 L 447.4027099609375 410 Q 437.4027099609375 410 437.4027099609375 400 L 437.4027099609375 380 Q 437.4027099609375 370 447.4027099609375 370 Z" stroke-miterlimit="10" stroke-dasharray=""/></g><g><g><path fill="none" stroke="none"/><text fill="#000000" stroke="none" font-family="Arial" font-size="13px" font-style="normal" font-weight="bold" text-decoration="undefined" x="466.9322509765625" y="393.5" text-anchor="middle" dominant-baseline="central" transform="matrix(1 0 0 1 11 -10)">UserBound</text></g></g><g><path fill="#C0C0C0" stroke="none" paint-order="stroke fill markers" d=" M 602.31396484375 197 L 712.9638671875 197 Q 722.9638671875 197 722.9638671875 207 L 722.9638671875 227 Q 722.9638671875 237 712.9638671875 237 L 602.31396484375 237 Q 592.31396484375 237 592.31396484375 227 L 592.31396484375 207 Q 592.31396484375 197 602.31396484375 197 Z" fill-opacity="0.2"/></g><g><path fill="#ffffff" stroke="none" paint-order="stroke fill markers" d=" M 595.31396484375 190 L 705.9638671875 190 Q 715.9638671875 190 715.9638671875 200 L 715.9638671875 220 Q 715.9638671875 230 705.9638671875 230 L 595.31396484375 230 Q 585.31396484375 230 585.31396484375 220 L 585.31396484375 200 Q 585.31396484375 190 595.31396484375 190 Z"/></g><g><path fill="none" stroke="#000000" paint-order="fill stroke markers" d=" M 595.31396484375 190 L 705.9638671875 190 Q 715.9638671875 190 715.9638671875 200 L 715.9638671875 220 Q 715.9638671875 230 705.9638671875 230 L 595.31396484375 230 Q 585.31396484375 230 585.31396484375 220 L 585.31396484375 200 Q 585.31396484375 190 595.31396484375 190 Z" stroke-miterlimit="10" stroke-dasharray=""/></g><g><g><path fill="none" stroke="none"/><text fill="#000000" stroke="none" font-family="Arial" font-size="13px" font-style="normal" font-weight="bold" text-decoration="undefined" x="640.138916015625" y="213.5" text-anchor="middle" dominant-baseline="central" transform="matrix(1 0 0 1 11 -10)">CommandReceived</text></g></g><g><path fill="#C0C0C0" stroke="none" paint-order="stroke fill markers" d=" M 282.865234375 307 C 282.865234375 301.477152 287.342386375 297 292.865234375 297 C 298.388082375 297 302.865234375 301.477152 302.865234375 307 C 302.865234375 312.522848 298.388082375 317 292.865234375 317 C 287.342386375 317 282.865234375 312.522848 282.865234375 307 Z" fill-opacity="0.2"/></g><g><path fill="#000000" stroke="none" paint-order="stroke fill markers" d=" M 275.865234375 300 C 275.865234375 294.477152 280.342386375 290 285.865234375 290 C 291.388082375 290 295.865234375 294.477152 295.865234375 300 C 295.865234375 305.522848 291.388082375 310 285.865234375 310 C 280.342386375 310 275.865234375 305.522848 275.865234375 300 Z"/></g><g><path fill="#C0C0C0" stroke="none" paint-order="stroke fill markers" d=" M 253.431640625 377 L 332.298828125 377 Q 342.298828125 377 342.298828125 387 L 342.298828125 407 Q 342.298828125 417 332.298828125 417 L 253.431640625 417 Q 243.431640625 417 243.431640625 407 L 243.431640625 387 Q 243.431640625 377 253.431640625 377 Z" fill-opacity="0.2"/></g><g><path fill="#ffffff" stroke="none" paint-order="stroke fill markers" d=" M 246.431640625 370 L 325.298828125 370 Q 335.298828125 370 335.298828125 380 L 335.298828125 400 Q 335.298828125 410 325.298828125 410 L 246.431640625 410 Q 236.431640625 410 236.431640625 400 L 236.431640625 380 Q 236.431640625 370 246.431640625 370 Z"/></g><g><path fill="none" stroke="#000000" paint-order="fill stroke markers" d=" M 246.431640625 370 L 325.298828125 370 Q 335.298828125 370 335.298828125 380 L 335.298828125 400 Q 335.298828125 410 325.298828125 410 L 246.431640625 410 Q 236.431640625 410 236.431640625 400 L 236.431640625 380 Q 236.431640625 370 246.431640625 370 Z" stroke-miterlimit="10" stroke-dasharray=""/></g><g><g><path fill="none" stroke="none"/><text fill="#000000" stroke="none" font-family="Arial" font-size="13px" font-style="normal" font-weight="bold" text-decoration="undefined" x="275.365234375" y="393.5" text-anchor="middle" dominant-baseline="central" transform="matrix(1 0 0 1 11 -10)">DeferredReply</text></g></g><g><path fill="#C0C0C0" stroke="none" paint-order="stroke fill markers" d=" M 249.7210693359375 467 L 331.2225341796875 467 Q 341.2225341796875 467 341.2225341796875 477 L 341.2225341796875 497 Q 341.2225341796875 507 331.2225341796875 507 L 249.7210693359375 507 Q 239.7210693359375 507 239.7210693359375 497 L 239.7210693359375 477 Q 239.7210693359375 467 249.7210693359375 467 Z" fill-opacity="0.2"/></g><g><path fill="#ffffff" stroke="none" paint-order="stroke fill markers" d=" M 242.7210693359375 460 L 324.2225341796875 460 Q 334.2225341796875 460 334.2225341796875 470 L 334.2225341796875 490 Q 334.2225341796875 500 324.2225341796875 500 L 242.7210693359375 500 Q 232.7210693359375 500 232.7210693359375 490 L 232.7210693359375 470 Q 232.7210693359375 460 242.7210693359375 460 Z"/></g><g><path fill="none" stroke="#000000" paint-order="fill stroke markers" d=" M 242.7210693359375 460 L 324.2225341796875 460 Q 334.2225341796875 460 334.2225341796875 470 L 334.2225341796875 490 Q 334.2225341796875 500 324.2225341796875 500 L 242.7210693359375 500 Q 232.7210693359375 500 232.7210693359375 490 L 232.7210693359375 470 Q 232.7210693359375 460 242.7210693359375 460 Z" stroke-miterlimit="10" stroke-dasharray=""/></g><g><g><path fill="none" stroke="none"/><text fill="#000000" stroke="none" font-family="Arial" font-size="13px" font-style="normal" font-weight="bold" text-decoration="undefined" x="272.9718017578125" y="483.5" text-anchor="middle" dominant-baseline="central" transform="matrix(1 0 0 1 11 -10)">TaskEnqueued</text></g></g><g><path fill="#C0C0C0" stroke="none" paint-order="stroke fill markers" d=" M 277.4718017578125 577 C 277.4718017578125 569.8202976 283.2920993578125 564 290.4718017578125 564 C 297.6515041578125 564 303.4718017578125 569.8202976 303.4718017578125 577 C 303.4718017578125 584.1797024 297.6515041578125 590 290.4718017578125 590 C 283.2920993578125 590 277.4718017578125 584.1797024 277.4718017578125 577 Z" fill-opacity="0.2"/></g><g><path fill="none" stroke="#000000" paint-order="fill stroke markers" d=" M 270.4718017578125 570 C 270.4718017578125 562.8202976 276.2920993578125 557 283.4718017578125 557 C 290.6515041578125 557 296.4718017578125 562.8202976 296.4718017578125 570 C 296.4718017578125 577.1797024 290.6515041578125 583 283.4718017578125 583 C 276.2920993578125 583 270.4718017578125 577.1797024 270.4718017578125 570 Z" stroke-miterlimit="10" stroke-dasharray=""/></g><g><path fill="#000000" stroke="none" paint-order="stroke fill markers" d=" M 275.4718017578125 570 C 275.4718017578125 565.5817216 279.0535233578125 562 283.4718017578125 562 C 287.8900801578125 562 291.4718017578125 565.5817216 291.4718017578125 570 C 291.4718017578125 574.4182784 287.8900801578125 578 283.4718017578125 578 C 279.0535233578125 578 275.4718017578125 574.4182784 275.4718017578125 570 Z"/></g><g><path fill="#C0C0C0" stroke="none" paint-order="stroke fill markers" d=" M 638.0767822265625 287 L 737.1802978515625 287 Q 747.1802978515625 287 747.1802978515625 297 L 747.1802978515625 317 Q 747.1802978515625 327 737.1802978515625 327 L 638.0767822265625 327 Q 628.0767822265625 327 628.0767822265625 317 L 628.0767822265625 297 Q 628.0767822265625 287 638.0767822265625 287 Z" fill-opacity="0.2"/></g><g><path fill="#ffffff" stroke="none" paint-order="stroke fill markers" d=" M 631.0767822265625 280 L 730.1802978515625 280 Q 740.1802978515625 280 740.1802978515625 290 L 740.1802978515625 310 Q 740.1802978515625 320 730.1802978515625 320 L 631.0767822265625 320 Q 621.0767822265625 320 621.0767822265625 310 L 621.0767822265625 290 Q 621.0767822265625 280 631.0767822265625 280 Z"/></g><g><path fill="none" stroke="#000000" paint-order="fill stroke markers" d=" M 631.0767822265625 280 L 730.1802978515625 280 Q 740.1802978515625 280 740.1802978515625 290 L 740.1802978515625 310 Q 740.1802978515625 320 730.1802978515625 320 L 631.0767822265625 320 Q 621.0767822265625 320 621.0767822265625 310 L 621.0767822265625 290 Q 621.0767822265625 280 631.0767822265625 280 Z" stroke-miterlimit="10" stroke-dasharray=""/></g><g><g><path fill="none" stroke="none"/><text fill="#000000" stroke="none" font-family="Arial" font-size="13px" font-style="normal" font-weight="bold" text-decoration="undefined" x="670.1285400390625" y="303.5" text-anchor="middle" dominant-baseline="central" transform="matrix(1 0 0 1 11 -10)">AsyncProcessing</text></g></g><g><path fill="#C0C0C0" stroke="none" paint-order="stroke fill markers" d=" M 776.1351318359375 37 C 776.1351318359375 31.477152000000004 780.6122838359375 27 786.1351318359375 27 C 791.6579798359375 27 796.1351318359375 31.477152000000004 796.1351318359375 37 C 796.1351318359375 42.522847999999996 791.6579798359375 47 786.1351318359375 47 C 780.6122838359375 47 776.1351318359375 42.522847999999996 776.1351318359375 37 Z" fill-opacity="0.2"/></g><g><path fill="#000000" stroke="none" paint-order="stroke fill markers" d=" M 769.1351318359375 30 C 769.1351318359375 24.477152000000004 773.6122838359375 20 779.1351318359375 20 C 784.6579798359375 20 789.1351318359375 24.477152000000004 789.1351318359375 30 C 789.1351318359375 35.522847999999996 784.6579798359375 40 779.1351318359375 40 C 773.6122838359375 40 769.1351318359375 35.522847999999996 769.1351318359375 30 Z"/></g><g><path fill="#C0C0C0" stroke="none" paint-order="stroke fill markers" d=" M 854.6112060546875 107 L 931.7835693359375 107 Q 941.7835693359375 107 941.7835693359375 117 L 941.7835693359375 137 Q 941.7835693359375 147 931.7835693359375 147 L 854.6112060546875 147 Q 844.6112060546875 147 844.6112060546875 137 L 844.6112060546875 117 Q 844.6112060546875 107 854.6112060546875 107 Z" fill-opacity="0.2"/></g><g><path fill="#ffffff" stroke="none" paint-order="stroke fill markers" d=" M 847.6112060546875 100 L 924.7835693359375 100 Q 934.7835693359375 100 934.7835693359375 110 L 934.7835693359375 130 Q 934.7835693359375 140 924.7835693359375 140 L 847.6112060546875 140 Q 837.6112060546875 140 837.6112060546875 130 L 837.6112060546875 110 Q 837.6112060546875 100 847.6112060546875 100 Z"/></g><g><path fill="none" stroke="#000000" paint-order="fill stroke markers" d=" M 847.6112060546875 100 L 924.7835693359375 100 Q 934.7835693359375 100 934.7835693359375 110 L 934.7835693359375 130 Q 934.7835693359375 140 924.7835693359375 140 L 847.6112060546875 140 Q 837.6112060546875 140 837.6112060546875 130 L 837.6112060546875 110 Q 837.6112060546875 100 847.6112060546875 100 Z" stroke-miterlimit="10" stroke-dasharray=""/></g><g><g><path fill="none" stroke="none"/><text fill="#000000" stroke="none" font-family="Arial" font-size="13px" font-style="normal" font-weight="bold" text-decoration="undefined" x="875.6973876953125" y="123.5" text-anchor="middle" dominant-baseline="central" transform="matrix(1 0 0 1 11 -10)">FetchTimeline</text></g></g><g><path fill="#C0C0C0" stroke="none" paint-order="stroke fill markers" d=" M 1001.7249755859375 17 L 1089.9739990234375 17 Q 1099.9739990234375 17 1099.9739990234375 27 L 1099.9739990234375 47 Q 1099.9739990234375 57 1089.9739990234375 57 L 1001.7249755859375 57 Q 991.7249755859375 57 991.7249755859375 47 L 991.7249755859375 27 Q 991.7249755859375 17 1001.7249755859375 17 Z" fill-opacity="0.2"/></g><g><path fill="#ffffff" stroke="none" paint-order="stroke fill markers" d=" M 994.7249755859375 10 L 1082.9739990234375 10 Q 1092.9739990234375 10 1092.9739990234375 20 L 1092.9739990234375 40 Q 1092.9739990234375 50 1082.9739990234375 50 L 994.7249755859375 50 Q 984.7249755859375 50 984.7249755859375 40 L 984.7249755859375 20 Q 984.7249755859375 10 994.7249755859375 10 Z"/></g><g><path fill="none" stroke="#000000" paint-order="fill stroke markers" d=" M 994.7249755859375 10 L 1082.9739990234375 10 Q 1092.9739990234375 10 1092.9739990234375 20 L 1092.9739990234375 40 Q 1092.9739990234375 50 1082.9739990234375 50 L 994.7249755859375 50 Q 984.7249755859375 50 984.7249755859375 40 L 984.7249755859375 20 Q 984.7249755859375 10 994.7249755859375 10 Z" stroke-miterlimit="10" stroke-dasharray=""/></g><g><g><path fill="none" stroke="none"/><text fill="#000000" stroke="none" font-family="Arial" font-size="13px" font-style="normal" font-weight="bold" text-decoration="undefined" x="1028.3494873046875" y="33.5" text-anchor="middle" dominant-baseline="central" transform="matrix(1 0 0 1 11 -10)">RateLimitCheck</text></g></g><g><path fill="#C0C0C0" stroke="none" paint-order="stroke fill markers" d=" M 1530.5767822265625 107 L 1596.4376220703125 107 Q 1606.4376220703125 107 1606.4376220703125 117 L 1606.4376220703125 137 Q 1606.4376220703125 147 1596.4376220703125 147 L 1530.5767822265625 147 Q 1520.5767822265625 147 1520.5767822265625 137 L 1520.5767822265625 117 Q 1520.5767822265625 107 1530.5767822265625 107 Z" fill-opacity="0.2"/></g><g><path fill="#ffffff" stroke="none" paint-order="stroke fill markers" d=" M 1523.5767822265625 100 L 1589.4376220703125 100 Q 1599.4376220703125 100 1599.4376220703125 110 L 1599.4376220703125 130 Q 1599.4376220703125 140 1589.4376220703125 140 L 1523.5767822265625 140 Q 1513.5767822265625 140 1513.5767822265625 130 L 1513.5767822265625 110 Q 1513.5767822265625 100 1523.5767822265625 100 Z"/></g><g><path fill="none" stroke="#000000" paint-order="fill stroke markers" d=" M 1523.5767822265625 100 L 1589.4376220703125 100 Q 1599.4376220703125 100 1599.4376220703125 110 L 1599.4376220703125 130 Q 1599.4376220703125 140 1589.4376220703125 140 L 1523.5767822265625 140 Q 1513.5767822265625 140 1513.5767822265625 130 L 1513.5767822265625 110 Q 1513.5767822265625 100 1523.5767822265625 100 Z" stroke-miterlimit="10" stroke-dasharray=""/></g><g><g><path fill="none" stroke="none"/><text fill="#000000" stroke="none" font-family="Arial" font-size="13px" font-style="normal" font-weight="bold" text-decoration="undefined" x="1546.0072021484375" y="123.5" text-anchor="middle" dominant-baseline="central" transform="matrix(1 0 0 1 11 -10)">DataParsing</text></g></g><g><path fill="#C0C0C0" stroke="none" paint-order="stroke fill markers" d=" M 1528.4154052734375 197 L 1598.5989990234375 197 Q 1608.5989990234375 197 1608.5989990234375 207 L 1608.5989990234375 227 Q 1608.5989990234375 237 1598.5989990234375 237 L 1528.4154052734375 237 Q 1518.4154052734375 237 1518.4154052734375 227 L 1518.4154052734375 207 Q 1518.4154052734375 197 1528.4154052734375 197 Z" fill-opacity="0.2"/></g><g><path fill="#ffffff" stroke="none" paint-order="stroke fill markers" d=" M 1521.4154052734375 190 L 1591.5989990234375 190 Q 1601.5989990234375 190 1601.5989990234375 200 L 1601.5989990234375 220 Q 1601.5989990234375 230 1591.5989990234375 230 L 1521.4154052734375 230 Q 1511.4154052734375 230 1511.4154052734375 220 L 1511.4154052734375 200 Q 1511.4154052734375 190 1521.4154052734375 190 Z"/></g><g><path fill="none" stroke="#000000" paint-order="fill stroke markers" d=" M 1521.4154052734375 190 L 1591.5989990234375 190 Q 1601.5989990234375 190 1601.5989990234375 200 L 1601.5989990234375 220 Q 1601.5989990234375 230 1591.5989990234375 230 L 1521.4154052734375 230 Q 1511.4154052734375 230 1511.4154052734375 220 L 1511.4154052734375 200 Q 1511.4154052734375 190 1521.4154052734375 190 Z" stroke-miterlimit="10" stroke-dasharray=""/></g><g><g><path fill="none" stroke="none"/><text fill="#000000" stroke="none" font-family="Arial" font-size="13px" font-style="normal" font-weight="bold" text-decoration="undefined" x="1546.0072021484375" y="213.5" text-anchor="middle" dominant-baseline="central" transform="matrix(1 0 0 1 11 -10)">LLMAnalysis</text></g></g><g><path fill="#C0C0C0" stroke="none" paint-order="stroke fill markers" d=" M 1517.7196044921875 287 L 1609.2947998046875 287 Q 1619.2947998046875 287 1619.2947998046875 297 L 1619.2947998046875 317 Q 1619.2947998046875 327 1609.2947998046875 327 L 1517.7196044921875 327 Q 1507.7196044921875 327 1507.7196044921875 317 L 1507.7196044921875 297 Q 1507.7196044921875 287 1517.7196044921875 287 Z" fill-opacity="0.2"/></g><g><path fill="#ffffff" stroke="none" paint-order="stroke fill markers" d=" M 1510.7196044921875 280 L 1602.2947998046875 280 Q 1612.2947998046875 280 1612.2947998046875 290 L 1612.2947998046875 310 Q 1612.2947998046875 320 1602.2947998046875 320 L 1510.7196044921875 320 Q 1500.7196044921875 320 1500.7196044921875 310 L 1500.7196044921875 290 Q 1500.7196044921875 280 1510.7196044921875 280 Z"/></g><g><path fill="none" stroke="#000000" paint-order="fill stroke markers" d=" M 1510.7196044921875 280 L 1602.2947998046875 280 Q 1612.2947998046875 280 1612.2947998046875 290 L 1612.2947998046875 310 Q 1612.2947998046875 320 1602.2947998046875 320 L 1510.7196044921875 320 Q 1500.7196044921875 320 1500.7196044921875 310 L 1500.7196044921875 290 Q 1500.7196044921875 280 1510.7196044921875 280 Z" stroke-miterlimit="10" stroke-dasharray=""/></g><g><g><path fill="none" stroke="none"/><text fill="#000000" stroke="none" font-family="Arial" font-size="13px" font-style="normal" font-weight="bold" text-decoration="undefined" x="1546.0072021484375" y="303.5" text-anchor="middle" dominant-baseline="central" transform="matrix(1 0 0 1 11 -10)">EmotionTagging</text></g></g><g><path fill="#C0C0C0" stroke="none" paint-order="stroke fill markers" d=" M 1625.0306396484375 377 L 1700.9969482421875 377 Q 1710.9969482421875 377 1710.9969482421875 387 L 1710.9969482421875 407 Q 1710.9969482421875 417 1700.9969482421875 417 L 1625.0306396484375 417 Q 1615.0306396484375 417 1615.0306396484375 407 L 1615.0306396484375 387 Q 1615.0306396484375 377 1625.0306396484375 377 Z" fill-opacity="0.2"/></g><g><path fill="#ffffff" stroke="none" paint-order="stroke fill markers" d=" M 1618.0306396484375 370 L 1693.9969482421875 370 Q 1703.9969482421875 370 1703.9969482421875 380 L 1703.9969482421875 400 Q 1703.9969482421875 410 1693.9969482421875 410 L 1618.0306396484375 410 Q 1608.0306396484375 410 1608.0306396484375 400 L 1608.0306396484375 380 Q 1608.0306396484375 370 1618.0306396484375 370 Z"/></g><g><path fill="none" stroke="#000000" paint-order="fill stroke markers" d=" M 1618.0306396484375 370 L 1693.9969482421875 370 Q 1703.9969482421875 370 1703.9969482421875 380 L 1703.9969482421875 400 Q 1703.9969482421875 410 1693.9969482421875 410 L 1618.0306396484375 410 Q 1608.0306396484375 410 1608.0306396484375 400 L 1608.0306396484375 380 Q 1608.0306396484375 370 1618.0306396484375 370 Z" stroke-miterlimit="10" stroke-dasharray=""/></g><g><g><path fill="none" stroke="none"/><text fill="#000000" stroke="none" font-family="Arial" font-size="13px" font-style="normal" font-weight="bold" text-decoration="undefined" x="1645.5137939453125" y="393.5" text-anchor="middle" dominant-baseline="central" transform="matrix(1 0 0 1 11 -10)">TTSSynthesis</text></g></g><g><path fill="#C0C0C0" stroke="none" paint-order="stroke fill markers" d=" M 1628.6392822265625 467 L 1697.3883056640625 467 Q 1707.3883056640625 467 1707.3883056640625 477 L 1707.3883056640625 497 Q 1707.3883056640625 507 1697.3883056640625 507 L 1628.6392822265625 507 Q 1618.6392822265625 507 1618.6392822265625 497 L 1618.6392822265625 477 Q 1618.6392822265625 467 1628.6392822265625 467 Z" fill-opacity="0.2"/></g><g><path fill="#ffffff" stroke="none" paint-order="stroke fill markers" d=" M 1621.6392822265625 460 L 1690.3883056640625 460 Q 1700.3883056640625 460 1700.3883056640625 470 L 1700.3883056640625 490 Q 1700.3883056640625 500 1690.3883056640625 500 L 1621.6392822265625 500 Q 1611.6392822265625 500 1611.6392822265625 490 L 1611.6392822265625 470 Q 1611.6392822265625 460 1621.6392822265625 460 Z"/></g><g><path fill="none" stroke="#000000" paint-order="fill stroke markers" d=" M 1621.6392822265625 460 L 1690.3883056640625 460 Q 1700.3883056640625 460 1700.3883056640625 470 L 1700.3883056640625 490 Q 1700.3883056640625 500 1690.3883056640625 500 L 1621.6392822265625 500 Q 1611.6392822265625 500 1611.6392822265625 490 L 1611.6392822265625 470 Q 1611.6392822265625 460 1621.6392822265625 460 Z" stroke-miterlimit="10" stroke-dasharray=""/></g><g><g><path fill="none" stroke="none"/><text fill="#000000" stroke="none" font-family="Arial" font-size="13px" font-style="normal" font-weight="bold" text-decoration="undefined" x="1645.5137939453125" y="483.5" text-anchor="middle" dominant-baseline="central" transform="matrix(1 0 0 1 11 -10)">ResultReady</text></g></g><g><path fill="#C0C0C0" stroke="none" paint-order="stroke fill markers" d=" M 1650.0137939453125 577 C 1650.0137939453125 569.8202976 1655.8340915453125 564 1663.0137939453125 564 C 1670.1934963453125 564 1676.0137939453125 569.8202976 1676.0137939453125 577 C 1676.0137939453125 584.1797024 1670.1934963453125 590 1663.0137939453125 590 C 1655.8340915453125 590 1650.0137939453125 584.1797024 1650.0137939453125 577 Z" fill-opacity="0.2"/></g><g><path fill="none" stroke="#000000" paint-order="fill stroke markers" d=" M 1643.0137939453125 570 C 1643.0137939453125 562.8202976 1648.8340915453125 557 1656.0137939453125 557 C 1663.1934963453125 557 1669.0137939453125 562.8202976 1669.0137939453125 570 C 1669.0137939453125 577.1797024 1663.1934963453125 583 1656.0137939453125 583 C 1648.8340915453125 583 1643.0137939453125 577.1797024 1643.0137939453125 570 Z" stroke-miterlimit="10" stroke-dasharray=""/></g><g><path fill="#000000" stroke="none" paint-order="stroke fill markers" d=" M 1648.0137939453125 570 C 1648.0137939453125 565.5817216 1651.5955155453125 562 1656.0137939453125 562 C 1660.4320723453125 562 1664.0137939453125 565.5817216 1664.0137939453125 570 C 1664.0137939453125 574.4182784 1660.4320723453125 578 1656.0137939453125 578 C 1651.5955155453125 578 1648.0137939453125 574.4182784 1648.0137939453125 570 Z"/></g><g><path fill="#C0C0C0" stroke="none" paint-order="stroke fill markers" d=" M 636.2677001953125 377 L 738.9893798828125 377 Q 748.9893798828125 377 748.9893798828125 387 L 748.9893798828125 407 Q 748.9893798828125 417 738.9893798828125 417 L 636.2677001953125 417 Q 626.2677001953125 417 626.2677001953125 407 L 626.2677001953125 387 Q 626.2677001953125 377 636.2677001953125 377 Z" fill-opacity="0.2"/></g><g><path fill="#ffffff" stroke="none" paint-order="stroke fill markers" d=" M 629.2677001953125 370 L 731.9893798828125 370 Q 741.9893798828125 370 741.9893798828125 380 L 741.9893798828125 400 Q 741.9893798828125 410 731.9893798828125 410 L 629.2677001953125 410 Q 619.2677001953125 410 619.2677001953125 400 L 619.2677001953125 380 Q 619.2677001953125 370 629.2677001953125 370 Z"/></g><g><path fill="none" stroke="#000000" paint-order="fill stroke markers" d=" M 629.2677001953125 370 L 731.9893798828125 370 Q 741.9893798828125 370 741.9893798828125 380 L 741.9893798828125 400 Q 741.9893798828125 410 731.9893798828125 410 L 629.2677001953125 410 Q 619.2677001953125 410 619.2677001953125 400 L 619.2677001953125 380 Q 619.2677001953125 370 629.2677001953125 370 Z" stroke-miterlimit="10" stroke-dasharray=""/></g><g><g><path fill="none" stroke="none"/><text fill="#000000" stroke="none" font-family="Arial" font-size="13px" font-style="normal" font-weight="bold" text-decoration="undefined" x="670.1285400390625" y="393.5" text-anchor="middle" dominant-baseline="central" transform="matrix(1 0 0 1 11 -10)">ResponseDelivery</text></g></g><g><path fill="#C0C0C0" stroke="none" paint-order="stroke fill markers" d=" M 1255.4124755859375 127 C 1255.4124755859375 121.47715199999999 1259.8896275859374 117 1265.4124755859375 117 C 1270.9353235859376 117 1275.4124755859375 121.47715199999999 1275.4124755859375 127 C 1275.4124755859375 132.522848 1270.9353235859376 137 1265.4124755859375 137 C 1259.8896275859374 137 1255.4124755859375 132.522848 1255.4124755859375 127 Z" fill-opacity="0.2"/></g><g><path fill="#000000" stroke="none" paint-order="stroke fill markers" d=" M 1248.4124755859375 120 C 1248.4124755859375 114.477152 1252.8896275859374 110 1258.4124755859375 110 C 1263.9353235859376 110 1268.4124755859375 114.477152 1268.4124755859375 120 C 1268.4124755859375 125.52284800000001 1263.9353235859376 130 1258.4124755859375 130 C 1252.8896275859374 130 1248.4124755859375 125.52284800000001 1248.4124755859375 120 Z"/></g><g><path fill="#C0C0C0" stroke="none" paint-order="stroke fill markers" d=" M 1223.5826416015625 197 L 1307.2423095703125 197 Q 1317.2423095703125 197 1317.2423095703125 207 L 1317.2423095703125 227 Q 1317.2423095703125 237 1307.2423095703125 237 L 1223.5826416015625 237 Q 1213.5826416015625 237 1213.5826416015625 227 L 1213.5826416015625 207 Q 1213.5826416015625 197 1223.5826416015625 197 Z" fill-opacity="0.2"/></g><g><path fill="#ffffff" stroke="none" paint-order="stroke fill markers" d=" M 1216.5826416015625 190 L 1300.2423095703125 190 Q 1310.2423095703125 190 1310.2423095703125 200 L 1310.2423095703125 220 Q 1310.2423095703125 230 1300.2423095703125 230 L 1216.5826416015625 230 Q 1206.5826416015625 230 1206.5826416015625 220 L 1206.5826416015625 200 Q 1206.5826416015625 190 1216.5826416015625 190 Z"/></g><g><path fill="none" stroke="#000000" paint-order="fill stroke markers" d=" M 1216.5826416015625 190 L 1300.2423095703125 190 Q 1310.2423095703125 190 1310.2423095703125 200 L 1310.2423095703125 220 Q 1310.2423095703125 230 1300.2423095703125 230 L 1216.5826416015625 230 Q 1206.5826416015625 230 1206.5826416015625 220 L 1206.5826416015625 200 Q 1206.5826416015625 190 1216.5826416015625 190 Z" stroke-miterlimit="10" stroke-dasharray=""/></g><g><g><path fill="none" stroke="none"/><text fill="#000000" stroke="none" font-family="Arial" font-size="13px" font-style="normal" font-weight="bold" text-decoration="undefined" x="1247.9124755859375" y="213.5" text-anchor="middle" dominant-baseline="central" transform="matrix(1 0 0 1 11 -10)">PatchWebhook</text></g></g><g><path fill="#C0C0C0" stroke="none" paint-order="stroke fill markers" d=" M 1232.8502197265625 287 L 1297.9747314453125 287 Q 1307.9747314453125 287 1307.9747314453125 297 L 1307.9747314453125 317 Q 1307.9747314453125 327 1297.9747314453125 327 L 1232.8502197265625 327 Q 1222.8502197265625 327 1222.8502197265625 317 L 1222.8502197265625 297 Q 1222.8502197265625 287 1232.8502197265625 287 Z" fill-opacity="0.2"/></g><g><path fill="#ffffff" stroke="none" paint-order="stroke fill markers" d=" M 1225.8502197265625 280 L 1290.9747314453125 280 Q 1300.9747314453125 280 1300.9747314453125 290 L 1300.9747314453125 310 Q 1300.9747314453125 320 1290.9747314453125 320 L 1225.8502197265625 320 Q 1215.8502197265625 320 1215.8502197265625 310 L 1215.8502197265625 290 Q 1215.8502197265625 280 1225.8502197265625 280 Z"/></g><g><path fill="none" stroke="#000000" paint-order="fill stroke markers" d=" M 1225.8502197265625 280 L 1290.9747314453125 280 Q 1300.9747314453125 280 1300.9747314453125 290 L 1300.9747314453125 310 Q 1300.9747314453125 320 1290.9747314453125 320 L 1225.8502197265625 320 Q 1215.8502197265625 320 1215.8502197265625 310 L 1215.8502197265625 290 Q 1215.8502197265625 280 1225.8502197265625 280 Z" stroke-miterlimit="10" stroke-dasharray=""/></g><g><g><path fill="none" stroke="none"/><text fill="#000000" stroke="none" font-family="Arial" font-size="13px" font-style="normal" font-weight="bold" text-decoration="undefined" x="1247.9124755859375" y="303.5" text-anchor="middle" dominant-baseline="central" transform="matrix(1 0 0 1 11 -10)">SendEmbed</text></g></g><g><path fill="#C0C0C0" stroke="none" paint-order="stroke fill markers" d=" M 1240.1912841796875 377 L 1290.6336669921875 377 Q 1300.6336669921875 377 1300.6336669921875 387 L 1300.6336669921875 407 Q 1300.6336669921875 417 1290.6336669921875 417 L 1240.1912841796875 417 Q 1230.1912841796875 417 1230.1912841796875 407 L 1230.1912841796875 387 Q 1230.1912841796875 377 1240.1912841796875 377 Z" fill-opacity="0.2"/></g><g><path fill="#ffffff" stroke="none" paint-order="stroke fill markers" d=" M 1233.1912841796875 370 L 1283.6336669921875 370 Q 1293.6336669921875 370 1293.6336669921875 380 L 1293.6336669921875 400 Q 1293.6336669921875 410 1283.6336669921875 410 L 1233.1912841796875 410 Q 1223.1912841796875 410 1223.1912841796875 400 L 1223.1912841796875 380 Q 1223.1912841796875 370 1233.1912841796875 370 Z"/></g><g><path fill="none" stroke="#000000" paint-order="fill stroke markers" d=" M 1233.1912841796875 370 L 1283.6336669921875 370 Q 1293.6336669921875 370 1293.6336669921875 380 L 1293.6336669921875 400 Q 1293.6336669921875 410 1283.6336669921875 410 L 1233.1912841796875 410 Q 1223.1912841796875 410 1223.1912841796875 400 L 1223.1912841796875 380 Q 1223.1912841796875 370 1233.1912841796875 370 Z" stroke-miterlimit="10" stroke-dasharray=""/></g><g><g><path fill="none" stroke="none"/><text fill="#000000" stroke="none" font-family="Arial" font-size="13px" font-style="normal" font-weight="bold" text-decoration="undefined" x="1247.9124755859375" y="393.5" text-anchor="middle" dominant-baseline="central" transform="matrix(1 0 0 1 11 -10)">JoinVoice</text></g></g><g><path fill="#C0C0C0" stroke="none" paint-order="stroke fill markers" d=" M 1244.7647705078125 467 L 1286.0601806640625 467 Q 1296.0601806640625 467 1296.0601806640625 477 L 1296.0601806640625 497 Q 1296.0601806640625 507 1286.0601806640625 507 L 1244.7647705078125 507 Q 1234.7647705078125 507 1234.7647705078125 497 L 1234.7647705078125 477 Q 1234.7647705078125 467 1244.7647705078125 467 Z" fill-opacity="0.2"/></g><g><path fill="#ffffff" stroke="none" paint-order="stroke fill markers" d=" M 1237.7647705078125 460 L 1279.0601806640625 460 Q 1289.0601806640625 460 1289.0601806640625 470 L 1289.0601806640625 490 Q 1289.0601806640625 500 1279.0601806640625 500 L 1237.7647705078125 500 Q 1227.7647705078125 500 1227.7647705078125 490 L 1227.7647705078125 470 Q 1227.7647705078125 460 1237.7647705078125 460 Z"/></g><g><path fill="none" stroke="#000000" paint-order="fill stroke markers" d=" M 1237.7647705078125 460 L 1279.0601806640625 460 Q 1289.0601806640625 460 1289.0601806640625 470 L 1289.0601806640625 490 Q 1289.0601806640625 500 1279.0601806640625 500 L 1237.7647705078125 500 Q 1227.7647705078125 500 1227.7647705078125 490 L 1227.7647705078125 470 Q 1227.7647705078125 460 1237.7647705078125 460 Z" stroke-miterlimit="10" stroke-dasharray=""/></g><g><g><path fill="none" stroke="none"/><text fill="#000000" stroke="none" font-family="Arial" font-size="13px" font-style="normal" font-weight="bold" text-decoration="undefined" x="1247.9124755859375" y="483.5" text-anchor="middle" dominant-baseline="central" transform="matrix(1 0 0 1 11 -10)">PlayTTS</text></g></g><g><path fill="#C0C0C0" stroke="none" paint-order="stroke fill markers" d=" M 1252.4124755859375 577 C 1252.4124755859375 569.8202976 1258.2327731859375 564 1265.4124755859375 564 C 1272.5921779859375 564 1278.4124755859375 569.8202976 1278.4124755859375 577 C 1278.4124755859375 584.1797024 1272.5921779859375 590 1265.4124755859375 590 C 1258.2327731859375 590 1252.4124755859375 584.1797024 1252.4124755859375 577 Z" fill-opacity="0.2"/></g><g><path fill="none" stroke="#000000" paint-order="fill stroke markers" d=" M 1245.4124755859375 570 C 1245.4124755859375 562.8202976 1251.2327731859375 557 1258.4124755859375 557 C 1265.5921779859375 557 1271.4124755859375 562.8202976 1271.4124755859375 570 C 1271.4124755859375 577.1797024 1265.5921779859375 583 1258.4124755859375 583 C 1251.2327731859375 583 1245.4124755859375 577.1797024 1245.4124755859375 570 Z" stroke-miterlimit="10" stroke-dasharray=""/></g><g><path fill="#000000" stroke="none" paint-order="stroke fill markers" d=" M 1250.4124755859375 570 C 1250.4124755859375 565.5817216 1253.9941971859375 562 1258.4124755859375 562 C 1262.8307539859375 562 1266.4124755859375 565.5817216 1266.4124755859375 570 C 1266.4124755859375 574.4182784 1262.8307539859375 578 1258.4124755859375 578 C 1253.9941971859375 578 1250.4124755859375 574.4182784 1250.4124755859375 570 Z"/></g><g><path fill="#C0C0C0" stroke="none" paint-order="stroke fill markers" d=" M 808.9893798828125 377 L 897.8985595703125 377 Q 907.8985595703125 377 907.8985595703125 387 L 907.8985595703125 407 Q 907.8985595703125 417 897.8985595703125 417 L 808.9893798828125 417 Q 798.9893798828125 417 798.9893798828125 407 L 798.9893798828125 387 Q 798.9893798828125 377 808.9893798828125 377 Z" fill-opacity="0.2"/></g><g><path fill="#ffffff" stroke="none" paint-order="stroke fill markers" d=" M 801.9893798828125 370 L 890.8985595703125 370 Q 900.8985595703125 370 900.8985595703125 380 L 900.8985595703125 400 Q 900.8985595703125 410 890.8985595703125 410 L 801.9893798828125 410 Q 791.9893798828125 410 791.9893798828125 400 L 791.9893798828125 380 Q 791.9893798828125 370 801.9893798828125 370 Z"/></g><g><path fill="none" stroke="#000000" paint-order="fill stroke markers" d=" M 801.9893798828125 370 L 890.8985595703125 370 Q 900.8985595703125 370 900.8985595703125 380 L 900.8985595703125 400 Q 900.8985595703125 410 890.8985595703125 410 L 801.9893798828125 410 Q 791.9893798828125 410 791.9893798828125 400 L 791.9893798828125 380 Q 791.9893798828125 370 801.9893798828125 370 Z" stroke-miterlimit="10" stroke-dasharray=""/></g><g><g><path fill="none" stroke="none"/><text fill="#000000" stroke="none" font-family="Arial" font-size="13px" font-style="normal" font-weight="bold" text-decoration="undefined" x="835.9439697265625" y="393.5" text-anchor="middle" dominant-baseline="central" transform="matrix(1 0 0 1 11 -10)">MonitoringLoop</text></g></g><g><path fill="#C0C0C0" stroke="none" paint-order="stroke fill markers" d=" M 1157.483642578125 487 C 1157.483642578125 481.477152 1161.960794578125 477 1167.483642578125 477 C 1173.006490578125 477 1177.483642578125 481.477152 1177.483642578125 487 C 1177.483642578125 492.522848 1173.006490578125 497 1167.483642578125 497 C 1161.960794578125 497 1157.483642578125 492.522848 1157.483642578125 487 Z" fill-opacity="0.2"/></g><g><path fill="#000000" stroke="none" paint-order="stroke fill markers" d=" M 1150.483642578125 480 C 1150.483642578125 474.477152 1154.960794578125 470 1160.483642578125 470 C 1166.006490578125 470 1170.483642578125 474.477152 1170.483642578125 480 C 1170.483642578125 485.522848 1166.006490578125 490 1160.483642578125 490 C 1154.960794578125 490 1150.483642578125 485.522848 1150.483642578125 480 Z"/></g><g><path fill="#C0C0C0" stroke="none" paint-order="stroke fill markers" d=" M 1036.60302734375 557 L 1101.02294921875 557 Q 1111.02294921875 557 1111.02294921875 567 L 1111.02294921875 587 Q 1111.02294921875 597 1101.02294921875 597 L 1036.60302734375 597 Q 1026.60302734375 597 1026.60302734375 587 L 1026.60302734375 567 Q 1026.60302734375 557 1036.60302734375 557 Z" fill-opacity="0.2"/></g><g><path fill="#ffffff" stroke="none" paint-order="stroke fill markers" d=" M 1029.60302734375 550 L 1094.02294921875 550 Q 1104.02294921875 550 1104.02294921875 560 L 1104.02294921875 580 Q 1104.02294921875 590 1094.02294921875 590 L 1029.60302734375 590 Q 1019.60302734375 590 1019.60302734375 580 L 1019.60302734375 560 Q 1019.60302734375 550 1029.60302734375 550 Z"/></g><g><path fill="none" stroke="#000000" paint-order="fill stroke markers" d=" M 1029.60302734375 550 L 1094.02294921875 550 Q 1104.02294921875 550 1104.02294921875 560 L 1104.02294921875 580 Q 1104.02294921875 590 1094.02294921875 590 L 1029.60302734375 590 Q 1019.60302734375 590 1019.60302734375 580 L 1019.60302734375 560 Q 1019.60302734375 550 1029.60302734375 550 Z" stroke-miterlimit="10" stroke-dasharray=""/></g><g><g><path fill="none" stroke="none"/><text fill="#000000" stroke="none" font-family="Arial" font-size="13px" font-style="normal" font-weight="bold" text-decoration="undefined" x="1051.31298828125" y="573.5" text-anchor="middle" dominant-baseline="central" transform="matrix(1 0 0 1 11 -10)">CheckRedis</text></g></g><g><path fill="#C0C0C0" stroke="none" paint-order="stroke fill markers" d=" M 989.4493408203125 377 L 1037.2447509765625 377 Q 1047.2447509765625 377 1047.2447509765625 387 L 1047.2447509765625 407 Q 1047.2447509765625 417 1037.2447509765625 417 L 989.4493408203125 417 Q 979.4493408203125 417 979.4493408203125 407 L 979.4493408203125 387 Q 979.4493408203125 377 989.4493408203125 377 Z" fill-opacity="0.2"/></g><g><path fill="#ffffff" stroke="none" paint-order="stroke fill markers" d=" M 982.4493408203125 370 L 1030.2447509765625 370 Q 1040.2447509765625 370 1040.2447509765625 380 L 1040.2447509765625 400 Q 1040.2447509765625 410 1030.2447509765625 410 L 982.4493408203125 410 Q 972.4493408203125 410 972.4493408203125 400 L 972.4493408203125 380 Q 972.4493408203125 370 982.4493408203125 370 Z"/></g><g><path fill="none" stroke="#000000" paint-order="fill stroke markers" d=" M 982.4493408203125 370 L 1030.2447509765625 370 Q 1040.2447509765625 370 1040.2447509765625 380 L 1040.2447509765625 400 Q 1040.2447509765625 410 1030.2447509765625 410 L 982.4493408203125 410 Q 972.4493408203125 410 972.4493408203125 400 L 972.4493408203125 380 Q 972.4493408203125 370 982.4493408203125 370 Z" stroke-miterlimit="10" stroke-dasharray=""/></g><g><g><path fill="none" stroke="none"/><text fill="#000000" stroke="none" font-family="Arial" font-size="13px" font-style="normal" font-weight="bold" text-decoration="undefined" x="995.8470458984375" y="393.5" text-anchor="middle" dominant-baseline="central" transform="matrix(1 0 0 1 11 -10)">CheckDB</text></g></g><g><path fill="#C0C0C0" stroke="none" paint-order="stroke fill markers" d=" M 1022.945556640625 467 L 1097.483642578125 467 Q 1107.483642578125 467 1107.483642578125 477 L 1107.483642578125 497 Q 1107.483642578125 507 1097.483642578125 507 L 1022.945556640625 507 Q 1012.945556640625 507 1012.945556640625 497 L 1012.945556640625 477 Q 1012.945556640625 467 1022.945556640625 467 Z" fill-opacity="0.2"/></g><g><path fill="#ffffff" stroke="none" paint-order="stroke fill markers" d=" M 1015.945556640625 460 L 1090.483642578125 460 Q 1100.483642578125 460 1100.483642578125 470 L 1100.483642578125 490 Q 1100.483642578125 500 1090.483642578125 500 L 1015.945556640625 500 Q 1005.945556640625 500 1005.945556640625 490 L 1005.945556640625 470 Q 1005.945556640625 460 1015.945556640625 460 Z"/></g><g><path fill="none" stroke="#000000" paint-order="fill stroke markers" d=" M 1015.945556640625 460 L 1090.483642578125 460 Q 1100.483642578125 460 1100.483642578125 470 L 1100.483642578125 490 Q 1100.483642578125 500 1090.483642578125 500 L 1015.945556640625 500 Q 1005.945556640625 500 1005.945556640625 490 L 1005.945556640625 470 Q 1005.945556640625 460 1015.945556640625 460 Z" stroke-miterlimit="10" stroke-dasharray=""/></g><g><g><path fill="none" stroke="none"/><text fill="#000000" stroke="none" font-family="Arial" font-size="13px" font-style="normal" font-weight="bold" text-decoration="undefined" x="1042.714599609375" y="483.5" text-anchor="middle" dominant-baseline="central" transform="matrix(1 0 0 1 11 -10)">CheckMetrics</text></g></g><g><path fill="#C0C0C0" stroke="none" paint-order="stroke fill markers" d=" M 560.874267578125 577 C 560.874267578125 569.8202976 566.694565178125 564 573.874267578125 564 C 581.053969978125 564 586.874267578125 569.8202976 586.874267578125 577 C 586.874267578125 584.1797024 581.053969978125 590 573.874267578125 590 C 566.694565178125 590 560.874267578125 584.1797024 560.874267578125 577 Z" fill-opacity="0.2"/></g><g><path fill="none" stroke="#000000" paint-order="fill stroke markers" d=" M 553.874267578125 570 C 553.874267578125 562.8202976 559.694565178125 557 566.874267578125 557 C 574.053969978125 557 579.874267578125 562.8202976 579.874267578125 570 C 579.874267578125 577.1797024 574.053969978125 583 566.874267578125 583 C 559.694565178125 583 553.874267578125 577.1797024 553.874267578125 570 Z" stroke-miterlimit="10" stroke-dasharray=""/></g><g><path fill="#000000" stroke="none" paint-order="stroke fill markers" d=" M 558.874267578125 570 C 558.874267578125 565.5817216 562.455989178125 562 566.874267578125 562 C 571.292545978125 562 574.874267578125 565.5817216 574.874267578125 570 C 574.874267578125 574.4182784 571.292545978125 578 566.874267578125 578 C 562.455989178125 578 558.874267578125 574.4182784 558.874267578125 570 Z"/></g><g><path fill="none" stroke="#000000" paint-order="fill stroke markers" d=" M 176 401 Q 176 435 535 476" stroke-miterlimit="10" stroke-dasharray=""/></g><g><path fill="none" stroke="#000000" paint-order="fill stroke markers" d=" M 524.4253120383689 479.0291871045107 L 535 476 L 525.3806076903165 470.6645251764812" stroke-miterlimit="10" stroke-dasharray=""/></g><g><rect fill="#ffffff" stroke="none" x="136" y="424" width="60.70263671875" height="13" transform="matrix(1 0 0 1 11 -10)"/></g><g><g><path fill="none" stroke="none"/><text fill="#000000" stroke="none" font-family="Arial" font-size="13px" font-style="normal" font-weight="normal" text-decoration="undefined" x="166.351318359375" y="430.5" text-anchor="middle" dominant-baseline="central" transform="matrix(1 0 0 1 11 -10)">Bot Online</text></g></g><g><path fill="none" stroke="#000000" paint-order="fill stroke markers" d=" M 535 472 Q 387 435 387 412.5 Q 387 390 387 367.5 Q 387 345 418 321" stroke-miterlimit="10" stroke-dasharray=""/></g><g><path fill="none" stroke="#000000" paint-order="fill stroke markers" d=" M 412.5410859829591 330.5498826042289 L 418 321 L 407.38717813165033 323.8927516296218" stroke-miterlimit="10" stroke-dasharray=""/></g><g><rect fill="#ffffff" stroke="none" x="317" y="393" width="88.8798828125" height="13" transform="matrix(1 0 0 1 11 -10)"/></g><g><g><path fill="none" stroke="none"/><text fill="#000000" stroke="none" font-family="Arial" font-size="13px" font-style="normal" font-weight="normal" text-decoration="undefined" x="361.43994140625" y="399.5" text-anchor="middle" dominant-baseline="central" transform="matrix(1 0 0 1 11 -10)">/bind command</text></g></g><g><path fill="none" stroke="#000000" paint-order="fill stroke markers" d=" M 402 295 Q 78 255 261 218" stroke-miterlimit="10" stroke-dasharray=""/></g><g><path fill="none" stroke="#000000" paint-order="fill stroke markers" d=" M 251.8731108150177 224.14002392544631 L 261 218 L 250.2046622118301 215.88796732049158" stroke-miterlimit="10" stroke-dasharray=""/></g><g><rect fill="#ffffff" stroke="none" x="-1" y="244" width="130.05712890625" height="13" transform="matrix(1 0 0 1 11 -10)"/></g><g><g><path fill="none" stroke="none"/><text fill="#000000" stroke="none" font-family="Arial" font-size="13px" font-style="normal" font-weight="normal" text-decoration="undefined" x="64.028564453125" y="250.5" text-anchor="middle" dominant-baseline="central" transform="matrix(1 0 0 1 11 -10)">Redirect to Riot OAuth</text></g></g><g><path fill="none" stroke="#000000" paint-order="fill stroke markers" d=" M 338 220 Q 473 255 459 279" stroke-miterlimit="10" stroke-dasharray=""/></g><g><path fill="none" stroke="#000000" paint-order="fill stroke markers" d=" M 460.484584781975 268.1006418526076 L 459 279 L 467.75677002318287 272.34274990997886" stroke-miterlimit="10" stroke-dasharray=""/></g><g><rect fill="#ffffff" stroke="none" x="419" y="266" width="110.56982421875" height="13" transform="matrix(1 0 0 1 11 -10)"/></g><g><g><path fill="none" stroke="none"/><text fill="#000000" stroke="none" font-family="Arial" font-size="13px" font-style="normal" font-weight="normal" text-decoration="undefined" x="474.284912109375" y="272.5" text-anchor="middle" dominant-baseline="central" transform="matrix(1 0 0 1 11 -10)">Authorization Code</text></g></g><g><path fill="none" stroke="#000000" paint-order="fill stroke markers" d=" M 460 321 Q 477 345 477 369" stroke-miterlimit="10" stroke-dasharray=""/></g><g><path fill="none" stroke="#000000" paint-order="fill stroke markers" d=" M 472.790482243984 358.83732514237585 L 477 369 L 481.209517756016 358.83732514237585" stroke-miterlimit="10" stroke-dasharray=""/></g><g><rect fill="#ffffff" stroke="none" x="404" y="348" width="153.892578125" height="13" transform="matrix(1 0 0 1 11 -10)"/></g><g><g><path fill="none" stroke="none"/><text fill="#000000" stroke="none" font-family="Arial" font-size="13px" font-style="normal" font-weight="normal" text-decoration="undefined" x="480.9462890625" y="354.5" text-anchor="middle" dominant-baseline="central" transform="matrix(1 0 0 1 11 -10)">PUUID Retrieved &amp; Stored</text></g></g><g><path fill="none" stroke="#000000" paint-order="fill stroke markers" d=" M 477 411 Q 477 435 535 464" stroke-miterlimit="10" stroke-dasharray=""/></g><g><path fill="none" stroke="#000000" paint-order="fill stroke markers" d=" M 524.0276737030609 463.22022077900255 L 535 464 L 527.7927808450386 455.6900064950472" stroke-miterlimit="10" stroke-dasharray=""/></g><g><rect fill="#ffffff" stroke="none" x="421" y="425" width="102.6162109375" height="13" transform="matrix(1 0 0 1 11 -10)"/></g><g><g><path fill="none" stroke="none"/><text fill="#000000" stroke="none" font-family="Arial" font-size="13px" font-style="normal" font-weight="normal" text-decoration="undefined" x="472.30810546875" y="431.5" text-anchor="middle" dominant-baseline="central" transform="matrix(1 0 0 1 11 -10)">Binding Complete</text></g></g><g><path fill="none" stroke="#000000" paint-order="fill stroke markers" d=" M 567 459 Q 569 435 569 412.5 Q 569 390 569 367.5 Q 569 345 569 322.5 Q 569 300 569 277.5 Q 569 255 612 231" stroke-miterlimit="10" stroke-dasharray=""/></g><g><path fill="none" stroke="#000000" paint-order="fill stroke markers" d=" M 605.1775521691015 239.62868504435463 L 612 231 L 601.0743991668942 232.27720258206637" stroke-miterlimit="10" stroke-dasharray=""/></g><g><rect fill="#ffffff" stroke="none" x="492" y="348" width="103.3017578125" height="13" transform="matrix(1 0 0 1 11 -10)"/></g><g><g><path fill="none" stroke="none"/><text fill="#000000" stroke="none" font-family="Arial" font-size="13px" font-style="normal" font-weight="normal" text-decoration="undefined" x="543.65087890625" y="354.5" text-anchor="middle" dominant-baseline="central" transform="matrix(1 0 0 1 11 -10)">/ command</text></g></g><g><path fill="none" stroke="#000000" paint-order="fill stroke markers" d=" M 285 311 Q 286 345 285 369" stroke-miterlimit="10" stroke-dasharray=""/></g><g><path fill="none" stroke="#000000" paint-order="fill stroke markers" d=" M 281.2172092782506 358.6708909215051 L 285 369 L 289.6289461018608 359.02137995582217" stroke-miterlimit="10" stroke-dasharray=""/></g><g><path fill="none" stroke="#000000" paint-order="fill stroke markers" d=" M 285 411 Q 286 435 284 459" stroke-miterlimit="10" stroke-dasharray=""/></g><g><path fill="none" stroke="#000000" paint-order="fill stroke markers" d=" M 280.6489871461347 448.52284805621156 L 284 459 L 289.03894127416316 449.22201090021395" stroke-miterlimit="10" stroke-dasharray=""/></g><g><rect fill="#ffffff" stroke="none" x="227" y="440" width="124.30615234375" height="13" transform="matrix(1 0 0 1 11 -10)"/></g><g><g><path fill="none" stroke="none"/><text fill="#000000" stroke="none" font-family="Arial" font-size="13px" font-style="normal" font-weight="normal" text-decoration="undefined" x="289.153076171875" y="446.5" text-anchor="middle" dominant-baseline="central" transform="matrix(1 0 0 1 11 -10)">Send to Redis Queue</text></g></g><g><path fill="none" stroke="#000000" paint-order="fill stroke markers" d=" M 283 501 Q 283 525 283 556" stroke-miterlimit="10" stroke-dasharray=""/></g><g><path fill="none" stroke="#000000" paint-order="fill stroke markers" d=" M 278.790482243984 545.8373251423759 L 283 556 L 287.209517756016 545.8373251423759" stroke-miterlimit="10" stroke-dasharray=""/></g><g><path fill="none" stroke="#000000" paint-order="fill stroke markers" d=" M 664 231 Q 681 255 680 279" stroke-miterlimit="10" stroke-dasharray=""/></g><g><path fill="none" stroke="#000000" paint-order="fill stroke markers" d=" M 676.2172092782506 268.6708909215051 L 680 279 L 684.6289461018607 269.02137995582217" stroke-miterlimit="10" stroke-dasharray=""/></g><g><rect fill="#ffffff" stroke="none" x="621" y="259" width="126.89599609375" height="13" transform="matrix(1 0 0 1 11 -10)"/></g><g><g><path fill="none" stroke="none"/><text fill="#000000" stroke="none" font-family="Arial" font-size="13px" font-style="normal" font-weight="normal" text-decoration="undefined" x="684.447998046875" y="265.5" text-anchor="middle" dominant-baseline="central" transform="matrix(1 0 0 1 11 -10)">Worker Picks Up Task</text></g></g><g><path fill="none" stroke="#000000" paint-order="fill stroke markers" d=" M 779 41 Q 779 75 837 99" stroke-miterlimit="10" stroke-dasharray=""/></g><g><path fill="none" stroke="#000000" paint-order="fill stroke markers" d=" M 826.0000007085987 99.0039483122305 L 837 99 L 829.2190340296504 91.22461778635531" stroke-miterlimit="10" stroke-dasharray=""/></g><g><path fill="none" stroke="#000000" paint-order="fill stroke markers" d=" M 874 99 Q 861 75 984 44" stroke-miterlimit="10" stroke-dasharray=""/></g><g><path fill="none" stroke="#000000" paint-order="fill stroke markers" d=" M 975.1742526641178 50.56552998341866 L 984 44 L 973.1167234363998 42.401784983117565" stroke-miterlimit="10" stroke-dasharray=""/></g><g><rect fill="#ffffff" stroke="none" x="810" y="64" width="73.68994140625" height="13" transform="matrix(1 0 0 1 11 -10)"/></g><g><g><path fill="none" stroke="none"/><text fill="#000000" stroke="none" font-family="Arial" font-size="13px" font-style="normal" font-weight="normal" text-decoration="undefined" x="846.844970703125" y="70.5" text-anchor="middle" dominant-baseline="central" transform="matrix(1 0 0 1 11 -10)">Call Riot API</text></g></g><g><path fill="none" stroke="#000000" paint-order="fill stroke markers" d=" M 1094 35 Q 1551 75 936 117" stroke-miterlimit="10" stroke-dasharray=""/></g><g><path fill="none" stroke="#000000" paint-order="fill stroke markers" d=" M 945.8522474202804 112.10784088877118 L 936 117 L 946.4258698430014 120.50731207861446" stroke-miterlimit="10" stroke-dasharray=""/></g><g><rect fill="#ffffff" stroke="none" x="1489" y="93" width="105.7138671875" height="13" transform="matrix(1 0 0 1 11 -10)"/></g><g><g><path fill="none" stroke="none"/><text fill="#000000" stroke="none" font-family="Arial" font-size="13px" font-style="normal" font-weight="normal" text-decoration="undefined" x="1541.85693359375" y="99.5" text-anchor="middle" dominant-baseline="central" transform="matrix(1 0 0 1 11 -10)">429 - Wait &amp; Retry</text></g></g><g><path fill="none" stroke="#000000" paint-order="fill stroke markers" d=" M 1094 35 Q 1501 75 1530 99" stroke-miterlimit="10" stroke-dasharray=""/></g><g><path fill="none" stroke="#000000" paint-order="fill stroke markers" d=" M 1519.48688038936 95.76359519645973 L 1530 99 L 1524.8545856151393 89.2776180486432" stroke-miterlimit="10" stroke-dasharray=""/></g><g><rect fill="#ffffff" stroke="none" x="1477" y="67" width="44.08447265625" height="13" transform="matrix(1 0 0 1 11 -10)"/></g><g><g><path fill="none" stroke="none"/><text fill="#000000" stroke="none" font-family="Arial" font-size="13px" font-style="normal" font-weight="normal" text-decoration="undefined" x="1499.042236328125" y="73.5" text-anchor="middle" dominant-baseline="central" transform="matrix(1 0 0 1 11 -10)">200 OK</text></g></g><g><path fill="none" stroke="#000000" paint-order="fill stroke markers" d=" M 1556 141 Q 1557 165 1556 189" stroke-miterlimit="10" stroke-dasharray=""/></g><g><path fill="none" stroke="#000000" paint-order="fill stroke markers" d=" M 1552.2172092782507 178.67089092150505 L 1556 189 L 1560.6289461018607 179.02137995582214" stroke-miterlimit="10" stroke-dasharray=""/></g><g><rect fill="#ffffff" stroke="none" x="1490" y="169" width="140.9052734375" height="13" transform="matrix(1 0 0 1 11 -10)"/></g><g><g><path fill="none" stroke="none"/><text fill="#000000" stroke="none" font-family="Arial" font-size="13px" font-style="normal" font-weight="normal" text-decoration="undefined" x="1560.45263671875" y="175.5" text-anchor="middle" dominant-baseline="central" transform="matrix(1 0 0 1 11 -10)">Parse to Pydantic Model</text></g></g><g><path fill="none" stroke="#000000" paint-order="fill stroke markers" d=" M 1556 231 Q 1557 255 1556 279" stroke-miterlimit="10" stroke-dasharray=""/></g><g><path fill="none" stroke="#000000" paint-order="fill stroke markers" d=" M 1552.2172092782507 268.6708909215051 L 1556 279 L 1560.6289461018607 269.02137995582217" stroke-miterlimit="10" stroke-dasharray=""/></g><g><rect fill="#ffffff" stroke="none" x="1514" y="259" width="93.1962890625" height="13" transform="matrix(1 0 0 1 11 -10)"/></g><g><g><path fill="none" stroke="none"/><text fill="#000000" stroke="none" font-family="Arial" font-size="13px" font-style="normal" font-weight="normal" text-decoration="undefined" x="1560.59814453125" y="265.5" text-anchor="middle" dominant-baseline="central" transform="matrix(1 0 0 1 11 -10)">Gemini Analysis</text></g></g><g><path fill="none" stroke="#000000" paint-order="fill stroke markers" d=" M 1603 321 Q 1656 345 1656 369" stroke-miterlimit="10" stroke-dasharray=""/></g><g><path fill="none" stroke="#000000" paint-order="fill stroke markers" d=" M 1651.7904822439841 358.83732514237585 L 1656 369 L 1660.2095177560159 358.83732514237585" stroke-miterlimit="10" stroke-dasharray=""/></g><g><rect fill="#ffffff" stroke="none" x="1607" y="348" width="105.50439453125" height="13" transform="matrix(1 0 0 1 11 -10)"/></g><g><g><path fill="none" stroke="none"/><text fill="#000000" stroke="none" font-family="Arial" font-size="13px" font-style="normal" font-weight="normal" text-decoration="undefined" x="1659.752197265625" y="354.5" text-anchor="middle" dominant-baseline="central" transform="matrix(1 0 0 1 11 -10)">Add Emotion Tags</text></g></g><g><path fill="none" stroke="#000000" paint-order="fill stroke markers" d=" M 1656 411 Q 1656 435 1656 459" stroke-miterlimit="10" stroke-dasharray=""/></g><g><path fill="none" stroke="#000000" paint-order="fill stroke markers" d=" M 1651.7904822439841 448.83732514237585 L 1656 459 L 1660.2095177560159 448.83732514237585" stroke-miterlimit="10" stroke-dasharray=""/></g><g><rect fill="#ffffff" stroke="none" x="1614" y="438" width="91.0634765625" height="13" transform="matrix(1 0 0 1 11 -10)"/></g><g><g><path fill="none" stroke="none"/><text fill="#000000" stroke="none" font-family="Arial" font-size="13px" font-style="normal" font-weight="normal" text-decoration="undefined" x="1659.53173828125" y="444.5" text-anchor="middle" dominant-baseline="central" transform="matrix(1 0 0 1 11 -10)">Generate Audio</text></g></g><g><path fill="none" stroke="#000000" paint-order="fill stroke markers" d=" M 1656 501 Q 1656 525 1656 556" stroke-miterlimit="10" stroke-dasharray=""/></g><g><path fill="none" stroke="#000000" paint-order="fill stroke markers" d=" M 1651.7904822439841 545.8373251423759 L 1656 556 L 1660.2095177560159 545.8373251423759" stroke-miterlimit="10" stroke-dasharray=""/></g><g><path fill="none" stroke="#000000" paint-order="fill stroke markers" d=" M 680 321 Q 681 345 680 369" stroke-miterlimit="10" stroke-dasharray=""/></g><g><path fill="none" stroke="#000000" paint-order="fill stroke markers" d=" M 676.2172092782506 358.6708909215051 L 680 369 L 684.6289461018607 359.02137995582217" stroke-miterlimit="10" stroke-dasharray=""/></g><g><rect fill="#ffffff" stroke="none" x="634" y="349" width="100.90234375" height="13" transform="matrix(1 0 0 1 11 -10)"/></g><g><g><path fill="none" stroke="none"/><text fill="#000000" stroke="none" font-family="Arial" font-size="13px" font-style="normal" font-weight="normal" text-decoration="undefined" x="684.451171875" y="355.5" text-anchor="middle" dominant-baseline="central" transform="matrix(1 0 0 1 11 -10)">Worker Complete</text></g></g><g><path fill="none" stroke="#000000" paint-order="fill stroke markers" d=" M 1258 131 Q 1258 165 1258 189" stroke-miterlimit="10" stroke-dasharray=""/></g><g><path fill="none" stroke="#000000" paint-order="fill stroke markers" d=" M 1253.7904822439841 178.83732514237585 L 1258 189 L 1262.2095177560159 178.83732514237585" stroke-miterlimit="10" stroke-dasharray=""/></g><g><path fill="none" stroke="#000000" paint-order="fill stroke markers" d=" M 1258 231 Q 1258 255 1258 279" stroke-miterlimit="10" stroke-dasharray=""/></g><g><path fill="none" stroke="#000000" paint-order="fill stroke markers" d=" M 1253.7904822439841 268.83732514237585 L 1258 279 L 1262.2095177560159 268.83732514237585" stroke-miterlimit="10" stroke-dasharray=""/></g><g><rect fill="#ffffff" stroke="none" x="1188" y="258" width="146.68798828125" height="13" transform="matrix(1 0 0 1 11 -10)"/></g><g><g><path fill="none" stroke="none"/><text fill="#000000" stroke="none" font-family="Arial" font-size="13px" font-style="normal" font-weight="normal" text-decoration="undefined" x="1261.343994140625" y="264.5" text-anchor="middle" dominant-baseline="central" transform="matrix(1 0 0 1 11 -10)">Update Original Message</text></g></g><g><path fill="none" stroke="#000000" paint-order="fill stroke markers" d=" M 1258 321 Q 1258 345 1258 369" stroke-miterlimit="10" stroke-dasharray=""/></g><g><path fill="none" stroke="#000000" paint-order="fill stroke markers" d=" M 1253.7904822439841 358.83732514237585 L 1258 369 L 1262.2095177560159 358.83732514237585" stroke-miterlimit="10" stroke-dasharray=""/></g><g><rect fill="#ffffff" stroke="none" x="1220" y="348" width="82.3798828125" height="13" transform="matrix(1 0 0 1 11 -10)"/></g><g><g><path fill="none" stroke="none"/><text fill="#000000" stroke="none" font-family="Arial" font-size="13px" font-style="normal" font-weight="normal" text-decoration="undefined" x="1261.18994140625" y="354.5" text-anchor="middle" dominant-baseline="central" transform="matrix(1 0 0 1 11 -10)">Send Analysis</text></g></g><g><path fill="none" stroke="#000000" paint-order="fill stroke markers" d=" M 1258 411 Q 1258 435 1258 459" stroke-miterlimit="10" stroke-dasharray=""/></g><g><path fill="none" stroke="#000000" paint-order="fill stroke markers" d=" M 1253.7904822439841 448.83732514237585 L 1258 459 L 1262.2095177560159 448.83732514237585" stroke-miterlimit="10" stroke-dasharray=""/></g><g><rect fill="#ffffff" stroke="none" x="1186" y="438" width="150.3251953125" height="13" transform="matrix(1 0 0 1 11 -10)"/></g><g><g><path fill="none" stroke="none"/><text fill="#000000" stroke="none" font-family="Arial" font-size="13px" font-style="normal" font-weight="normal" text-decoration="undefined" x="1261.16259765625" y="444.5" text-anchor="middle" dominant-baseline="central" transform="matrix(1 0 0 1 11 -10)">Connect to Voice Channel</text></g></g><g><path fill="none" stroke="#000000" paint-order="fill stroke markers" d=" M 1258 501 Q 1258 525 1258 556" stroke-miterlimit="10" stroke-dasharray=""/></g><g><path fill="none" stroke="#000000" paint-order="fill stroke markers" d=" M 1253.7904822439841 545.8373251423759 L 1258 556 L 1262.2095177560159 545.8373251423759" stroke-miterlimit="10" stroke-dasharray=""/></g><g><rect fill="#ffffff" stroke="none" x="1217" y="528" width="89.60986328125" height="13" transform="matrix(1 0 0 1 11 -10)"/></g><g><g><path fill="none" stroke="none"/><text fill="#000000" stroke="none" font-family="Arial" font-size="13px" font-style="normal" font-weight="normal" text-decoration="undefined" x="1261.804931640625" y="534.5" text-anchor="middle" dominant-baseline="central" transform="matrix(1 0 0 1 11 -10)">Audio Playback</text></g></g><g><path fill="none" stroke="#000000" paint-order="fill stroke markers" d=" M 680 411 Q 681 435 599 467" stroke-miterlimit="10" stroke-dasharray=""/></g><g><path fill="none" stroke="#000000" paint-order="fill stroke markers" d=" M 606.936981903045 459.38394339104957 L 599 467 L 609.9976589998874 467.2269284517085" stroke-miterlimit="10" stroke-dasharray=""/></g><g><rect fill="#ffffff" stroke="none" x="616" y="452" width="119.21533203125" height="13" transform="matrix(1 0 0 1 11 -10)"/></g><g><g><path fill="none" stroke="none"/><text fill="#000000" stroke="none" font-family="Arial" font-size="13px" font-style="normal" font-weight="normal" text-decoration="undefined" x="675.607666015625" y="458.5" text-anchor="middle" dominant-baseline="central" transform="matrix(1 0 0 1 11 -10)">Command Complete</text></g></g><g><path fill="none" stroke="#000000" paint-order="fill stroke markers" d=" M 1160 491 Q 1160 525 1105 550" stroke-miterlimit="10" stroke-dasharray=""/></g><g><path fill="none" stroke="#000000" paint-order="fill stroke markers" d=" M 1112.5098476702055 541.962451370579 L 1105 550 L 1115.9936693532607 549.6268590733001" stroke-miterlimit="10" stroke-dasharray=""/></g><g><path fill="none" stroke="#000000" paint-order="fill stroke markers" d=" M 1019 552 Q 956 525 956 502.5 Q 956 480 956 457.5 Q 956 435 983 411" stroke-miterlimit="10" stroke-dasharray=""/></g><g><path fill="none" stroke="#000000" paint-order="fill stroke markers" d=" M 978.200973484669 420.8979464792022 L 983 411 L 972.60767073265 414.6054808831808" stroke-miterlimit="10" stroke-dasharray=""/></g><g><rect fill="#ffffff" stroke="none" x="868" y="483" width="124.29345703125" height="13" transform="matrix(1 0 0 1 11 -10)"/></g><g><g><path fill="none" stroke="none"/><text fill="#000000" stroke="none" font-family="Arial" font-size="13px" font-style="normal" font-weight="normal" text-decoration="undefined" x="930.146728515625" y="489.5" text-anchor="middle" dominant-baseline="central" transform="matrix(1 0 0 1 11 -10)">Monitor Queue Depth</text></g></g><g><path fill="none" stroke="#000000" paint-order="fill stroke markers" d=" M 1028 411 Q 1053 435 1053 459" stroke-miterlimit="10" stroke-dasharray=""/></g><g><path fill="none" stroke="#000000" paint-order="fill stroke markers" d=" M 1048.7904822439841 448.83732514237585 L 1053 459 L 1057.2095177560159 448.83732514237585" stroke-miterlimit="10" stroke-dasharray=""/></g><g><rect fill="#ffffff" stroke="none" x="987" y="438" width="138.00439453125" height="13" transform="matrix(1 0 0 1 11 -10)"/></g><g><g><path fill="none" stroke="none"/><text fill="#000000" stroke="none" font-family="Arial" font-size="13px" font-style="normal" font-weight="normal" text-decoration="undefined" x="1056.002197265625" y="444.5" text-anchor="middle" dominant-baseline="central" transform="matrix(1 0 0 1 11 -10)">Verify Data Consistency</text></g></g><g><path fill="none" stroke="#000000" paint-order="fill stroke markers" d=" M 1053 501 Q 1053 525 1057 549" stroke-miterlimit="10" stroke-dasharray=""/></g><g><path fill="none" stroke="#000000" paint-order="fill stroke markers" d=" M 1051.1770238082952 539.6676397266908 L 1057 549 L 1059.4815092818906 538.2835588144249" stroke-miterlimit="10" stroke-dasharray=""/></g><g><rect fill="#ffffff" stroke="none" x="1001" y="526" width="110.04931640625" height="13" transform="matrix(1 0 0 1 11 -10)"/></g><g><g><path fill="none" stroke="none"/><text fill="#000000" stroke="none" font-family="Arial" font-size="13px" font-style="normal" font-weight="normal" text-decoration="undefined" x="1056.024658203125" y="532.5" text-anchor="middle" dominant-baseline="central" transform="matrix(1 0 0 1 11 -10)">Track Performance</text></g></g><g><path fill="none" stroke="#000000" paint-order="fill stroke markers" d=" M 599 473 Q 789 435 819 411" stroke-miterlimit="10" stroke-dasharray=""/></g><g><path fill="none" stroke="#000000" paint-order="fill stroke markers" d=" M 813.6939490779461 420.63565377193316 L 819 411 L 808.4346192883949 414.06149153499416" stroke-miterlimit="10" stroke-dasharray=""/></g><g><rect fill="#ffffff" stroke="none" x="726" y="427" width="84.53173828125" height="13" transform="matrix(1 0 0 1 11 -10)"/></g><g><g><path fill="none" stroke="none"/><text fill="#000000" stroke="none" font-family="Arial" font-size="13px" font-style="normal" font-weight="normal" text-decoration="undefined" x="768.265869140625" y="433.5" text-anchor="middle" dominant-baseline="central" transform="matrix(1 0 0 1 11 -10)">CLI3 Observer</text></g></g><g><path fill="none" stroke="#000000" paint-order="fill stroke markers" d=" M 867 411 Q 891 435 599 475" stroke-miterlimit="10" stroke-dasharray=""/></g><g><path fill="none" stroke="#000000" paint-order="fill stroke markers" d=" M 608.49733285772 469.450164994374 L 599 475 L 609.6399544338243 477.791302499935" stroke-miterlimit="10" stroke-dasharray=""/></g><g><rect fill="#ffffff" stroke="none" x="850" y="453" width="65.76806640625" height="13" transform="matrix(1 0 0 1 11 -10)"/></g><g><g><path fill="none" stroke="none"/><text fill="#000000" stroke="none" font-family="Arial" font-size="13px" font-style="normal" font-weight="normal" text-decoration="undefined" x="882.884033203125" y="459.5" text-anchor="middle" dominant-baseline="central" transform="matrix(1 0 0 1 11 -10)">Continuous</text></g></g><g><path fill="none" stroke="#000000" paint-order="fill stroke markers" d=" M 566 501 Q 567 525 566 556" stroke-miterlimit="10" stroke-dasharray=""/></g><g><path fill="none" stroke="#000000" paint-order="fill stroke markers" d=" M 562.1203284999245 545.7068882716885 L 566 556 L 570.5349870761203 545.9783288709207" stroke-miterlimit="10" stroke-dasharray=""/></g><g><rect fill="#ffffff" stroke="none" x="530" y="529" width="80.9453125" height="13" transform="matrix(1 0 0 1 11 -10)"/></g><g><g><path fill="none" stroke="none"/><text fill="#000000" stroke="none" font-family="Arial" font-size="13px" font-style="normal" font-weight="normal" text-decoration="undefined" x="570.47265625" y="535.5" text-anchor="middle" dominant-baseline="central" transform="matrix(1 0 0 1 11 -10)">Bot Shutdown</text></g></g><g><path fill="#ffffff" stroke="none" paint-order="stroke fill markers" d=" M 31 280 L 214.865234375 280 L 224.865234375 290 L 224.865234375 319 L 31 319 L 31 280"/></g><g><path fill="none" stroke="#000000" paint-order="fill stroke markers" d=" M 31 280 L 214.865234375 280 L 224.865234375 290 L 224.865234375 319 L 31 319 L 31 280 L 31 280" stroke-miterlimit="10" stroke-dasharray=""/></g><g><path fill="none" stroke="#000000" paint-order="fill stroke markers" d=" M 214.865234375 280 L 214.865234375 290 L 224.865234375 290 L 214.865234375 280" stroke-miterlimit="10" stroke-dasharray=""/></g><g><g><path fill="none" stroke="none"/><text fill="#000000" stroke="none" font-family="Arial" font-size="13px" font-style="normal" font-weight="normal" text-decoration="undefined" x="25" y="295" text-anchor="start" dominant-baseline="text-before-edge" transform="matrix(1 0 0 1 11 -10)">Requires Production API Key</text></g></g><g><g><path fill="none" stroke="none"/><text fill="#000000" stroke="none" font-family="Arial" font-size="13px" font-style="normal" font-weight="normal" text-decoration="undefined" x="25" y="310" text-anchor="start" dominant-baseline="text-before-edge" transform="matrix(1 0 0 1 11 -10)">        Standard OAuth 2.0 Flow</text></g></g><g><path fill="none" stroke="#000000" paint-order="fill stroke markers" d=" M 261 220 Q 128 255 128 279" stroke-miterlimit="10" stroke-dasharray="3"/></g><g><path fill="#ffffff" stroke="none" paint-order="stroke fill markers" d=" M 984.7835693359375 100 L 1187.4124755859375 100 L 1197.4124755859375 110 L 1197.4124755859375 139 L 984.7835693359375 139 L 984.7835693359375 100"/></g><g><path fill="none" stroke="#000000" paint-order="fill stroke markers" d=" M 984.7835693359375 100 L 1187.4124755859375 100 L 1197.4124755859375 110 L 1197.4124755859375 139 L 984.7835693359375 139 L 984.7835693359375 100 L 984.7835693359375 100" stroke-miterlimit="10" stroke-dasharray=""/></g><g><path fill="none" stroke="#000000" paint-order="fill stroke markers" d=" M 1187.4124755859375 100 L 1187.4124755859375 110 L 1197.4124755859375 110 L 1187.4124755859375 100" stroke-miterlimit="10" stroke-dasharray=""/></g><g><g><path fill="none" stroke="none"/><text fill="#000000" stroke="none" font-family="Arial" font-size="13px" font-style="normal" font-weight="normal" text-decoration="undefined" x="978.7835693359375" y="115" text-anchor="start" dominant-baseline="text-before-edge" transform="matrix(1 0 0 1 11 -10)">Cassiopeia handles rate limiting</text></g></g><g><g><path fill="none" stroke="none"/><text fill="#000000" stroke="none" font-family="Arial" font-size="13px" font-style="normal" font-weight="normal" text-decoration="undefined" x="978.7835693359375" y="130" text-anchor="start" dominant-baseline="text-before-edge" transform="matrix(1 0 0 1 11 -10)">        Respects Retry-After header</text></g></g><g><path fill="none" stroke="#000000" paint-order="fill stroke markers" d=" M 1052 51 Q 1067 75 1080 99" stroke-miterlimit="10" stroke-dasharray="3"/></g><g><path fill="#ffffff" stroke="none" paint-order="stroke fill markers" d=" M 1343.6336669921875 370 L 1547.0306396484375 370 L 1557.0306396484375 380 L 1557.0306396484375 409 L 1343.6336669921875 409 L 1343.6336669921875 370"/></g><g><path fill="none" stroke="#000000" paint-order="fill stroke markers" d=" M 1343.6336669921875 370 L 1547.0306396484375 370 L 1557.0306396484375 380 L 1557.0306396484375 409 L 1343.6336669921875 409 L 1343.6336669921875 370 L 1343.6336669921875 370" stroke-miterlimit="10" stroke-dasharray=""/></g><g><path fill="none" stroke="#000000" paint-order="fill stroke markers" d=" M 1547.0306396484375 370 L 1547.0306396484375 380 L 1557.0306396484375 380 L 1547.0306396484375 370" stroke-miterlimit="10" stroke-dasharray=""/></g><g><g><path fill="none" stroke="none"/><text fill="#000000" stroke="none" font-family="Arial" font-size="13px" font-style="normal" font-weight="normal" text-decoration="undefined" x="1337.6336669921875" y="385" text-anchor="start" dominant-baseline="text-before-edge" transform="matrix(1 0 0 1 11 -10)">LLM outputs include emotion tags</text></g></g><g><g><path fill="none" stroke="none"/><text fill="#000000" stroke="none" font-family="Arial" font-size="13px" font-style="normal" font-weight="normal" text-decoration="undefined" x="1337.6336669921875" y="400" text-anchor="start" dominant-baseline="text-before-edge" transform="matrix(1 0 0 1 11 -10)">        for TTS emotional synthesis</text></g></g><g><path fill="none" stroke="#000000" paint-order="fill stroke markers" d=" M 1507 321 Q 1451 345 1450 369" stroke-miterlimit="10" stroke-dasharray="3"/></g></g></svg>